<svg xmlns="http://www.w3.org/2000/svg" xmlns:xlink="http://www.w3.org/1999/xlink" width="326" height="328" viewBox="0 0 326 328" fill="none">
<ellipse cx="163" cy="164" rx="163" ry="164"   fill="#436EEE" >
</ellipse>
<path d="M152.629 132.544C151.031 136.703 149.808 140.94 148.806 145.26C117.662 151.746 93.7741 172.96 88.7939 205.135C87.9425 209.811 87.2457 214.518 86.5912 219.225C86.2077 223.28 84.1775 229.714 88.351 232.338C88.4704 235.247 88.8194 238.185 89.9265 240.923C90.3515 243.652 90.6951 246.398 91.5934 249.028C93.5738 253.582 93.8791 258.578 96.1031 263.118C97.6572 266.467 99.9386 269.156 102.76 271.498C103.952 272.542 105.589 273.676 105.84 275.311C105.765 277.775 107.634 281.337 110.586 280.18C112.681 280.968 114.931 281.173 117.15 281.157C154.76 279.531 192.449 279.393 230.061 281.212C231.38 281.273 232.632 280.008 232.577 278.694C231.978 264.371 230.497 250.09 228.167 235.945C222.969 206.656 217.416 173.895 191.952 155.093C186.72 150.228 188.4 145.535 186.652 139.606C183.271 132.271 176.298 125.046 168.224 123.482C164.192 121.119 158.922 122.458 156.167 126.162C153.58 126.848 153.494 130.427 152.629 132.544Z"   fill="#FFFFFF" >
</path>
<path d="M164.062 159.634C162.26 160.044 160.479 160.547 158.736 161.162C156.872 161.819 155.07 162.656 153.408 163.732C151.692 164.843 150.089 166.192 150.194 168.411C150.198 168.458 150.125 168.481 150.103 168.436C149.218 166.547 150.942 164.554 152.343 163.466C154.371 161.891 156.746 160.758 159.146 159.875C160.38 159.421 161.652 159.065 162.929 158.749L163.223 158.676C163.973 158.495 164.75 158.285 165.532 158.159C165.243 158.088 164.991 157.878 164.879 157.499L164.865 157.446C163.873 153.519 159.085 155.818 156.277 157.166C155.889 157.352 155.539 157.52 155.242 157.651C153.49 158.423 151.717 159.163 149.985 159.98L149.762 160.087C148.419 160.732 147.019 161.493 146.117 162.707C144.286 165.163 145.202 168.299 146.027 171.125C146.246 171.874 146.458 172.602 146.611 173.289C146.82 174.23 147.021 175.227 147.034 176.193C147.042 176.858 146.872 177.49 146.702 178.127C146.669 178.248 146.637 178.369 146.605 178.49L146.491 178.939C146.592 178.941 146.696 179.047 146.662 179.154C145.84 181.838 144.45 184.383 143.096 186.831C141.714 189.329 140.292 191.814 138.767 194.226C133.341 202.802 127.13 210.899 120.317 218.417C117.05 222.02 113.518 225.383 110.33 229.058C108.847 230.768 107.459 232.56 106.301 234.513C105.676 235.568 105.114 236.663 104.641 237.798L104.547 238.022C104.159 238.95 103.778 239.768 103.056 240.509C102.697 240.879 101.979 240.723 101.865 240.194C101.351 237.786 102.986 235.191 104.248 233.186C104.289 233.122 104.329 233.059 104.368 232.996C105.746 230.806 107.355 228.764 109.067 226.826C109.55 226.277 110.043 225.736 110.541 225.201C108.311 225.814 105.961 225.977 103.688 226.378C101.36 226.788 99.0463 227.277 96.7901 227.987C94.7174 228.638 92.7442 229.498 90.8577 230.576C89.9533 231.094 89.0683 231.662 88.2401 232.298C88.1618 232.357 88.0857 232.421 88.0097 232.482C89.3618 235.881 90.4012 239.406 91.4871 242.891C92.2285 245.274 92.9532 247.663 93.6731 250.053L95.2899 255.433C96.4563 259.311 97.428 263.529 99.4838 267.057C100.371 268.579 101.571 269.954 102.944 271.058C103.61 271.595 104.335 272.003 105.086 272.398C105.56 272.647 105.978 272.97 106.417 273.266C106.707 272.936 107.145 272.732 107.684 272.818L107.744 272.829C109.445 273.163 111.199 272.56 112.711 271.817C114.287 271.039 115.857 270.126 117.19 268.976C119.812 266.712 121.986 263.891 124.105 261.169C131.66 251.455 138.093 240.816 143.336 229.686C146 224.026 148.487 218.271 150.824 212.467C151.992 209.568 153.143 206.662 154.265 203.743L154.413 203.352C155.418 200.674 156.298 197.767 157.914 195.405C157.927 195.384 157.944 195.367 157.962 195.354C157.967 195.287 157.988 195.223 158.022 195.168C158.523 194.367 159.481 194.132 160.312 193.761C161.248 193.34 162.181 192.922 163.115 192.503C163.851 192.173 164.928 191.894 165.479 191.269C166.105 190.565 166.314 189.312 166.618 188.441C167.307 186.473 168.053 184.529 168.798 182.582C169.453 180.872 170.02 179.038 170.939 177.445C171.723 176.085 172.844 175.368 174.14 174.585L174.421 174.416C174.963 174.085 175.541 173.69 175.755 173.072C176.106 172.061 175.327 171.095 174.498 170.614C172.658 169.546 170.455 170.778 168.841 171.719C167.218 172.666 165.636 173.803 163.901 174.536C163.863 174.551 163.836 174.494 163.863 174.469C165.258 173.191 166.962 172.138 168.563 171.099L168.961 170.84C170.024 170.144 171.235 169.466 172.515 169.278C172.249 169.189 172.331 168.845 172.584 168.813C173.633 168.685 174.689 168.679 175.743 168.673C177.221 168.664 178.697 168.655 180.152 168.312C182.377 167.788 184.318 166.53 185.873 164.875C187.339 163.316 188.501 161.511 189.585 159.672C190.215 158.602 190.83 157.525 191.467 156.459C191.562 156.299 191.658 156.121 191.755 155.931C190.614 155.667 189.452 154.817 188.677 154.158C187.472 153.135 186.593 151.753 185.981 150.311C184.544 146.928 184.658 143.058 185.734 139.596C185.799 139.384 186.112 139.374 186.173 139.596C186.999 142.561 187.073 145.776 188.37 148.604C188.89 149.736 189.615 150.755 190.506 151.622C190.958 152.059 191.415 152.427 191.968 152.731C192.562 153.059 193.196 153.166 193.667 153.686C193.694 153.716 193.72 153.746 193.743 153.777C194.019 153.74 194.256 153.78 194.446 153.899L194.486 153.925L194.495 153.913C193.643 153.332 192.788 152.757 191.881 152.249C191.641 152.114 191.816 151.791 192.057 151.833L192.653 151.938C194.645 152.294 196.675 152.697 198.494 153.583C200.512 154.568 202.439 155.705 204.277 156.992C207.898 159.524 211.193 162.515 214.077 165.86C219.397 172.034 223.158 179.456 225.484 187.238C228.391 196.963 229.515 207.177 230.742 217.222C231.329 222.031 231.855 226.849 232.323 231.672L232.449 232.987C232.684 235.468 232.937 237.946 233.176 240.42C233.598 241.084 233.628 241.872 233.379 242.557C233.562 244.563 233.727 246.571 233.858 248.585C234.192 253.782 234.408 258.996 234.501 264.206C234.564 267.825 234.494 271.44 234.424 275.057C234.392 276.72 234.359 278.384 234.34 280.049C234.315 282.272 230.947 282.264 230.894 280.049C230.759 274.211 230.341 268.372 230.043 262.538C229.751 256.844 229.481 251.153 229.132 245.463C229.098 244.922 229.067 244.379 229.037 243.838C228.546 244.025 227.937 244.103 227.421 244.205L227.294 244.231C226.256 244.452 225.216 244.611 224.162 244.707L223.82 244.736C222.864 244.802 217.96 244.907 215.062 244.379C215.292 248.101 215.524 251.823 215.78 255.543C216.072 259.784 216.127 264.032 216.34 268.279C216.448 270.4 216.577 272.508 216.847 274.617C216.97 275.577 217.096 276.539 217.247 277.495L217.325 277.973C217.337 278.05 217.35 278.126 217.363 278.2C217.487 278.927 217.596 279.568 217.28 280.232C217.584 281.173 217.111 282.359 215.865 282.264C207.874 281.665 199.865 281.412 191.854 281.376C181.052 281.325 170.255 281.652 159.458 281.979C156.43 282.07 153.402 282.162 150.375 282.245L146.638 282.346L146.165 282.359C133.371 282.71 120.517 283.062 107.785 281.646C107.757 283.297 104.672 283.278 104.837 281.437L104.878 280.993C105.063 278.99 105.304 276.915 105.925 274.987C105.41 275.002 104.892 274.981 104.406 274.82C103.715 274.594 103.052 274.184 102.452 273.778C101.117 272.878 99.9885 271.768 99.0148 270.487C97.1026 267.974 95.8329 264.996 94.8294 262.023C93.7624 258.853 92.7861 255.647 91.8739 252.43L90.8923 248.946C89.6461 244.515 88.4225 240.016 87.6801 235.468C87.6 235.574 87.4899 235.665 87.3444 235.731C83.3723 237.506 79.9751 233.864 79.3033 230.183C78.9501 228.243 78.986 226.264 79.0217 224.297C79.0259 224.061 79.0302 223.826 79.0338 223.591L79.0371 223.356C79.0709 220.824 79.0815 218.292 79.2106 215.762C79.6371 207.304 81.6082 199.108 84.6737 191.229C87.5618 183.812 91.0519 176.337 95.5479 169.749C97.6836 166.621 100.147 163.616 103.115 161.238C106.246 158.734 109.766 156.829 113.453 155.278C117.22 153.693 121.126 152.44 125.037 151.256C129.351 149.95 133.715 148.828 138.154 148.039C138.477 147.982 138.794 148.077 138.974 148.373C139.13 148.633 139.276 148.899 139.417 149.17C140.024 148.79 140.955 148.697 141.562 148.511C143.465 147.921 146.89 147.568 148.399 146.224C150.119 144.692 150.946 142.65 151.714 140.542L151.855 140.154C152.706 137.799 153.75 137.624 153.247 139.906L153.171 140.25C152.735 142.203 152.214 144.221 151.147 145.93C149.307 148.876 144.486 149.969 141.27 151.017C141.281 151.091 141.281 151.165 141.272 151.235C143.237 151.535 145.255 152.482 146.9 153.543C148.407 154.517 149.767 155.61 150.781 157.062L155.742 154.906C157.38 154.196 159.029 153.35 160.808 153.065C163.316 152.664 167.182 154.008 166.887 157.172C166.848 157.599 166.58 157.916 166.251 158.072C166.502 158.051 166.756 158.044 167.007 158.053C168.684 158.11 171.055 159.596 170.178 161.555C169.954 162.06 169.308 161.728 169.257 161.306C168.925 158.527 166.054 159.18 164.062 159.634ZM150.034 157.387C148.113 156.493 146.252 155.481 144.264 154.733L143.532 154.456C141.671 153.761 139.353 153.055 138.199 155.056C137.766 155.804 137.394 156.73 137.233 157.592L137.212 157.709C137.21 157.719 137.209 157.73 137.207 157.74C137.164 157.997 137.118 158.268 137.301 158.465C137.594 158.787 138.549 158.943 138.934 159.082L141.352 159.961L142.559 160.401C143.108 160.602 143.818 160.803 144.224 161.245C145.644 159.38 147.902 158.319 150.034 157.387ZM156.82 171.277C156.788 171.364 156.917 171.41 156.965 171.338C158.81 168.507 161.8 166.887 164.811 165.55L165.252 165.355C165.361 165.307 165.471 165.257 165.584 165.206C167.073 164.537 168.898 163.716 170.474 164.187C172.428 164.77 172.297 166.754 171.676 168.27C171.46 168.8 172.181 169.027 172.521 168.762C173.936 167.665 173.66 165.286 172.574 164.028C171.076 162.296 168.606 162.667 166.703 163.414L166.568 163.468C162.801 165.002 158.292 167.198 156.82 171.277ZM197.155 210.007C190.246 206.524 183.746 202.249 177.78 197.326C174.52 194.636 171.406 191.738 168.359 188.809C168.585 188.173 168.797 187.541 169.022 186.951C169.743 185.072 170.43 183.174 171.11 181.281L171.145 181.181C171.699 179.617 172.148 177.823 173.476 176.724C173.846 176.42 174.251 176.166 174.661 175.913L174.889 176.181C176.873 178.497 179.149 180.555 181.439 182.581L184.03 184.871C186.722 187.237 189.454 189.559 192.156 191.909C198.243 197.202 204.319 202.502 210.361 207.845C213.549 210.663 216.729 213.493 219.891 216.344C219.462 216.322 219.031 216.345 218.598 216.369C218.311 216.385 218.023 216.4 217.734 216.403C216.566 216.413 215.396 216.344 214.238 216.189C213.628 216.107 213.019 216.001 212.415 215.877L212.406 215.82C212.398 215.758 212.315 215.782 212.309 215.832L212.307 215.853C210.898 215.555 209.51 215.154 208.147 214.697C204.374 213.431 200.706 211.8 197.155 210.007ZM152.472 193.558C152.85 193.702 152.82 194.304 152.372 194.298C150.49 194.264 148.793 193.046 147.655 191.62C147.471 191.394 147.75 191.106 147.976 191.299C149.326 192.442 150.851 192.943 152.472 193.558ZM87.4563 233.966C87.2154 233.742 86.888 233.64 86.5269 233.793C86.8035 233.562 87.072 233.317 87.3401 233.072C87.376 233.37 87.4142 233.668 87.4563 233.966Z" fill-rule="evenodd"  fill="#000000" >
</path>
<path d="M182.649 144.001C169.987 144.001 150.683 137.435 144.054 128.967C142.844 127.421 127.805 116.103 127.805 107.207C127.805 88.2266 126.395 52.8083 149.244 51.6842C181.266 50.1089 202.993 75.3721 203.927 85.4463C204.576 92.4394 204.136 101.766 204.136 108.015C204.136 111.204 205.745 120.9 203.927 125.549C199.882 135.896 195.312 144.001 182.649 144.001Z"   fill="#FFFFFF" >
</path>
<path d="M168.084 138.635C169.459 139.182 170.693 139.992 172.058 140.562C173.277 141.072 174.549 141.463 175.837 141.75C178.421 142.331 181.161 142.458 183.787 142.097C193.269 140.799 200.657 132.922 202.115 123.582C202.518 120.996 202.511 118.367 202.484 115.753L202.454 112.89C202.43 110.494 202.422 108.097 202.51 105.702C202.622 102.621 202.839 99.5413 203.131 96.4727L203.283 94.876C203.463 93.0076 203.666 91.1251 204.016 89.2824C203.73 89.2974 201.467 85.4263 200.212 83.2631C199.754 82.8996 199.367 82.448 199.218 81.8636C199.187 81.7416 199.171 81.6186 199.161 81.4954C198.888 81.067 198.601 80.6496 198.297 80.2446L198.231 80.215C198.18 80.1918 198.141 80.1724 198.117 80.1592C197.455 79.7837 196.902 79.2147 196.524 78.5553C196.396 78.333 196.292 78.1009 196.207 77.8635C195.667 77.3337 195.102 76.8281 194.509 76.3541C194.451 76.3076 194.391 76.2641 194.332 76.2182C193.577 75.9362 192.914 75.5114 192.43 74.8996C192.228 74.7745 192.025 74.6519 191.82 74.5318C191.204 74.5261 190.582 74.3826 189.977 74.1339C188.87 73.679 187.986 72.7802 186.874 72.3636C185.698 71.9233 184.459 72.9239 183.209 72.7434C182.89 72.6973 182.574 72.6003 182.28 72.4595C181.576 73.2052 180.829 73.9081 180.006 74.5234C178.811 75.4165 177.589 75.8247 176.203 76.2281C175.517 76.8797 174.748 77.5114 173.821 77.6042C171.676 79.3195 169.382 80.7664 166.968 82.1098C166.58 82.3258 166.194 82.4232 165.828 82.4258C165.071 82.9013 164.244 83.2671 163.371 83.5203C163.097 83.5996 162.815 83.6163 162.538 83.5823L161.78 84.1996C161.253 84.6291 160.691 84.8343 160.152 84.8476C159.825 85.0985 159.486 85.3358 159.136 85.5641C158.762 85.8091 158.277 85.9105 157.789 85.8809C157.045 86.6096 156.079 86.6862 155.27 86.3505C155.159 86.4156 155.045 86.4773 154.916 86.538C154.742 86.6206 154.56 86.6904 154.374 86.7468C153.531 87.656 152.296 88.1328 151.059 88.0081C150.136 88.5741 149.06 88.8686 148.009 88.8024C147.849 89.6081 147.716 90.4167 147.604 91.2281L147.593 91.8224C147.591 91.9188 147.591 91.9938 147.593 92.0433L147.593 92.0629C147.696 94.6686 147.752 97.2757 147.854 99.8818L147.863 100.088C147.979 102.364 148.539 106.516 145.193 106.425C143.947 106.392 142.71 105.473 141.739 104.718L141.602 104.611C141.528 104.553 141.452 104.494 141.375 104.434C140.649 104.339 139.934 104.163 139.201 104.136C138.297 104.104 137.346 104.197 136.466 104.402C134.911 104.764 133.406 105.472 132.392 106.755C132.304 106.867 132.221 106.985 132.143 107.103C132.071 107.346 131.949 107.571 131.786 107.765C130.827 109.923 131.381 112.774 132.441 114.748C133.704 117.099 135.704 118.725 138.218 119.543L138.344 119.584C140.061 120.121 140.718 121.16 141.652 122.606C142.527 123.963 143.53 125.227 144.608 126.427C146.693 128.75 149.619 130.667 150.832 133.607C151.077 134.199 150.375 134.757 149.832 134.605C147.705 134.006 146.213 132.491 144.667 130.984C143.597 129.94 142.567 128.855 141.602 127.715C141.399 127.808 141.176 127.871 140.944 127.9C139.919 128.025 138.863 127.973 137.966 127.42C137.552 127.458 137.121 127.314 136.801 127.021C136.508 126.752 136.255 126.46 136.041 126.149C135.716 126.178 135.397 126.187 135.093 126.136C134.946 126.122 134.804 126.084 134.673 126.02C134.431 125.925 134.202 125.777 133.991 125.551C133.564 125.092 133.4 124.444 133.479 123.828C133.394 123.81 133.31 123.789 133.227 123.761C132.659 123.568 132.221 123.186 131.941 122.665C131.441 122.384 130.99 122.004 130.649 121.599C130.233 121.107 129.92 120.552 129.736 119.939C129.545 119.851 129.36 119.748 129.183 119.628C127.915 118.77 127.188 117.157 127.686 115.667L127.703 115.62C127.729 115.553 127.775 115.438 127.831 115.309C127.823 115.204 127.814 115.099 127.808 114.994L127.791 114.677L127.537 114.569C126.269 114.064 125.412 113.383 125.26 111.957C125.228 111.662 125.343 111.361 125.523 111.109L125.522 111.03C125.44 110.987 125.362 110.944 125.293 110.9C124.602 110.458 124.177 109.667 124.224 108.849C124.268 108.103 124.681 107.508 125.146 106.958L125.278 106.804C125.289 106.791 125.302 106.777 125.315 106.762L125.008 106.666C124.809 106.602 124.626 106.539 124.495 106.466C123.987 106.181 123.556 105.796 123.291 105.307C123.252 105.246 123.213 105.187 123.177 105.122C122.835 104.496 122.79 103.694 123.011 103.022C123.037 102.943 123.071 102.869 123.106 102.794C122.172 102.465 121.453 101.785 121.366 100.53C121.332 100.037 121.44 99.5458 121.675 99.125C121.623 98.8415 121.612 98.5478 121.646 98.2572C121.317 97.9467 121.062 97.5726 120.948 97.1163C120.732 96.2542 121.127 95.4339 121.714 94.6817C121.497 94.087 121.486 93.416 121.734 92.8172C121.638 92.5184 121.584 92.2024 121.581 91.878C121.574 91.1596 121.796 90.5596 122.153 90.0492C121.651 89.435 121.412 88.6187 121.709 87.8539C121.92 87.3103 122.161 86.813 122.439 86.3522C122.293 86.0018 122.208 85.6093 122.208 85.1699C122.208 84.3795 122.504 83.7533 122.957 83.2407C122.761 82.3047 123.161 81.1646 124.032 80.7525C124.361 80.5969 124.801 80.4346 125.285 80.3082C125.467 79.7397 125.657 79.1735 125.858 78.6113C126.174 77.7264 126.513 76.8537 126.873 75.9912C126.666 76.1727 126.449 76.342 126.224 76.4955C125.513 77.3996 124.571 78.1829 123.778 78.6515C122.208 79.5806 120.413 79.0294 119.637 77.4749C118.909 78.0189 118.035 78.341 117.102 78.2309C116.044 78.106 115.077 77.4208 114.813 76.352C114.775 76.1973 114.752 76.0301 114.75 75.8618C114.143 76.2939 113.509 76.6914 112.812 76.919C111.926 77.209 111.021 76.5134 110.904 75.6469C110.857 75.3035 110.922 75 111.058 74.7436L110.972 74.7095C110.957 74.7035 110.943 74.6972 110.929 74.6906C110.464 74.4726 110.103 74.0732 109.931 73.6124C108.924 74.0022 107.772 73.5455 107.452 72.4378C107.072 71.121 107.049 69.7874 107.346 68.5047C106.28 67.7291 105.585 66.4251 105.466 65.0619C105.38 64.0833 105.613 63.18 106.025 62.3447C105.016 61.9673 104.669 60.6442 105.148 59.691C104.511 59.3262 104.096 58.5529 104.087 57.8001C103.802 57.3689 103.711 56.8137 103.947 56.1915C104.258 55.3717 104.892 54.6858 105.618 54.1479C105.301 53.5967 105.066 52.9957 104.92 52.3745C104.319 52.1984 103.834 51.7119 103.735 50.9813C103.611 50.0653 104.214 49.2888 105.025 49.0838C105.115 48.8048 105.225 48.5319 105.361 48.2699C104.959 47.3188 105.018 46.1162 105.536 45.0764C105.994 44.157 106.74 43.5948 107.638 43.2059C107.41 42.4239 107.712 41.644 108.473 41.0628C109.401 40.3525 110.419 39.8095 111.489 39.4259C111.394 38.1529 111.926 36.8493 113.184 36.4055C113.52 36.2869 113.87 36.2432 114.225 36.2447C114.483 35.6831 114.914 35.2266 115.476 34.8225C116.327 34.2113 117.917 34.5847 118.389 35.5432L118.412 35.5924C118.436 35.6468 118.462 35.6964 118.486 35.749C118.581 35.2836 118.804 34.844 119.161 34.4837C120.054 33.5827 120.997 33.5658 121.904 33.9511C122.071 33.5381 122.272 33.1454 122.517 32.7863C123.407 31.4836 124.877 31.3177 125.953 32.0231C126.384 31.6438 126.866 31.3513 127.399 31.1845C129.223 30.6139 130.388 31.4354 131.219 32.7081C131.402 32.6724 131.58 32.6747 131.777 32.7223C131.826 32.7341 131.944 32.7787 132.033 32.8138C132.102 32.8428 132.165 32.8778 132.225 32.915L132.26 32.8962C132.397 32.7468 132.541 32.6105 132.696 32.5006C133.045 32.2537 133.405 32.1819 133.746 32.2326L133.904 32.1745C135.255 31.7036 136.719 31.9221 137.635 33.0862C137.813 33.3111 137.956 33.5616 138.078 33.8258C138.353 33.9158 138.611 34.046 138.833 34.2062C138.988 34.1328 139.153 34.0711 139.33 34.0257C140.326 33.77 141.373 34.0113 142.185 34.6225C142.581 34.9199 142.872 35.2923 143.092 35.7176C143.344 35.7765 143.592 35.8826 143.824 36.0251C144.024 35.9255 144.227 35.8321 144.435 35.7681C145.196 35.5343 146.012 35.4483 146.804 35.5073C148.51 35.6338 150.161 37.5835 149.02 39.2577L148.985 39.3084C148.84 39.5102 148.714 39.7188 148.598 39.9308C149.006 40.1086 149.399 40.3463 149.763 40.6443C151.54 42.1016 151.7 44.3483 151.368 46.4676L151.354 46.5558L151.358 46.5558C152.302 46.6455 153.118 47.6322 152.56 48.5603L152.532 48.6038C151.777 49.7711 151.13 51.0605 150.408 52.2889C148.412 53.009 146.486 53.8958 144.673 54.9703C143.544 55.9598 142.469 57.006 141.523 58.1699C141.051 58.7511 140.617 59.3664 140.219 60.0042C140.537 60.1575 140.932 60.1496 141.265 59.8411C144.226 57.0954 147.805 55.1685 151.615 53.8772C151.889 53.784 152.069 53.6086 152.17 53.401C153.861 52.9189 155.583 52.5451 157.321 52.2804C157.8 51.8237 158.302 51.3871 158.779 50.9322C159.388 50.3519 160.151 50.3603 160.721 50.7249C161.004 50.5958 161.294 50.4818 161.588 50.3794L161.77 50.3172C161.846 50.2923 161.919 50.2633 161.994 50.2405C164.033 49.6167 165.899 49.8483 167.905 50.3608L168.162 50.4277C169.097 50.676 169.686 50.6363 170.592 50.4078L170.694 50.3817C171.656 50.1306 172.685 49.9446 173.669 50.209C174.698 50.4857 175.381 51.1011 176.082 51.8447L176.152 51.9195C176.479 52.2695 176.668 52.3077 177.097 52.2992L177.555 52.2856C179.286 52.2381 180.982 52.3112 182.278 53.6506C182.758 54.146 183.272 54.847 183.581 55.4869L183.625 55.5824C183.64 55.6134 183.652 55.6394 183.664 55.6627C183.85 55.6327 184.14 55.5149 184.277 55.4881C186.164 55.122 187.738 55.6861 188.95 57.1734C189.215 57.4989 189.615 58.138 189.892 58.4893C189.99 58.5717 190.081 58.66 190.168 58.7528C190.623 59.0434 191.267 59.0251 191.777 59.1269C193.167 59.4038 194.653 59.9326 195.36 61.2559C195.655 61.8081 195.764 62.4124 195.889 63.016C196.356 63.3231 196.722 63.7656 197.007 64.2448C197.352 64.8264 197.499 65.5389 197.897 66.0882C198.186 66.4872 198.628 66.7002 199.048 66.9441L199.209 67.0384C200.454 67.7802 201.429 68.6035 201.839 70.0569L201.875 70.1862C201.941 70.4088 202.175 71.0443 201.971 70.9488C202.146 71.0454 202.444 71.0794 202.604 71.1322C203.468 71.4182 204.219 71.8802 204.679 72.6916C205.029 73.3091 205.092 73.9529 205.193 74.6336L205.235 74.9085C205.246 74.975 205.259 75.0522 205.273 75.1271L205.286 75.2007L205.289 75.2024C205.445 75.2701 205.599 75.3434 205.75 75.4225C206.466 75.8441 206.956 76.576 206.956 77.4233C206.956 77.8346 206.827 78.155 206.64 78.441C206.791 78.6701 206.908 78.9142 206.997 79.1862C207.171 79.7173 207.183 80.2981 207.124 80.8476C207.054 81.507 206.885 82.1075 206.686 82.7373C206.609 82.9803 206.578 83.32 206.462 83.552C206.676 83.8241 206.803 84.1565 206.763 84.4845C206.707 84.9537 206.493 85.5022 206.068 85.7653C205.86 86.7904 205.413 87.8378 204.973 88.6758C204.923 88.773 204.861 88.8597 204.794 88.9315C204.855 92.2772 204.61 95.6464 204.593 98.9876C204.574 102.625 204.65 106.265 204.777 109.897C204.99 115.919 205.753 122.145 203.976 128.017C202.523 132.823 199.611 136.948 195.707 140.076C191.71 143.276 186.891 145.128 181.774 145.417C179.171 145.563 176.524 145.267 174.006 144.593L173.737 144.52C171.3 143.85 168.478 142.827 166.685 141.036C165.739 140.089 166.696 138.083 168.084 138.635Z"   fill="#000000" >
</path>
<path d="M133.759 109.525C135.551 108.824 137.725 109.031 139.495 109.705L139.625 109.756C141.189 110.374 143.729 111.75 144.035 113.509C144.194 114.421 143.328 115.209 142.449 114.729C141.684 114.313 141.255 113.473 140.646 112.865C140.045 112.263 139.37 111.779 138.635 111.354C137.102 110.468 135.489 110.124 133.759 109.868C133.565 109.841 133.618 109.58 133.759 109.525Z"   fill="#000000" >
</path>
<path d="M201.322 93.9048C199.757 90.6586 195.465 89.2786 192.161 88.5878L191.858 88.5257C191.501 88.4541 191.142 88.4844 190.826 88.6127C190.517 88.7386 190.248 88.9579 190.059 89.2742C189.809 89.6954 189.776 90.0489 189.892 90.5158C189.981 90.8765 190.178 91.1479 190.435 91.344C190.707 91.5505 191.05 91.671 191.407 91.7129C193.054 91.9064 194.675 92.2688 196.252 92.7832C196.991 93.0243 197.688 93.3509 198.379 93.6898L198.974 93.9833C199.523 94.2521 200.091 94.5111 200.808 94.6991C200.864 94.7138 200.92 94.7278 200.975 94.7409C201.174 94.6784 201.208 94.6028 201.25 94.5479L201.267 94.5265C201.318 94.4622 201.381 94.3639 201.322 93.9048ZM162.482 95.9002C162.36 96.1384 162.62 96.4641 162.875 96.2933C164.815 94.9914 166.666 93.8057 168.937 93.1563C169.973 92.8602 171.006 92.6822 172.081 92.6205C172.414 92.6014 172.741 92.6095 173.06 92.6175C173.992 92.6406 174.867 92.6623 175.677 92.0061C176.296 91.5052 176.137 90.5326 175.677 90.0092C174.809 89.0224 173.283 89.2264 172.056 89.4387L171.66 89.5081C170.376 89.7313 169.106 90.2178 167.946 90.8044C165.772 91.9032 163.602 93.7058 162.482 95.9002ZM168.781 99.086C168.958 96.8971 172.29 96.4001 172.621 98.566C172.918 100.506 172.569 102.289 171.695 104.035C170.86 105.704 168.762 104.926 168.604 103.406C168.447 101.905 168.558 101.01 168.671 100.098C168.712 99.772 168.752 99.4442 168.781 99.086ZM194.247 103.715C193.106 102.362 192.56 99.659 194.01 98.3258C194.049 98.2569 194.093 98.1873 194.147 98.1172C194.611 97.5085 195.282 97.093 196.086 97.3278C198.597 98.0618 197.856 101.628 196.975 103.364C196.495 104.306 194.947 104.545 194.247 103.715ZM183.501 112.399C184.994 113.554 187.726 115.667 189.651 113.646C191.367 111.241 188.936 108.979 187.341 108.009C186.923 107.709 187.255 106.715 188.148 106.869C196.26 108.263 192.057 122.242 181.7 114.571C180.467 113.576 181.96 111.384 183.289 112.236C183.356 112.288 183.427 112.342 183.501 112.399ZM186.634 128.904C185.134 129.179 183.606 128.982 182.223 128.417C180.802 127.838 179.535 126.871 178.609 125.636C178.287 125.207 178.203 124.753 178.271 124.338C178.347 123.872 178.623 123.45 178.999 123.166C179.376 122.882 179.848 122.742 180.304 122.813C180.7 122.875 181.095 123.092 181.407 123.543L181.472 123.633C182.023 124.378 182.741 124.99 183.559 125.384C184.347 125.764 185.228 125.941 186.141 125.838C187.878 125.642 189.076 124.702 190.348 123.425C190.506 123.264 190.664 123.098 190.823 122.929C190.923 122.776 191.062 122.678 191.216 122.626C191.388 122.569 191.582 122.572 191.759 122.634C191.93 122.694 192.084 122.807 192.186 122.958C192.284 123.101 192.339 123.278 192.321 123.482C192.205 124.805 191.513 125.985 190.531 126.912C189.441 127.942 187.995 128.654 186.634 128.904Z" fill-rule="evenodd"  fill="#000000" >
</path>
</svg>
