<svg xmlns="http://www.w3.org/2000/svg" xmlns:xlink="http://www.w3.org/1999/xlink" width="37" height="37" viewBox="0 0 37 37" fill="none">
<path d="M29.4034 7.59353C25.8822 4.07251 21.0012 2.50427 16.0234 3.27353C9.73793 4.25399 4.52968 9.31352 3.35338 15.5835C2.78758 18.602 3.1109 21.6783 4.29338 24.4735C4.44446 24.8281 4.4935 25.166 4.43338 25.4635L3.11338 32.0735C3.01162 32.5792 3.16954 33.0997 3.53338 33.4635C3.82475 33.7549 4.21791 33.9135 4.62338 33.9135C4.72359 33.9135 4.82317 33.9051 4.92338 33.8835L11.5334 32.5635C11.9126 32.4911 12.2782 32.6018 12.5234 32.7035C15.32 33.8859 18.3963 34.2078 21.4134 33.6435C27.6834 32.4673 32.7429 27.259 33.7234 20.9735C34.4988 15.9972 32.9261 11.1164 29.4034 7.59353ZM12.3309 16.957C13.1819 16.957 13.8709 17.646 13.8709 18.497C13.8709 19.348 13.1819 20.037 12.3309 20.037C11.4799 20.037 10.7909 19.348 10.7909 18.497C10.7909 17.646 11.4799 16.957 12.3309 16.957ZM20.0375 18.497C20.0375 17.646 19.3485 16.957 18.4975 16.957C17.6465 16.957 16.9575 17.646 16.9575 18.497C16.9575 19.348 17.6465 20.037 18.4975 20.037C19.3485 20.037 20.0375 19.348 20.0375 18.497ZM26.2043 18.497C26.2043 17.646 25.5153 16.957 24.6643 16.957C23.8133 16.957 23.1243 17.646 23.1243 18.497C23.1243 19.348 23.8133 20.037 24.6643 20.037C25.5153 20.037 26.2043 19.348 26.2043 18.497Z" fill-rule="evenodd"  fill="#2A82E4" >
</path>
</svg>
