<svg xmlns="http://www.w3.org/2000/svg" xmlns:xlink="http://www.w3.org/1999/xlink" width="141.1201171875" height="34.201171875" viewBox="0 0 141.1201171875 34.201171875" fill="none">
    <g >
        <path     fill="#436EEE"  d="M8.31592 21.7799L8.31592 28.1879C8.31592 32.1479 9.61192 33.3719 14.7239 33.3719C15.7679 33.3719 20.5559 33.3719 21.6359 33.3719C25.7399 33.3719 26.9639 32.1119 27.5039 27.0719C26.3159 26.8559 24.4799 26.1719 23.5439 25.5239C23.3639 28.9439 23.0399 29.4479 21.3119 29.4479C20.0879 29.4479 16.0919 29.4479 15.1559 29.4479C13.0319 29.4479 12.6719 29.3039 12.6719 28.1519L12.6719 21.7799L8.31592 21.7799ZM13.4639 19.7279C15.4079 21.6719 17.4959 24.4439 18.3239 26.2439L21.9239 24.1199C20.9879 22.2479 18.7559 19.6559 16.8119 17.8199L13.4639 19.7279ZM25.7759 22.3919C27.4679 25.2359 29.0879 28.9799 29.6279 31.3559L33.6959 29.6639C33.0479 27.2159 31.2839 23.6159 29.5199 20.9159L25.7759 22.3919ZM3.56392 21.9239C2.84392 24.7319 1.47592 27.9719 -7.80821e-05 30.1679L3.92392 32.1479C5.36392 29.8079 6.58792 26.2079 7.41592 23.3639L3.56392 21.9239ZM13.8599 1.36786C14.2919 2.23186 14.7599 3.31186 15.1199 4.31986L0.899922 4.31986L0.899922 8.24386L5.43592 8.24386L5.43592 17.6039L30.8159 17.6039L30.8159 13.6439L9.75592 13.6439L9.75592 8.24386L32.6159 8.24386L32.6159 4.31986L19.7639 4.31986C19.3319 3.02386 18.6119 1.40386 17.8919 0.14386L13.8599 1.36786ZM38.5919 3.74386C40.6439 5.57986 43.3439 8.24386 44.5319 9.93586L47.6279 6.87586C46.2599 5.25586 43.4879 2.77186 41.4719 1.07986L38.5919 3.74386ZM36.2879 11.5559L36.2879 15.6959L41.5439 15.6959L41.5439 26.7839C41.5439 28.7279 40.4999 30.1319 39.7079 30.7799C40.3919 31.4279 41.5439 33.0119 41.9399 33.9119C42.5879 33.1199 43.7399 32.1479 49.9319 27.6479C49.4999 26.8199 48.8879 25.0199 48.6359 23.8679L45.8279 25.8119L45.8279 11.5559L36.2879 11.5559ZM49.7879 2.84386L49.7879 7.12786L63.3959 7.12786L63.3959 14.4719L50.5439 14.4719L50.5439 27.8279C50.5439 32.4719 52.0559 33.7319 56.8799 33.7319C57.8879 33.7319 62.5679 33.7319 63.6479 33.7319C68.1119 33.7319 69.3719 31.9679 69.9119 25.7399C68.6879 25.4159 66.8159 24.6959 65.8079 23.9399C65.5559 28.7639 65.2679 29.5919 63.3239 29.5919C62.2079 29.5919 58.2839 29.5919 57.3479 29.5919C55.3319 29.5919 55.0079 29.3399 55.0079 27.7919L55.0079 18.5399L63.3959 18.5399L63.3959 20.3039L67.7519 20.3039L67.7519 2.84386L49.7879 2.84386ZM76.8959 10.9079C75.9239 13.0319 74.2319 15.4439 72.3239 16.9559L75.8159 19.0439C77.7599 17.3519 79.2719 14.7599 80.4239 12.4919L76.8959 10.9079ZM96.8039 13.2479C98.9279 15.2279 101.412 18.0359 102.492 19.8719L105.804 17.5679C104.616 15.6959 101.952 13.0319 99.8639 11.1599L96.8039 13.2479ZM95.0399 7.84786C92.6279 10.8359 89.1719 13.3559 85.1759 15.4439L85.1759 10.6559L81.3239 10.6559L81.3239 16.7759L81.3239 17.2079C78.3359 18.4319 75.1679 19.4399 71.9279 20.1959C72.6839 21.0239 73.8719 22.8239 74.3759 23.7239C77.2559 22.8959 80.1359 21.8519 82.9439 20.6639C83.8439 21.1319 85.1759 21.3119 87.1559 21.3119C88.0919 21.3119 92.8799 21.3119 93.8519 21.3119C97.4519 21.3119 98.5679 20.2319 99.0359 15.9119C97.9919 15.6959 96.4079 15.1559 95.5799 14.5799C95.3999 17.4959 95.1119 17.9639 93.5639 17.9639L88.3439 17.9639C92.3399 15.6959 95.9399 12.9239 98.6399 9.64786L95.0399 7.84786ZM85.9679 0.719858C86.2559 1.47586 86.5439 2.37586 86.7239 3.20386L73.4039 3.20386L73.4039 10.7999L77.6519 10.7999L77.6519 7.01986L84.5999 7.01986L82.9439 9.10786C85.1399 9.93586 87.8399 11.4119 89.1719 12.5639L91.3319 9.82786C90.1799 8.89186 88.0199 7.81186 86.1119 7.01986L100.044 7.01986L100.044 10.7999L104.472 10.7999L104.472 3.20386L91.2599 3.20386C90.9719 2.19586 90.5399 0.971859 90.1439 -0.000141144L85.9679 0.719858ZM76.3199 23.8679L76.3199 32.9399L97.4519 32.9399L97.4519 34.1279L101.772 34.1279L101.772 23.2919L97.4519 23.2919L97.4519 28.9079L91.0439 28.9079L91.0439 22.1399L86.6519 22.1399L86.6519 28.9079L80.5679 28.9079L80.5679 23.8679L76.3199 23.8679ZM122.004 23.2559L122.004 27.0719L134.856 27.0719L134.856 23.2559L122.004 23.2559ZM124.452 7.63186C124.2 11.5559 123.66 16.6319 123.156 19.7639L124.308 19.7639L136.728 19.7999C136.188 26.3879 135.504 29.2319 134.712 29.9879C134.352 30.3839 133.992 30.4559 133.416 30.4559C132.732 30.4559 131.328 30.4559 129.852 30.3119C130.464 31.3559 130.932 33.0119 131.004 34.1639C132.732 34.2359 134.316 34.1999 135.324 34.0919C136.512 33.9479 137.34 33.5879 138.204 32.6159C139.464 31.2479 140.256 27.3599 140.976 17.8199C141.048 17.3159 141.12 16.1279 141.12 16.1279L137.124 16.1279C137.664 11.6279 138.204 6.51586 138.456 2.48386L135.432 2.19586L134.748 2.37586L122.724 2.37586L122.724 6.26386L134.028 6.26386C133.776 9.21586 133.416 12.8519 133.02 16.1279L127.656 16.1279C127.98 13.4999 128.268 10.4759 128.484 7.88386L124.452 7.63186ZM108.468 2.12386L108.468 6.01186L112.32 6.01186C111.42 10.7999 109.944 15.2279 107.676 18.2159C108.252 19.4759 109.044 22.2119 109.188 23.3279C109.692 22.7159 110.196 22.0319 110.664 21.3119L110.664 32.6159L114.3 32.6159L114.3 29.9159L120.672 29.9159L120.672 13.3199L114.408 13.3199C115.2 10.9799 115.848 8.49586 116.352 6.01186L121.464 6.01186L121.464 2.12386L108.468 2.12386ZM114.3 17.0999L116.964 17.0999L116.964 26.1719L114.3 26.1719L114.3 17.0999Z">
        </path>
    </g>
</svg>
