<svg xmlns="http://www.w3.org/2000/svg" xmlns:xlink="http://www.w3.org/1999/xlink" width="95.3662109375" height="131.904052734375" viewBox="0 0 95.3662109375 131.904052734375" fill="none">
    <path d="M81.5887 123.722C84.2817 123.704 86.6527 121.944 87.4487 119.372C104.34 66.527 95.2417 1.56799 50.1047 1.56799C20.8017 1.56799 -16.0063 35.3311 7.45675 118.635C8.26168 121.506 10.5047 123.726 13.4887 123.726L81.5887 123.722L81.5887 123.722Z"   fill="#894F38" >
    </path>
    <path d="M79.8667 131.901C79.8667 116.067 63.0308 103.223 47.2128 103.164C31.3927 103.227 13.7528 116.067 13.7528 131.901L79.8667 131.901L79.8667 131.901Z"   fill="#215062" >
    </path>
    <path d="M77.6148 54.962C74.2457 59.8699 74.6078 65.971 78.4198 68.591C82.2318 71.2099 88.0608 69.3559 91.4287 64.4479C94.7958 59.541 94.4348 53.44 90.6228 50.822C86.8108 48.2039 80.9838 50.056 77.6148 54.962L77.6148 54.962Z"   fill="#FFD1CA" >
    </path>
    <path d="M84.4268 65.035C84.4847 65.566 84.1018 66.043 83.5708 66.1011C83.5418 66.105 83.5148 66.108 83.4707 66.108L83.4707 66.108C82.9757 66.111 82.5577 65.739 82.5048 65.246C81.9657 60.366 84.5117 58.043 85.6298 57.271C87.1748 56.204 88.9387 55.85 90.1238 56.365C90.6088 56.588 90.8208 57.162 90.5988 57.647C90.3817 58.119 89.8318 58.336 89.3518 58.1381C88.8878 57.936 87.7538 58.155 86.7288 58.863C85.8958 59.438 84.0028 61.189 84.4268 65.035Z"   fill="#FFBAB3" >
    </path>
    <path d="M18.1257 54.962C21.4947 59.8699 21.1317 65.971 17.3197 68.591C13.5078 71.2099 7.68074 69.3559 4.31172 64.4479C0.942705 59.541 1.30574 53.44 5.11775 50.822C8.92867 48.2039 14.7587 50.056 18.1257 54.962L18.1257 54.962Z"   fill="#FFD1CA" >
    </path>
    <path d="M11.3068 65.041C11.7328 61.1961 9.83974 59.444 9.00673 58.869C7.98183 58.162 6.84779 57.943 6.38381 58.1441C5.89882 58.3671 5.32472 58.1541 5.10182 57.6691C4.8788 57.184 5.09181 56.61 5.5768 56.387L5.61183 56.3721C6.79482 55.856 8.55873 56.2111 10.1038 57.277C11.2238 58.0491 13.7677 60.3721 13.2298 65.2521C13.1727 65.74 12.7598 66.108 12.2688 66.108L12.2688 66.108L12.1627 66.108C11.6317 66.0501 11.2488 65.572 11.3068 65.042L11.3068 65.041Z"   fill="#FFBAB3" >
    </path>
    <path d="M54.2338 104.775C54.2338 104.775 51.3497 109.93 46.9148 109.93C42.0818 109.93 39.1927 104.775 39.1927 104.775L39.1927 90.62L54.2338 90.62L54.2338 104.775L54.2338 104.775Z"   fill="#FFD1CA" >
    </path>
    <path d="M43.7467 95.248C25.8948 95.248 11.4218 80.776 11.4218 62.9241L11.4218 46.576C11.4218 28.725 25.8948 14.2521 43.7467 14.2521L51.9928 14.2521C69.8457 14.2521 84.3197 28.725 84.3197 46.576L84.3197 62.9241L84.3197 62.9241C84.3197 80.776 69.8478 95.248 51.9948 95.248L43.7467 95.248Z"   fill="#FFE6E1" >
    </path>
    <g opacity="0.4">
        <path d="M32.3748 70.733C32.3748 74.644 29.2037 77.814 25.2937 77.814C21.3828 77.814 18.2128 74.644 18.2128 70.733C18.2128 66.823 21.3828 63.653 25.2937 63.653C29.2037 63.653 32.3748 66.823 32.3748 70.733L32.3748 70.733Z"   fill="#F47A8F" >
        </path>
        <path d="M77.5277 70.733C77.5277 74.644 74.3578 77.814 70.4468 77.814C66.5358 77.814 63.3657 74.644 63.3657 70.733C63.3657 66.826 66.5308 63.657 70.4387 63.653C74.3507 63.653 77.5227 66.821 77.5277 70.733L77.5277 70.733Z"   fill="#F47A8F" >
        </path>
    </g>
    <path d="M43.6348 69.772L43.6348 51.0181C43.6348 50.1281 44.3557 49.407 45.2457 49.407C46.1357 49.407 46.8568 50.1281 46.8568 51.0181L46.8568 68.629C47.1658 68.918 47.6378 69.25 48.1278 69.274C48.7867 69.3 49.4427 68.7001 49.8778 68.198C50.4668 67.53 51.4847 67.467 52.1517 68.056C52.8098 68.637 52.8817 69.637 52.3137 70.307C50.7667 72.085 49.2318 72.488 48.1598 72.488L48.1598 72.488L47.9807 72.488C45.6018 72.386 44.1047 70.4191 43.9418 70.1951L43.6348 69.772Z"   fill="#F47A8F" >
    </path>
    <path d="M62.3328 54.722C62.3328 57.451 64.2808 59.663 66.6827 59.663C69.0847 59.663 71.0327 57.451 71.0327 54.722C71.0327 51.993 69.0868 49.782 66.6827 49.782C64.2798 49.782 62.3328 51.995 62.3328 54.722L62.3328 54.722Z"   fill="#31296B" >
    </path>
    <path d="M24.6588 54.722C24.6588 57.451 26.6047 59.663 29.0088 59.663C31.4127 59.663 33.3588 57.451 33.3588 54.722C33.3588 51.993 31.4127 49.782 29.0088 49.782C26.6047 49.782 24.6588 51.995 24.6588 54.722L24.6588 54.722Z"   fill="#31296B" >
    </path>
    <path d="M21.7808 44.4129C21.5828 43.9329 21.7987 43.3819 22.2707 43.166C28.7478 40.343 33.7307 43.254 33.9408 43.378C34.3988 43.6519 34.5477 44.2459 34.2738 44.7039C34.0987 44.997 33.7817 45.176 33.4408 45.175L33.4408 45.1679L33.4408 45.1679C33.2667 45.1679 33.0968 45.1209 32.9477 45.031C32.7638 44.925 28.5747 42.5209 23.0427 44.9379C22.5487 45.1409 21.9838 44.906 21.7808 44.4129Z"   fill="#31296B" >
    </path>
    <path d="M73.0087 45.1679C72.8346 45.1679 72.6636 45.1209 72.5157 45.031C72.3336 44.925 68.1397 42.523 62.6097 44.931C62.1166 45.135 61.5517 44.9 61.3477 44.406C61.1507 43.926 61.3666 43.3759 61.8387 43.159C68.3146 40.336 73.2986 43.248 73.5077 43.372C73.9656 43.6459 74.1156 44.239 73.8417 44.6979C73.6667 44.9909 73.3496 45.169 73.0087 45.1679L73.0087 45.1679Z"   fill="#31296B" >
    </path>
    <path d="M56.7406 82.011C54.2137 83.136 51.4806 83.724 48.7137 83.738L48.7137 83.738C43.7957 83.738 40.5187 81.823 40.3207 81.704C39.5547 81.249 39.3036 80.26 39.7577 79.495C40.2127 78.73 41.2017 78.478 41.9667 78.932C42.2167 79.0811 47.9277 82.338 55.4517 79.058C56.2657 78.698 57.2167 79.066 57.5767 79.879C57.9377 80.693 57.5696 81.645 56.7557 82.005L56.7406 82.011Z"   fill="#E83F63" >
    </path>
    <path d="M69.8197 52.7309L69.8197 52.7309C69.2858 52.742 68.8438 52.3189 68.8328 51.785C68.8208 51.2509 69.2438 50.8089 69.7777 50.797C69.8098 50.797 71.9628 50.636 72.1737 49.525C72.2667 48.999 72.7677 48.648 73.2937 48.74C73.8187 48.833 74.1708 49.334 74.0778 49.86L74.0737 49.884C73.6718 52.009 71.2357 52.6729 69.8597 52.729L69.8197 52.7309Z"   fill="#31296B" >
    </path>
    <path d="M25.9198 52.7321L25.9198 52.731L25.9198 52.731L25.8778 52.731C24.5038 52.6741 22.0678 52.011 21.6668 49.886C21.5737 49.36 21.9258 48.8581 22.4508 48.766C22.9678 48.6751 23.4628 49.012 23.5668 49.526C23.7808 50.6541 25.9378 50.7991 25.9588 50.7991C26.4928 50.8101 26.9168 51.251 26.9058 51.7851C26.8958 52.319 26.4537 52.7431 25.9198 52.7321Z"   fill="#31296B" >
    </path>
    <path d="M84.8036 49.8521C83.5367 52.623 70.4647 26.7321 47.8797 26.571C24.3296 26.4 12.4217 52.731 11.1087 49.8521C9.46771 46.251 8.27472 13.199 47.9587 13.199C87.6417 13.199 86.4437 46.283 84.8036 49.8521L84.8036 49.8521Z"   fill="#894F38" >
    </path>
    <path d="M16.4318 40.2001C16.4318 40.2001 4.46472 36.2941 4.46472 28.2321C4.46472 20.17 18.7137 0 46.8278 0C74.9418 0 91.9988 23.176 91.9988 27.897C91.9988 32.618 84.9647 39.621 77.3748 39.621C69.7848 39.621 16.4318 40.2001 16.4318 40.2001L16.4318 40.2001Z"   fill="#446B7A" >
    </path>
    <path d="M80.4408 46.734L80.4408 38.15C80.4408 38.15 73.6737 31.1431 48.2307 31.14C22.7877 31.137 16.0227 38.15 16.0227 38.15L16.0227 46.734L80.4408 46.734L80.4408 46.734Z"   fill="#215062" >
    </path>
    <ellipse cx="48.2308783531189" cy="18.700716972351074" rx="4.7479681968688965" ry="6.932650566101074"   fill="#FFCD5E" >
    </ellipse>
    <path d="M16.0598 46.734C16.0367 46.859 16.0238 46.985 16.0227 47.111C16.0227 51.564 30.4427 55.167 48.2307 55.167C66.0198 55.167 80.4408 51.558 80.4408 47.111C80.4387 46.985 80.4258 46.858 80.4017 46.734L16.0598 46.734L16.0598 46.734Z"   fill="#446B7A" >
    </path>
    <path d="M46.7128 111.754C53.9258 111.754 59.7727 109.355 59.7727 106.397C59.7717 106.168 59.7347 105.94 59.6648 105.722C55.6648 104.095 51.4027 103.18 47.2128 103.164C42.7018 103.181 38.0298 104.243 33.6798 106.115C33.6668 106.209 33.6598 106.303 33.6598 106.397C33.6538 109.355 39.4998 111.754 46.7128 111.754L46.7128 111.754Z"   fill="#FFD1CA" >
    </path>
    <rect x="43.1707763671875" y="115.1739501953125" width="4.899417400360107" height="4.843027114868164" transform="rotate(-44.25999863486402 43.1707763671875 115.1739501953125)"   fill="#FFCD5E" >
    </rect>
    <path d="M69.1097 109.553C69.1097 109.553 62.9098 105.26 58.2438 104.362L46.2977 111.6L53.2788 123.124L69.1097 109.553L69.1097 109.553Z"   fill="#6D8C98" >
    </path>
    <path d="M24.1138 109.553C24.1138 109.553 30.3118 105.26 34.9797 104.362L46.9277 111.6L39.9468 123.124L24.1138 109.553L24.1138 109.553Z"   fill="#6D8C98" >
    </path>
    <path d="M47.5092 114.54L50.683 127.029L46.5022 131.205L42.2859 126.915L45.7772 114.54L47.5092 114.54L47.5092 114.54Z"   fill="#FFCD5E" >
    </path>
    <path d="M80.6228 117.662C79.9108 117.661 79.3337 117.084 79.3347 116.372C79.3347 116.18 79.3778 115.991 79.4608 115.817C86.0508 102.007 85.7137 87.7 85.7087 87.557C85.6887 86.8449 86.2488 86.2509 86.9608 86.2309C87.6727 86.2099 88.2657 86.771 88.2867 87.483C88.3027 88.092 88.6427 102.561 81.7877 116.928C81.5737 117.377 81.1198 117.663 80.6228 117.662L80.6228 117.662Z"   fill="#BC8557" >
    </path>
    <path d="M72.8807 110.349C72.1687 110.349 71.5928 109.772 71.5928 109.06C71.5928 108.881 71.6298 108.705 71.7018 108.542C74.1057 103.08 74.7238 97.161 74.7307 97.103C74.8087 96.395 75.4447 95.885 76.1527 95.963C76.8507 96.039 77.3578 96.66 77.2958 97.359C77.2698 97.617 76.6338 103.732 74.0608 109.579C73.8547 110.047 73.3917 110.349 72.8807 110.349L72.8807 110.349Z"   fill="#BC8557" >
    </path>
    <path d="M12.9988 114.288L12.9988 114.288C12.4187 114.288 11.9098 113.899 11.7567 113.34C6.78173 95.134 6.19079 81.7521 6.18579 81.618C6.15673 80.906 6.70971 80.306 7.42175 80.277C8.13379 80.248 8.73474 80.802 8.76379 81.513C8.76379 81.644 9.35473 94.755 14.2407 112.66C14.4287 113.346 14.0248 114.055 13.3378 114.243C13.2268 114.273 13.1128 114.289 12.9978 114.288L12.9988 114.288Z"   fill="#BC8557" >
    </path>
    <path d="M21.0927 107.61C20.5217 107.61 20.0188 107.234 19.8578 106.686C18.9907 103.747 18.3807 100.739 18.0317 97.696C17.9647 96.9871 18.4837 96.357 19.1927 96.29C19.9017 96.222 20.5307 96.7421 20.5987 97.451C20.9348 100.33 21.5138 103.176 22.3308 105.957C22.5307 106.64 22.1397 107.357 21.4577 107.557C21.3397 107.593 21.2168 107.611 21.0927 107.61L21.0927 107.61Z"   fill="#BC8557" >
    </path>
</svg>
