<svg xmlns="http://www.w3.org/2000/svg" xmlns:xlink="http://www.w3.org/1999/xlink" width="93.0548095703125" height="123.39999389648438" viewBox="0 0 93.0548095703125 123.39999389648438" fill="none">
    <path d="M93.0471 55.769C92.8182 18.1689 74.0361 0 47.0232 0C20.0101 0 3.3982 18.28 0.576176 55.769C-2.24682 93.258 6.2212 119.213 6.2212 119.213L85.7062 119.213C85.7062 119.213 93.2672 92.77 93.0471 55.769L93.0471 55.769Z"   fill="#EF7A90" >
    </path>
    <path d="M76.5981 123.4C76.5981 108.699 60.9672 96.7749 46.2811 96.719C31.5942 96.7779 15.2152 108.699 15.2152 123.4L76.5981 123.4L76.5981 123.4Z"   fill="#E83F63" >
    </path>
    <path d="M74.5072 51.968C71.3791 56.524 71.7162 62.189 75.2551 64.621C78.7942 67.053 84.2062 65.332 87.3321 60.775C90.4581 56.219 90.1232 50.555 86.5842 48.124C83.0452 45.693 77.6341 47.413 74.5072 51.968L74.5072 51.968Z"   fill="#FFD1CA" >
    </path>
    <path d="M81.9481 54.112C83.3832 53.121 85.0211 52.792 86.1201 53.271C86.5742 53.469 86.7822 53.998 86.5842 54.453C86.3862 54.907 85.8572 55.115 85.4022 54.9159C84.9731 54.7289 83.9202 54.933 82.9692 55.589C82.1981 56.123 80.4442 57.749 80.8371 61.3199C80.8912 61.813 80.5361 62.256 80.0432 62.31C80.0101 62.313 79.9772 62.316 79.9442 62.316L79.9442 62.316C79.4841 62.319 79.0962 61.973 79.0471 61.516C78.5471 56.985 80.9101 54.828 81.9481 54.112Z"   fill="#FFBAB3" >
    </path>
    <path d="M19.2761 51.968C22.4042 56.524 22.0671 62.189 18.5282 64.621C14.9891 67.053 9.57921 65.332 6.45115 60.775C3.3231 56.219 3.66014 50.555 7.1992 48.124C10.7381 45.693 16.1501 47.413 19.2761 51.968L19.2761 51.968Z"   fill="#FFD1CA" >
    </path>
    <path d="M13.8402 62.316L13.7422 62.316C13.2491 62.262 12.8932 61.819 12.9471 61.326C13.3412 57.7549 11.5852 56.129 10.8102 55.595C9.8602 54.939 8.8071 54.7339 8.37619 54.922C7.92209 55.121 7.39316 54.913 7.19419 54.459C6.99619 54.004 7.2042 53.475 7.65818 53.277C8.75913 52.798 10.3951 53.1269 11.8302 54.118C12.8691 54.834 15.2312 56.991 14.7322 61.522C14.6792 61.974 14.2961 62.316 13.8402 62.316L13.8402 62.316Z"   fill="#FFBAB3" >
    </path>
    <path d="M52.7999 98.2137L46.1406 103.088L38.8352 98.2137L38.8352 85.0731L52.7999 85.0731L52.7999 98.2137L52.7999 98.2137Z"   fill="#FFD1CA" >
    </path>
    <path d="M80.7312 59.36L80.7312 59.36C80.7312 75.934 67.2942 89.371 50.7192 89.371L43.0642 89.371C26.4891 89.371 13.0521 75.934 13.0521 59.36L13.0521 44.183C13.0521 27.6089 26.4891 14.172 43.0642 14.172L50.7192 14.172C67.2942 14.172 80.7312 27.6089 80.7312 44.183L80.7312 59.36Z"   fill="#FFE6E1" >
    </path>
    <g opacity="0.4">
        <path d="M32.5051 66.61C32.5051 70.241 29.5621 73.185 25.9312 73.185C22.3002 73.185 19.3572 70.241 19.3572 66.61C19.3572 62.98 22.3002 60.0359 25.9312 60.0359C29.5602 60.041 32.5012 62.981 32.5051 66.61L32.5051 66.61Z"   fill="#F47A8F" >
        </path>
        <path d="M74.4202 66.61C74.4242 70.245 71.4812 73.1949 67.8462 73.199C64.2112 73.204 61.2612 70.2599 61.2572 66.625C61.2532 62.991 64.1962 60.041 67.8312 60.0359C67.8362 60.0359 67.8412 60.0359 67.8462 60.0359C71.4752 60.041 74.4161 62.981 74.4202 66.61L74.4202 66.61Z"   fill="#F47A8F" >
        </path>
    </g>
    <path d="M45.9512 64.657C46.2382 64.925 46.6761 65.233 47.1312 65.2549L47.1642 65.2549C47.7622 65.2549 48.3602 64.715 48.7551 64.256C49.3021 63.637 50.2472 63.578 50.8662 64.125C51.4772 64.664 51.5442 65.593 51.0172 66.214C49.5812 67.865 48.1552 68.239 47.1611 68.239L47.1611 68.239L46.9951 68.239C44.7852 68.145 43.3961 66.319 43.2451 66.111L42.9592 65.717L42.9592 48.306C42.9592 47.48 43.6292 46.811 44.4552 46.811C45.2811 46.811 45.9512 47.48 45.9512 48.306L45.9512 64.657Z"   fill="#F47A8F" >
    </path>
    <path d="M60.3192 51.745C60.3192 54.279 62.1282 56.3329 64.3582 56.3329C66.5881 56.3329 68.3961 54.279 68.3961 51.745C68.3961 49.211 66.5902 47.159 64.3582 47.159C62.1262 47.159 60.3192 49.213 60.3192 51.745L60.3192 51.745Z"   fill="#31296B" >
    </path>
    <path d="M25.3412 51.745C25.3412 54.279 27.1482 56.3329 29.3801 56.3329C31.6122 56.3329 33.4192 54.279 33.4192 51.745C33.4192 49.211 31.6122 47.159 29.3801 47.159C27.1482 47.159 25.3412 49.213 25.3412 51.745L25.3412 51.745Z"   fill="#31296B" >
    </path>
    <path d="M33.4952 42.875C33.3343 42.875 33.1752 42.831 33.0373 42.748C32.8682 42.649 28.9753 40.418 23.8412 42.655C23.3832 42.844 22.8582 42.626 22.6692 42.168C22.4862 41.722 22.6872 41.211 23.1252 41.01C29.1382 38.389 33.7642 41.092 33.9593 41.207C34.3842 41.462 34.5232 42.013 34.2692 42.438C34.1062 42.71 33.8122 42.876 33.4952 42.875L33.4952 42.875Z"   fill="#31296B" >
    </path>
    <path d="M70.2322 42.875C70.0702 42.875 69.9123 42.831 69.7742 42.748C69.6053 42.649 65.7112 40.419 60.5782 42.655C60.1202 42.844 59.5953 42.626 59.4062 42.168C59.2232 41.722 59.4242 41.211 59.8612 41.01C65.8752 38.389 70.5013 41.092 70.6952 41.207C71.1213 41.462 71.2602 42.013 71.0052 42.438C70.8432 42.71 70.5492 42.876 70.2322 42.875L70.2322 42.875Z"   fill="#31296B" >
    </path>
    <path d="M53.9312 74.339C54.6862 74.005 55.5692 74.346 55.9042 75.102C56.2382 75.857 55.8972 76.741 55.1413 77.075L55.1272 77.081C52.7802 78.126 50.2403 78.672 47.6712 78.685L47.6712 78.685C43.1042 78.685 40.0622 76.906 39.8762 76.795C39.1662 76.372 38.9333 75.452 39.3572 74.742C39.7812 74.031 40.7002 73.799 41.4112 74.223C41.6432 74.359 46.9452 77.385 53.9312 74.339Z"   fill="#E83F63" >
    </path>
    <path d="M70.4962 46.191C70.9852 46.277 71.3111 46.743 71.2252 47.2309L71.2212 47.253C70.8471 49.2259 68.5862 49.8429 67.3092 49.895L67.2722 49.896L67.2722 49.896C66.7761 49.908 66.3652 49.5149 66.3541 49.019C66.3431 48.524 66.7362 48.113 67.2312 48.102C67.2612 48.102 69.2612 47.952 69.4571 46.92C69.5432 46.4319 70.0082 46.1059 70.4962 46.191Z"   fill="#31296B" >
    </path>
    <path d="M26.5131 49.896L26.5131 49.896L26.4741 49.896C25.1961 49.844 22.9361 49.228 22.5621 47.2549C22.4702 46.767 22.7911 46.298 23.2782 46.206C23.7651 46.113 24.2352 46.434 24.3271 46.921C24.5251 47.9679 26.5291 48.103 26.5492 48.103C27.0442 48.113 27.4382 48.5229 27.4282 49.0179C27.4182 49.514 27.0081 49.908 26.5131 49.8979L26.5131 49.896Z"   fill="#31296B" >
    </path>
    <path d="M80.5422 47.401L80.5422 45.204C80.5422 44.269 79.9172 43.478 79.0731 43.351C74.9141 42.723 63.8521 40.884 57.7841 40.465C57.7841 40.465 56.3691 29.89 55.7541 29.875L55.7231 29.875C55.1241 29.875 52.5811 40.258 52.5811 40.258C47.6661 40.022 42.7421 40.065 37.8311 40.388C37.8311 40.388 36.1861 32.61 35.6071 32.61C35.0091 32.587 33.1751 40.7599 33.1751 40.7599C28.2131 41.237 18.3221 43.388 14.6961 44.2079C13.9032 44.387 13.3392 45.152 13.3392 46.04L13.3392 47.403C7.4891 37.947 9.9631 8.539 47.6091 8.539C85.2562 8.539 85.2181 40.772 80.5422 47.401L80.5422 47.401Z"   fill="#EF7A90" >
    </path>
    <path d="M29.5982 38.4159C29.5311 38.4159 29.4631 38.41 29.3972 38.3999C28.7451 38.289 28.3071 37.6709 28.4182 37.019C29.3622 31.47 32.4752 26.267 32.6072 26.047C32.9481 25.482 33.6842 25.3 34.2501 25.641C34.8162 25.983 34.9972 26.719 34.6561 27.285C34.6262 27.334 31.6432 32.328 30.7772 37.42C30.6792 37.995 30.1821 38.4159 29.5982 38.4159L29.5982 38.4159Z"   fill="#C64A7C" >
    </path>
    <path d="M48.9061 36.871C48.8662 36.873 48.8262 36.873 48.7872 36.871C48.1301 36.806 47.6501 36.2209 47.7142 35.5639C48.2842 29.784 52.8751 22.642 53.0712 22.339C53.4302 21.785 54.1711 21.626 54.7262 21.9859C55.2802 22.345 55.4392 23.086 55.0792 23.641C55.0352 23.7099 50.6082 30.6009 50.0952 35.7989C50.0322 36.4079 49.5192 36.871 48.9061 36.871L48.9061 36.871Z"   fill="#C64A7C" >
    </path>
    <path d="M36.5962 98.3629L46.2472 122.745L57.4132 98.9239C53.8231 97.521 50.0222 96.7339 46.2811 96.719C42.9872 96.7569 39.7181 97.3119 36.5962 98.3629L36.5962 98.3629Z"   fill="#FFD1CA" >
    </path>
    <path d="M53.4161 108.626C53.1721 108.84 53.1871 109.374 53.4161 109.585L57.0521 113.044C55.0571 114.79 46.2472 122.751 46.2472 122.751C46.2472 122.751 50.3202 106.215 53.6282 97.707C54.2701 97.511 60.5632 98.821 62.6501 100.982C62.5752 101.032 54.4652 107.703 53.4161 108.626L53.4161 108.626Z"   fill="#F2A7B7" >
    </path>
    <path d="M28.8242 101.5C30.9102 99.337 37.3982 97.517 38.0411 97.7129C41.3452 106.23 46.2472 122.749 46.2472 122.749C46.2472 122.749 36.6172 114.789 34.6212 113.043L38.2582 109.583C38.4872 109.366 38.5012 108.835 38.2582 108.624C37.2092 107.703 28.8942 101.557 28.8242 101.5L28.8242 101.5Z"   fill="#F2A7B7" >
    </path>
    <path d="M10.9321 111.257C10.3562 111.257 9.86217 110.845 9.75719 110.279C8.05614 101.135 7.74621 86.727 7.73412 86.119C7.72118 85.458 8.24621 84.911 8.90612 84.897C9.56713 84.884 10.1141 85.408 10.1282 86.069C10.1282 86.219 10.4452 100.891 12.1102 109.84C12.2312 110.49 11.8021 111.115 11.1522 111.236C11.0802 111.25 11.0062 111.257 10.9321 111.257L10.9321 111.257Z"   fill="#C64A7C" >
    </path>
    <path d="M80.9702 108.301C80.3092 108.3 79.7742 107.764 79.7751 107.103C79.7761 106.897 79.8292 106.695 79.9312 106.515C83.9052 99.485 83.7252 82.1679 83.7222 81.993C83.7142 81.3319 84.2432 80.7899 84.9042 80.782L84.9192 80.782C85.5742 80.782 86.1072 81.3069 86.1162 81.9619C86.1262 82.6989 86.3032 100.11 82.0132 107.69C81.8011 108.067 81.4032 108.301 80.9702 108.301L80.9702 108.301Z"   fill="#C64A7C" >
    </path>
</svg>
