<svg xmlns="http://www.w3.org/2000/svg" xmlns:xlink="http://www.w3.org/1999/xlink" width="167.23101806640625" height="236.21148681640625" viewBox="0 0 167.23101806640625 236.21148681640625" fill="none">
    <path d="M61.8579 98.2055C60.0403 98.9427 57.0453 98.4205 55.2137 99.0632C46.7896 102.019 39.6547 105.75 34.0609 113.307C32.8823 114.901 31.5536 116.861 30.481 118.471C24.9513 124.839 21.1104 131.977 17.573 139.635C7.67593 162.112 4.98396 187 2.56875 211.217C2.62368 215.455 -0.187027 227.205 3.97009 229.236C3.72164 229.494 3.81164 230.011 4.27262 230.007C14.8134 229.9 25.3297 230.844 35.7069 232.679C40.7137 233.564 45.6937 234.778 50.7937 234.978C61.3806 234.905 71.9294 233.13 82.5023 234.809C95.2126 234.809 110.66 234.439 124.8 233.895C138.015 233.387 151.301 234.535 164.353 232.286C165.386 232.123 165.89 230.862 165.674 229.959C164.142 224.377 163.391 218.632 162.531 212.919C162.703 209.255 162.396 205.429 161.041 202.016C157.501 178.975 152.961 156.085 147.371 133.453C144.439 119.554 134.038 108.769 120.051 103.396C117.362 101.875 114.756 95.3473 111.142 94.1518C110.563 93.9602 111.477 95.4853 111.142 95.5763C109.947 95.9012 108.608 95.9351 107.289 94.7619C104.931 92.6652 104.191 86.5396 102.757 83.771C95.1957 69.1697 76.3164 74.8828 73.7871 91.0242C72.0235 92.1742 69.5304 93.1872 67.6107 94.1138C65.6339 95.068 63.8951 97.3792 61.8579 98.2055Z"   fill="#FFFFFF" >
    </path>
    <path d="M71.0976 93.3258C70.7725 93.0532 70.6176 92.4532 70.7676 92.0558C71.1542 91.0308 72.0315 90.2789 72.6376 89.3658C73.1744 88.5543 73.6428 87.6956 74.0376 86.8058C74.889 84.8804 75.2736 82.8369 75.7576 80.8058C75.7806 80.7065 75.9223 80.715 75.9476 80.8058C76.5751 82.9193 76.3582 85.2497 75.8176 87.3758C75.5261 88.5277 75.1083 89.638 74.6076 90.7158L74.4276 91.0958C73.9986 92.0138 73.5231 92.9638 72.6876 93.5358C72.3392 93.7747 71.7162 93.7895 71.3676 93.5358L71.1876 93.3958C71.1583 93.373 71.1258 93.3498 71.0976 93.3258ZM93.4806 121.124C94.0576 120.465 94.537 119.701 95.0306 118.974L95.1406 118.804C97.661 115.141 99.9958 111.344 102.111 107.434C103.075 105.655 103.991 103.849 104.861 102.024L105.121 101.474C105.594 100.468 106.11 99.4799 106.501 98.444C106.591 98.2012 106.684 97.965 106.771 97.724C105.44 96.8512 104.405 94.9635 104.031 93.484C103.642 91.9475 103.838 90.3693 104.531 88.964C104.662 88.6999 105.107 88.7629 105.171 89.044C105.437 90.2614 105.955 91.3574 106.661 92.374C106.997 92.8601 107.382 93.3057 107.841 93.684C108.234 94.0072 108.683 94.2227 109.101 94.504C109.709 94.4087 110.344 94.6362 110.771 95.084L110.701 94.434C110.679 94.2227 111.03 94.1792 111.071 94.384C112.919 103.709 114.611 113.041 116.071 122.434L116.711 126.574L117.311 130.474C118.31 136.963 119.273 143.448 120.001 149.984C120.97 158.707 121.785 167.456 122.381 176.214C122.979 185.034 123.349 193.857 123.611 202.694C123.676 204.922 123.743 207.147 123.811 209.374L124.261 206.714C124.711 204.05 125.152 201.38 125.531 198.704C126.889 189.128 127.981 179.483 128.511 169.824C128.997 160.985 128.828 151.975 126.581 143.364C126.014 141.198 125.327 139.062 124.491 136.984C123.679 134.964 122.573 133.095 121.701 131.104C120.687 128.788 120.379 126.598 120.901 124.104C121.357 121.931 122.157 119.89 122.301 117.654C122.569 113.503 121.218 109.487 119.311 105.854C118.808 104.897 118.284 103.951 117.731 103.014C116.055 100.184 114.161 97.4582 112.201 94.844C112.095 94.7045 112.316 94.5499 112.431 94.664C114.218 96.4309 116.173 98.1644 117.781 100.094C118.562 101.032 119.328 101.991 120.051 102.974C127.978 104.299 134.784 109.242 139.441 115.764C144.724 123.166 147.403 132.071 149.381 140.844C151.58 150.594 153.435 160.436 155.411 170.234C157.455 180.373 159.493 190.508 161.551 200.644C162.573 205.676 163.59 210.71 164.611 215.744C165.128 218.293 165.673 220.834 166.241 223.374C166.532 224.676 166.84 225.978 167.111 227.284C167.415 228.757 167.138 229.702 166.141 230.784C165.773 231.186 165.187 231.178 164.731 230.964L164.591 230.894L164.451 230.824C163.886 230.546 163.442 230.262 163.091 229.644C162.704 228.966 162.643 228.209 162.511 227.454C162.265 226.065 162.026 224.685 161.781 223.294C161.414 221.214 161.016 219.137 160.611 217.064L158.581 206.704C158.038 203.941 157.497 201.175 156.951 198.414C155.001 188.54 153.043 178.666 151.091 168.794C149.216 159.315 147.564 149.778 145.431 140.354L145.301 139.824L145.181 139.294C143.273 131.17 140.607 123.309 135.771 116.424C132.048 111.13 126.88 106.397 120.791 104.004C121.22 104.621 121.628 105.252 122.021 105.894C124.488 109.927 126.293 114.712 125.871 119.514C125.785 120.48 125.585 121.44 125.384 122.4C125.098 123.771 124.811 125.143 124.861 126.534C124.939 128.635 126.233 130.476 127.131 132.304C129.169 136.447 130.65 140.858 131.601 145.374C133.508 154.443 133.498 163.768 132.841 172.974C132.127 182.982 130.775 192.994 129.231 202.904C128.438 207.987 127.378 213.02 126.571 218.094C126.172 220.596 125.626 223.094 125.151 225.584L124.931 226.774C124.804 227.434 124.673 228.093 124.521 228.744L124.421 229.134L124.421 229.204C124.421 229.684 124.292 230.077 124.081 230.394C123.791 231.322 123.428 232.235 122.951 233.104C122.706 233.548 122.347 233.793 121.961 233.884C121.572 234.774 120.693 235.454 119.641 235.454L105.811 235.404C97.774 235.372 89.7372 235.318 81.7006 235.274C79.6727 235.264 77.6467 235.227 75.6206 235.174C73.7213 235.121 71.8988 234.891 70.0206 234.654C67.8993 234.388 66.7437 232.884 67.0606 230.764C67.1303 230.297 67.2086 229.829 67.2806 229.364C66.8581 229.504 66.3607 229.446 66.0206 229.114L65.7006 228.794C65.2586 228.357 64.8609 227.928 64.5806 227.344C64.2912 226.744 64.0562 226.117 63.8006 225.504C63.2492 224.185 62.7127 222.853 62.1906 221.524C61.145 218.865 60.1027 216.201 59.1306 213.514C57.2062 208.194 55.5014 202.795 54.0206 197.334C51.3798 187.591 49.4648 177.654 48.2606 167.634L47.9806 165.254L47.8906 164.544C47.434 160.66 47.049 156.719 47.2306 152.844C47.3428 150.418 47.7241 147.97 48.6306 145.704C49.467 143.614 50.7531 141.822 51.9806 139.954L52.1206 139.744L52.2606 139.524C53.3341 137.827 54.1878 136.055 54.2306 133.994C54.274 131.903 53.6716 129.862 52.9906 127.904L52.8206 127.424L52.7006 127.104C52.5777 126.761 52.4534 126.418 52.3292 126.075C50.9886 122.378 49.653 118.694 50.1506 114.664C50.9536 108.18 54.8867 102.954 59.8306 98.924C55.4339 99.7948 51.0815 101.513 47.2406 103.694C42.7045 106.273 38.6224 109.674 35.1006 113.514C28.4457 120.772 23.6898 129.483 19.8006 138.474C15.7293 147.883 12.7058 157.746 10.4306 167.734C8.14258 177.78 6.6166 187.978 5.57061 198.224C5.04899 203.324 4.64054 208.439 4.30061 213.554C4.12737 216.175 3.99343 218.798 3.79061 221.414C3.58779 224.028 3.49864 226.689 2.86061 229.234C2.56272 230.42 0.555892 230.54 0.34061 229.234C-0.137165 226.317 -0.0127326 223.298 0.12061 220.344L0.14061 220.074C0.271808 217.132 0.438005 214.194 0.64061 211.254C1.05491 205.245 1.60808 199.245 2.33061 193.264C4.86371 172.268 9.53793 151.379 18.7006 132.214C23.0147 123.187 28.5478 114.422 36.2506 107.904C39.918 104.803 44.055 102.326 48.5106 100.534C52.4953 98.9299 56.5468 98.174 60.7806 98.174C62.9039 96.5466 65.1834 95.1253 67.4606 93.914C67.5979 93.8403 67.7345 94.0199 67.6206 94.134C67.5615 94.1911 67.5096 94.2489 67.4506 94.304C67.7084 94.3209 67.9719 94.4425 68.2106 94.694C69.0474 95.5709 69.7591 96.6651 70.3906 97.804C71.3519 99.0047 72.2612 100.246 73.2206 101.434C74.7563 103.336 76.3296 105.214 77.9206 107.074C80.5926 110.2 83.3535 113.261 86.2306 116.204L86.7106 116.694C88.202 118.205 89.7167 120.018 91.4806 121.214L91.5706 121.274C92.3148 121.759 92.846 121.848 93.4806 121.124ZM66.1683 96.0464C66.2735 96.4291 66.4151 96.808 66.5783 97.1764C66.0271 100.769 65.7066 104.402 65.4383 108.026L65.3683 108.886C65.065 112.925 64.7316 116.973 64.5583 121.016C64.1886 129.604 64.0139 138.191 63.9883 146.786C63.9378 163.976 64.6224 181.155 65.5583 198.316C65.8224 203.129 66.1268 207.938 66.4583 212.746C66.621 215.116 66.7989 217.485 66.9383 219.856C67.0355 221.511 67.0295 223.221 67.2283 224.886C66.6896 223.707 66.1559 222.524 65.6383 221.336C64.6561 219.079 63.7057 216.819 62.8883 214.496C61.2466 209.83 59.595 205.175 58.1983 200.426C55.4075 190.943 53.3067 181.262 51.9083 171.476C51.2173 166.647 50.6545 161.77 50.3883 156.896C50.1346 152.23 50.482 147.805 53.0383 143.776C54.2151 141.923 55.5286 140.171 56.3483 138.116C57.1513 136.102 57.2966 133.959 56.9883 131.826C56.3735 127.57 54.0857 123.799 53.0883 119.646C51.8864 114.633 53.6082 109.633 56.4983 105.526C58.0725 103.29 59.9664 101.337 61.9383 99.4664L62.3483 99.0864L62.7583 98.6964C63.8804 97.6524 65.0147 96.6266 66.1283 95.5764C66.1283 95.6863 66.133 95.7942 66.1583 95.9064L66.1283 95.9064L66.1683 96.0464ZM33.2572 231.448C33.0776 232.919 32.0581 234.083 30.4672 233.868C28.8576 233.65 28.2059 232.248 28.4172 230.788C29.2475 225.058 30.0477 219.326 30.7472 213.578L31.5372 207.028C32.5359 198.841 33.5595 190.659 34.7372 182.498C35.2295 179.087 35.744 175.677 36.2572 172.268L36.0772 172.028C35.3439 171.075 34.5872 170.146 33.8372 169.208C32.3966 167.398 30.9676 165.601 29.6472 163.708C29.5815 163.613 29.7224 163.476 29.8172 163.548C31.6679 164.915 33.4152 166.382 35.1772 167.868L36.7172 169.168C37.6045 163.277 38.4836 157.383 39.2672 151.478C39.2864 151.33 39.5072 151.319 39.5072 151.478C39.323 157.32 39.2121 163.17 38.9372 169.008L38.8372 171.008C39.2659 171.486 39.5179 172.031 39.3172 172.788C39.2393 173.077 39.0145 173.34 38.7272 173.438L38.6372 175.288C38.2295 183.624 37.7505 191.942 36.8772 200.258C35.785 210.665 34.5183 221.06 33.2572 231.448ZM148.054 229.556C150.961 230.256 151.754 234.31 148.794 235.806C147.451 236.482 145.722 236.319 144.614 235.256C143.464 234.148 143.421 232.156 143.154 230.656L142.894 229.256C140.969 218.772 139.295 208.168 138.514 197.536C138.314 194.791 138.144 192.046 138.034 189.296C137.969 187.673 137.966 186.05 137.963 184.428C137.961 183.464 137.959 182.5 137.944 181.536L137.934 180.826C137.873 178.068 137.922 175.314 137.994 172.556C137.994 172.22 138.017 171.884 138.034 171.546C137.937 171.432 137.864 171.297 137.834 171.166L137.794 170.996C137.699 170.55 137.812 170.025 138.154 169.706C138.302 167.827 138.492 165.953 138.544 164.076C138.544 163.922 138.771 163.926 138.784 164.076C138.909 165.674 139.155 167.276 139.404 168.876C141.008 167.587 142.195 165.466 142.894 163.686C142.945 163.557 143.134 163.596 143.104 163.736C142.825 165.091 142.434 166.453 141.914 167.736C141.414 168.974 140.664 170.082 140.144 171.306C140.075 171.471 139.962 171.591 139.824 171.686L139.864 172.016L139.904 172.356C140.163 174.602 140.452 176.84 140.704 179.086L140.824 180.206C141.321 184.896 142.106 189.569 142.714 194.246C143.31 198.826 143.916 203.402 144.564 207.976C145.234 212.691 145.918 217.4 146.714 222.096C147.051 224.079 147.409 226.066 147.774 228.046L148.054 229.556Z" fill-rule="evenodd"  fill="#000000" >
    </path>
    <path d="M38.1242 45.7591C38.803 25.7658 54.1677 4.97995 73.9159 1.51212C77.8117 0.826495 81.8125 0.898988 85.6915 1.71438C87.8577 2.18442 89.9515 3.09576 92.2698 3.05434C101.261 1.63259 111.136 1.79596 118.563 7.55251C130.432 15.497 132.082 31.3924 130.695 44.1723L130.751 44.292C130.061 48.9831 128.915 53.2796 126.746 56.1079C126.577 60.1741 125.165 68.8538 125.06 72.2853C125.314 88.2528 116.248 95.3398 100.417 95.8225C96.0437 95.8105 92.0408 94.9581 88.2428 93.0917C83.657 91.5949 78.6494 90.7793 74.9279 87.466C73.1156 87.8504 71.2582 85.9893 69.7548 84.8811C67.3028 93.9064 54.5422 92.4052 49.1505 86.5722C45.8522 83.7857 44.5254 76.8925 50.2531 75.069C40.8688 68.6926 37.4792 57.6778 38.1242 45.7591Z"   fill="#FFFFFF" >
    </path>
    <path d="M93.281 32.37C95.0217 30.545 96.7383 28.699 98.451 26.85L100.161 25C100.918 24.2651 101.729 23.4075 102.061 22.4C103.273 22.6062 104.199 23.543 105.071 24.51L105.321 24.8C106.479 26.0196 107.689 27.2442 108.914 28.484C116.663 36.3256 125.015 44.7772 124.681 56.44C124.264 59.052 124.162 62.1471 124.054 65.4083C123.725 75.4275 123.344 87.0137 113.601 90.97L113.391 91.06C106.181 94.0764 97.5355 95.1594 90.231 91.93C89.1111 91.4103 88.1206 90.6828 86.921 90.37C85.9891 90.1272 84.8641 91.267 85.541 92.16C86.8218 93.8501 89.1139 94.7391 91.131 95.41L91.581 95.56C102.44 98.6645 117.582 96.3769 123.461 85.72C125.373 81.7528 125.856 77.3207 126.081 72.97L126.131 72.08C126.358 67.8466 127.762 58.8487 127.791 56.45C130.26 52.8788 131.376 48.2859 131.781 43.99C132.135 40.7217 132.159 37.4414 132.021 34.16C132.847 14.9747 116.866 -1.61169 97.331 1.44C93.4544 2.3691 89.6542 1.93394 85.911 0.68C48.9252 -6.8223 19.7647 49.7238 48.191 74.85C36.2011 85.1778 63.0244 100.988 70.341 86.68C71.7265 87.746 73.667 89.1614 75.471 88.32C75.846 88.1423 75.9506 87.5941 75.751 87.26C74.9237 85.8735 72.9779 85.3918 71.731 84.45C67.4843 81.0274 64.972 75.8868 63.341 70.77C64.1595 69.1877 62.5907 69.0066 60.6409 68.7814C59.031 68.5954 57.1612 68.3795 56.161 67.32C50.1994 62.7994 55.9745 51.8751 63.011 54.83C63.5922 55.4867 64.1553 56.3336 65.041 56.56C65.5159 56.6815 65.8851 56.0844 65.531 55.73C64.6916 55.0473 63.9819 54.2149 63.181 53.49C76.2092 52.6118 84.829 40.9591 93.281 32.37ZM102.868 18.0254C102.868 18.4914 102.85 18.9639 102.798 19.4354C104.547 20.5638 105.963 22.2734 107.268 23.8554C117.007 31.5018 124.924 39.5145 127.388 51.6454C128.918 49.8591 129.617 47.5051 130.118 45.2654C131.167 30.4912 128.345 12.8044 113.108 6.3954C107.175 3.45117 101.761 3.98519 95.8863 4.56469C94.5096 4.70049 93.1076 4.83878 91.6677 4.9354L90.9277 4.7954C90.1633 4.64411 89.4243 4.49289 88.7055 4.34579C82.0738 2.98858 77.1543 1.98178 69.6977 4.5054C51.2766 10.6606 39.4043 30.2686 39.9177 49.3254C39.9297 60.1512 45.294 73.9589 57.3777 75.4954C59.2047 75.6406 59.228 78.4804 57.4277 78.3954L57.3777 78.3854C54.399 78.1994 51.5156 77.1181 49.0577 75.4554C45.7602 80.7979 49.0601 85.6491 54.1977 87.9454C59.4033 90.6932 64.9694 89.8203 68.4477 84.9654C65.2732 81.4371 62.929 76.163 62.3877 71.4854C53.4722 74.9452 46.7571 62.189 52.5577 55.4254C54.599 52.514 58.5611 50.6988 61.8277 52.7654C75.8814 47.3565 85.6935 35.8564 95.0877 24.5954L95.5877 24.0254C97.2325 22.1669 101.008 17.9681 101.428 17.4254C101.899 16.8152 102.856 17.37 102.868 18.0254ZM61.156 60.2612C62.6568 60.7891 65.4055 62.4942 64.056 64.2612C63.0863 65.1753 62.2657 64.2602 61.2194 63.0934C60.1894 61.9448 58.9408 60.5524 57.116 60.4212C56.4816 59.8546 60.6703 59.7874 61.066 60.2312L61.156 60.2612Z" fill-rule="evenodd"  fill="#221E1F" >
    </path>
    <path d="M111.733 40.7071C111.823 41.0679 112.026 41.3411 112.283 41.5371C112.554 41.7436 112.896 41.8652 113.253 41.9071C114.9 42.1006 116.516 42.4627 118.093 42.9771C118.832 43.2182 119.532 43.5382 120.223 43.8771L120.823 44.1771C121.372 44.4459 121.936 44.6991 122.653 44.8871C122.709 44.9019 122.768 44.914 122.823 44.9271C123.022 44.8647 123.051 44.792 123.093 44.7371L123.113 44.7171C123.164 44.6528 123.223 44.5562 123.163 44.0971C121.599 40.8509 117.307 39.4679 114.003 38.7771L113.703 38.7171C113.346 38.6456 112.988 38.6688 112.673 38.7971C112.364 38.923 112.091 39.1508 111.903 39.4671C111.653 39.8883 111.617 40.2402 111.733 40.7071ZM84.3262 46.093C84.2047 46.3312 84.4616 46.6538 84.7162 46.483C86.6563 45.1811 88.5147 43.9925 90.7862 43.343C91.8216 43.0469 92.8513 42.8747 93.9262 42.813C94.2571 42.7941 94.5817 42.8016 94.8997 42.8089C95.8354 42.8305 96.7139 42.8508 97.5262 42.193C98.145 41.6921 97.9866 40.7263 97.5262 40.203C96.6582 39.2162 95.1332 39.4207 93.9062 39.633L93.5062 39.693C92.2225 39.9162 90.9565 40.4065 89.7962 40.993C87.6223 42.0918 85.4461 43.8986 84.3262 46.093ZM93.5413 54.2204C92.7066 55.8892 90.61 55.12 90.4513 53.6004C90.2949 52.1022 90.4066 51.2074 90.5203 50.2972C90.5612 49.9699 90.6023 49.6405 90.6313 49.2804C90.8076 47.0916 94.1398 46.5945 94.4713 48.7604C94.7681 50.7006 94.4149 52.4736 93.5413 54.2204ZM116.09 53.9005C114.95 52.547 114.4 49.8437 115.851 48.5105C115.89 48.4416 115.937 48.3807 115.991 48.3105C116.455 47.7018 117.127 47.2857 117.931 47.5205C120.441 48.2545 119.702 51.8147 118.821 53.5505C118.341 54.4931 116.79 54.7305 116.09 53.9005ZM105.348 62.5864C106.841 63.7415 109.571 65.8526 111.495 63.8322C113.212 61.4272 110.781 59.1723 109.185 58.2022C108.767 57.9021 109.102 56.9086 109.995 57.0622C118.107 58.4565 113.903 72.4332 103.545 64.7622C102.312 63.7671 103.806 61.57 105.135 62.4222C105.203 62.4742 105.274 62.5292 105.348 62.5864ZM113.064 72.8144C113.236 72.7571 113.427 72.7624 113.604 72.8244C113.776 72.8842 113.932 72.9936 114.034 73.1444C114.132 73.2878 114.182 73.4708 114.164 73.6744C114.048 74.9973 113.356 76.1774 112.374 77.1044C111.284 78.134 109.836 78.8446 108.474 79.0944C106.975 79.3696 105.448 79.1691 104.064 78.6044C102.644 78.0248 101.381 77.0595 100.454 75.8244C100.132 75.3951 100.047 74.9391 100.114 74.5244C100.19 74.0582 100.468 73.6379 100.844 73.3544C101.222 73.0701 101.688 72.9329 102.144 73.0044C102.541 73.0665 102.942 73.2841 103.254 73.7344L103.314 73.8244C103.865 74.5698 104.587 75.1802 105.404 75.5744C106.193 75.9544 107.072 76.1276 107.984 76.0244C109.722 75.8281 110.922 74.8909 112.194 73.6144C112.352 73.4533 112.506 73.2833 112.664 73.1144C112.765 72.9613 112.91 72.8661 113.064 72.8144Z" fill-rule="evenodd"  fill="#000000" >
    </path>
</svg>
