<svg xmlns="http://www.w3.org/2000/svg" xmlns:xlink="http://www.w3.org/1999/xlink" width="103.15206909179688" height="131.07904052734375" viewBox="0 0 103.15206909179688 131.07904052734375" fill="none">
    <path d="M79.0746 59.6441C75.9466 64.2 76.2836 69.8651 79.8226 72.297C83.3616 74.729 88.7726 73.008 91.8996 68.4511C95.0256 63.8951 94.6906 58.2311 91.1516 55.8001C87.6126 53.3691 82.2016 55.0891 79.0746 59.6441L79.0746 59.6441Z"   fill="#FFD1CA" >
    </path>
    <path d="M87.5356 63.265C86.7656 63.799 85.0116 65.4251 85.4046 68.9961C85.4586 69.489 85.1036 69.932 84.6106 69.986C84.5776 69.989 84.5446 69.992 84.5116 69.992L84.5116 69.992C84.0516 69.995 83.6636 69.6491 83.6136 69.192C83.1146 64.661 85.4776 62.5041 86.5156 61.788C87.9506 60.797 89.5886 60.468 90.6876 60.947C91.1416 61.145 91.3496 61.674 91.1516 62.1291C90.9536 62.583 90.4236 62.791 89.9696 62.5921C89.5406 62.4051 88.4876 62.609 87.5356 63.265Z"   fill="#FFBAB3" >
    </path>
    <path d="M23.8436 59.6441C26.9716 64.2 26.6346 69.8651 23.0956 72.297C19.5566 74.729 14.1466 73.008 11.0186 68.4511C7.89057 63.8951 8.22758 58.2311 11.7666 55.8001C15.3056 53.3691 20.7176 55.0891 23.8436 59.6441L23.8436 59.6441Z"   fill="#FFD1CA" >
    </path>
    <path d="M15.3776 63.271C14.4276 62.6151 13.3726 62.4111 12.9436 62.5981C12.4896 62.797 11.9606 62.5891 11.7616 62.1351C11.5636 61.68 11.7716 61.151 12.2256 60.953C13.3246 60.474 14.9626 60.8031 16.3976 61.794C17.4366 62.5101 19.7986 64.6671 19.2996 69.198C19.2466 69.6501 18.8636 69.992 18.4076 69.992L18.4076 69.992L18.3086 69.992C17.8166 69.9381 17.4606 69.495 17.5146 69.0021C17.9086 65.4311 16.1526 63.805 15.3776 63.271Z"   fill="#FFBAB3" >
    </path>
    <path d="M99.1226 24.56C92.9746 29.585 83.9686 28.7351 79.0086 22.6651C74.0486 16.595 75.0116 7.59901 81.1596 2.57704C87.3076 -2.44597 93.8316 0.429031 98.7916 6.50001C103.752 12.5711 105.272 19.5371 99.1226 24.56L99.1226 24.56Z"   fill="#3CAFB5" >
    </path>
    <path d="M4.02858 24.56C10.1806 29.5851 19.1826 28.7351 24.1426 22.6651C29.1026 16.5951 28.1406 7.59805 21.9976 2.57504C15.8546 -2.44794 9.31959 0.429045 4.3596 6.50003C-0.600422 12.5711 -2.1194 19.5371 4.02858 24.56L4.02858 24.56Z"   fill="#3CAFB5" >
    </path>
    <ellipse cx="51.39010238647461" cy="44.204566955566406" rx="37.02096176147461" ry="32.75794219970703"   fill="#3CAFB5" >
    </ellipse>
    <path d="M81.1656 131.076C81.1656 116.375 65.5346 104.451 50.8486 104.395C36.1616 104.454 19.7826 116.375 19.7826 131.076L81.1656 131.076L81.1656 131.076Z"   fill="#2D7F90" >
    </path>
    <path d="M57.3676 105.891C57.3676 105.891 54.6896 108.135 50.5716 108.135C46.0846 108.135 43.4026 105.891 43.4026 105.891L43.4026 92.749L57.3676 92.749L57.3676 105.891L57.3676 105.891Z"   fill="#FFD1CA" >
    </path>
    <path d="M55.2866 97.047L47.6316 97.047C31.0566 97.047 17.6196 83.6101 17.6196 67.036L17.6196 51.859C17.6196 35.2851 31.0566 21.8481 47.6316 21.8481L55.2866 21.8481C71.8616 21.8481 85.2986 35.2851 85.2986 51.859L85.2986 67.036L85.2986 67.036C85.2986 83.6101 71.8616 97.047 55.2866 97.047Z"   fill="#FFE6E1" >
    </path>
    <g opacity="0.4">
        <path d="M37.0726 74.286C37.0726 77.9171 34.1286 80.8611 30.4986 80.8611C26.8676 80.8611 23.9246 77.9171 23.9246 74.286C23.9246 70.656 26.8676 67.7121 30.4986 67.7121C34.1276 67.7171 37.0686 70.6571 37.0726 74.286L37.0726 74.286Z"   fill="#F47A8F" >
        </path>
        <path d="M78.9876 74.286C78.9916 77.9211 76.0486 80.8711 72.4136 80.875C68.7786 80.88 65.8286 77.9361 65.8246 74.3011C65.8206 70.6671 68.7636 67.7171 72.3986 67.7121C72.4036 67.7121 72.4086 67.7121 72.4136 67.7121C76.0426 67.7171 78.9836 70.6571 78.9876 74.286L78.9876 74.286Z"   fill="#F47A8F" >
        </path>
    </g>
    <path d="M49.0226 54.487C49.8486 54.487 50.5176 55.156 50.5176 55.982L50.5176 72.333C50.8056 72.601 51.2436 72.909 51.6986 72.9311C52.3036 72.955 52.9186 72.3991 53.3226 71.932C53.8696 71.3131 54.8146 71.2541 55.4336 71.8011C56.0446 72.3401 56.1116 73.2691 55.5846 73.89C54.1486 75.541 52.7226 75.9151 51.7286 75.9151L51.7286 75.9151L51.5626 75.9151C49.3526 75.8211 47.9636 73.995 47.8126 73.7871L47.5266 73.393L47.5266 55.982C47.5266 55.156 48.1966 54.487 49.0226 54.487Z"   fill="#F47A8F" >
    </path>
    <path d="M64.8866 59.4211C64.8866 61.955 66.6956 64.0091 68.9256 64.0091C71.1556 64.0091 72.9636 61.955 72.9636 59.4211C72.9636 56.8871 71.1566 54.8351 68.9256 54.8351C66.6936 54.8351 64.8866 56.8891 64.8866 59.4211L64.8866 59.4211Z"   fill="#31296B" >
    </path>
    <path d="M29.9086 59.4211C29.9086 61.955 31.7156 64.0091 33.9476 64.0091C36.1796 64.0091 37.9866 61.955 37.9866 59.4211C37.9866 56.8871 36.1796 54.8351 33.9476 54.8351C31.7156 54.8351 29.9086 56.8891 29.9086 59.4211L29.9086 59.4211Z"   fill="#31296B" >
    </path>
    <path d="M38.0626 50.551C37.9016 50.551 37.7426 50.507 37.6046 50.424C37.4356 50.325 33.5426 48.094 28.4086 50.331C27.9506 50.52 27.4256 50.302 27.2366 49.844C27.0536 49.398 27.2546 48.887 27.6926 48.6861C33.7056 46.065 38.3316 48.768 38.5266 48.883C38.9516 49.138 39.0906 49.689 38.8366 50.114C38.6736 50.3861 38.3796 50.552 38.0626 50.551L38.0626 50.551Z"   fill="#31296B" >
    </path>
    <path d="M74.7996 50.551C74.6376 50.551 74.4796 50.507 74.3416 50.424C74.1726 50.325 70.2786 48.094 65.1456 50.331C64.6876 50.52 64.1626 50.302 63.9736 49.844C63.7896 49.398 63.9906 48.887 64.4286 48.6861C70.4416 46.065 75.0686 48.768 75.2626 48.883C75.6886 49.138 75.8276 49.689 75.5726 50.114C75.4106 50.3861 75.1166 50.552 74.7996 50.551L74.7996 50.551Z"   fill="#31296B" >
    </path>
    <path d="M59.6946 84.7571C57.3476 85.802 54.8076 86.3481 52.2386 86.3611L52.2386 86.3611C47.6716 86.3611 44.6296 84.5821 44.4436 84.471C43.7336 84.0481 43.5006 83.1281 43.9246 82.4181C44.3486 81.7071 45.2676 81.4751 45.9786 81.8991C46.2106 82.0351 51.5126 85.0611 58.4986 82.0151C59.2536 81.6811 60.1366 82.0221 60.4716 82.7781C60.8056 83.5331 60.4646 84.4171 59.7086 84.7511L59.6946 84.7571Z"   fill="#E83F63" >
    </path>
    <path d="M74.0246 54.596C74.1106 54.1081 74.5756 53.7821 75.0636 53.867C75.5516 53.953 75.8786 54.419 75.7926 54.9071L75.7876 54.9291C75.4146 56.9021 73.1536 57.5191 71.8766 57.5711L71.8396 57.5721L71.8396 57.5721C71.3436 57.5841 70.9326 57.1911 70.9216 56.695C70.9106 56.1991 71.3036 55.789 71.7986 55.7771C71.8286 55.7771 73.8286 55.6281 74.0246 54.596Z"   fill="#31296B" >
    </path>
    <path d="M27.8456 53.882C28.3326 53.789 28.8026 54.1101 28.8946 54.5971C29.0906 55.637 31.0986 55.7791 31.1186 55.7791C31.6146 55.7901 32.0076 56.2 31.9976 56.6961C31.9866 57.192 31.5756 57.585 31.0806 57.5741L31.0806 57.572L31.0806 57.572L31.0416 57.572C29.7636 57.52 27.5036 56.9041 27.1296 54.9311C27.0376 54.443 27.3586 53.974 27.8456 53.882Z"   fill="#31296B" >
    </path>
    <path d="M76.4446 48.221L87.2386 48.221L87.2386 41.09C87.2336 32.841 84.3866 24.846 79.1776 18.45C78.3896 17.508 77.5756 16.604 76.7306 15.744L76.7306 15.744C75.4786 14.4981 74.1386 13.344 72.7206 12.2901C63.7306 6.36104 55.5606 5.24404 51.3706 5.24404C43.8706 5.22805 36.5566 7.58407 30.4756 11.9751C28.0206 13.7271 25.8006 15.788 23.8716 18.107C18.4686 24.547 15.5116 32.6881 15.5226 41.0951L15.5226 49.1411L62.2036 49.1411L63.9986 40.0161L66.0036 49.1411L68.7636 49.1411L69.3856 42.973L76.4446 48.221Z"   fill="#3CAFB5" >
    </path>
    <path d="M29.5766 46.143C29.5356 46.1471 29.4946 46.1491 29.4526 46.1491L29.4526 46.1491C28.8376 46.148 28.3236 45.6811 28.2636 45.0691C27.4936 37.236 30.9976 31.374 31.1476 31.1281C31.4816 30.5581 32.2136 30.3661 32.7846 30.6991C33.3546 31.033 33.5466 31.7661 33.2136 32.336L33.1926 32.3711C33.1326 32.471 29.9586 37.8551 30.6496 44.836C30.7136 45.4931 30.2336 46.078 29.5766 46.143Z"   fill="#2D7F90" >
    </path>
    <path d="M36.8916 45.171C36.2546 45.172 35.7286 44.6731 35.6946 44.0371C35.1986 34.591 39.7186 27.7541 39.9116 27.468C40.2886 26.9251 41.0336 26.7901 41.5766 27.1671C42.1066 27.5351 42.2496 28.2561 41.9006 28.7981C41.8516 28.8731 37.6346 35.296 38.0876 43.9051C38.1226 44.565 37.6156 45.1291 36.9556 45.1631L36.8916 45.171L36.8916 45.171Z"   fill="#2D7F90" >
    </path>
    <path d="M43.2216 45.0691C42.4516 37.236 45.9556 31.374 46.1056 31.1281C46.4386 30.5581 47.1716 30.3661 47.7426 30.6991C48.3126 31.033 48.5046 31.7661 48.1716 32.336L48.1506 32.3711C48.0906 32.471 44.9166 37.8551 45.6076 44.836C45.6716 45.4931 45.1916 46.078 44.5346 46.143C44.4936 46.1471 44.4526 46.1491 44.4106 46.1491L44.4106 46.1491C43.7956 46.148 43.2816 45.6811 43.2216 45.0691Z"   fill="#2D7F90" >
    </path>
    <path d="M17.6596 15.186C17.0226 15.187 16.4966 14.6881 16.4636 14.052C16.3746 12.359 13.9206 9.63405 12.3886 8.31404C11.8886 7.88301 11.8326 7.12703 12.2636 6.62605C12.6956 6.12605 13.4516 6.07002 13.9516 6.50105C14.4366 6.91902 18.6816 10.669 18.8536 13.927C18.8886 14.5871 18.3816 15.15 17.7216 15.185L17.6596 15.186L17.6596 15.186Z"   fill="#2D7F90" >
    </path>
    <path d="M14.5186 19.2251C10.2846 19.2251 6.44157 15.9491 6.25459 15.784C5.7646 15.341 5.72657 14.5841 6.17057 14.094C6.59959 13.6211 7.32459 13.567 7.81758 13.973C7.86058 14.01 12.1326 17.635 15.8286 16.6651C16.4686 16.4981 17.1226 16.88 17.2906 17.52C17.4586 18.159 17.0756 18.8131 16.4366 18.981C15.8106 19.1441 15.1656 19.226 14.5186 19.2251L14.5186 19.2251Z"   fill="#2D7F90" >
    </path>
    <path d="M85.1206 15.1861L85.0556 15.1861C84.3956 15.151 83.8886 14.588 83.9236 13.9281C84.0956 10.6701 88.3406 6.92007 88.8256 6.50308C89.3166 6.06106 90.0736 6.10208 90.5156 6.59305C90.9566 7.08505 90.9166 7.84207 90.4246 8.28305L90.3866 8.31607C88.8596 9.63705 86.4026 12.3551 86.3136 14.054C86.2796 14.6881 85.7556 15.185 85.1206 15.1861L85.1206 15.1861Z"   fill="#2D7F90" >
    </path>
    <path d="M88.2616 19.2251C87.6146 19.2271 86.9706 19.146 86.3436 18.984C85.7046 18.8161 85.3216 18.1621 85.4896 17.5231C85.6576 16.883 86.3116 16.5011 86.9516 16.6681C90.6456 17.6391 94.9196 14.0151 94.9626 13.9761C95.4736 13.5561 96.2276 13.63 96.6466 14.1401C97.0526 14.6341 96.9996 15.359 96.5256 15.7871C96.3386 15.9521 92.4936 19.2251 88.2616 19.2251L88.2616 19.2251Z"   fill="#2D7F90" >
    </path>
    <path d="M17.7976 16.8551L17.8666 17.1191C15.9736 17.6241 14.3666 18.875 13.4116 20.586C12.7986 21.669 12.4786 22.8941 12.4846 24.138C12.4846 27.0921 14.2706 29.7521 17.0046 30.8691C18.3946 26.19 20.7326 21.8461 23.8716 18.107C25.8006 15.7871 28.0206 13.7251 30.4756 11.9721L30.4756 11.9721L30.4626 11.9571C27.7626 8.98008 23.1616 8.75608 20.1856 11.4551C18.6616 12.8371 17.7946 14.7991 17.7976 16.8551Z"   fill="#2D7F90" >
    </path>
    <path d="M78.3206 9.61203C76.2676 9.61307 74.3096 10.4801 72.9296 12L72.7206 12.2901C74.1386 13.344 75.4786 14.4981 76.7306 15.744C77.5756 16.604 78.3956 17.508 79.1716 18.45C82.2176 22.169 84.4736 26.469 85.8036 31.088L86.4026 30.922C89.1306 29.794 90.9106 27.133 90.9106 24.18C90.9156 22.9361 90.5966 21.711 89.9836 20.6281C89.0296 18.9211 87.4276 17.6711 85.5406 17.161L85.5406 17.161L85.6096 16.896C85.6076 12.872 82.3446 9.61105 78.3206 9.61203Z"   fill="#2D7F90" >
    </path>
    <path d="M61.7156 106.497C58.2046 105.151 54.4966 104.403 50.8486 104.395C47.0196 104.41 43.0706 105.235 39.3306 106.7C40.9016 109.683 45.2916 111.829 50.4686 111.829C55.7666 111.829 60.2426 109.584 61.7156 106.497L61.7156 106.497Z"   fill="#FFD1CA" >
    </path>
    <path d="M56.9996 131.076C56.6776 122.414 54.0776 115.669 50.9206 115.669C47.7626 115.669 45.1636 122.42 44.8396 131.076L56.9996 131.076L56.9996 131.076Z"   fill="#F47A8F" >
    </path>
    <ellipse cx="50.917418003082275" cy="114.25571870803833" rx="5.67056131362915" ry="4.43503999710083"   fill="#F68DB3" >
    </ellipse>
    <path d="M25.3586 114.208C25.3586 114.208 42.2446 129.689 51.0696 109.711L41.7606 104.855C41.7606 104.855 30.0346 110.081 25.3586 114.208L25.3586 114.208Z"   fill="#EBF2FC" >
    </path>
    <path d="M76.1796 114.208C76.1796 114.208 59.6436 129.689 50.8186 109.711L59.1836 104.855C59.1836 104.855 71.5086 110.081 76.1796 114.208L76.1796 114.208Z"   fill="#EBF2FC" >
    </path>
</svg>
