<svg xmlns="http://www.w3.org/2000/svg" xmlns:xlink="http://www.w3.org/1999/xlink" width="166.012451171875" height="257.6876754760742" viewBox="0 0 166.012451171875 257.6876754760742" fill="none">
    <path d="M52.056 125.03C47.7308 126.547 43.2965 127.678 38.9469 129.11C34.7777 130.483 29.3337 136.141 26.0971 139.135C23.088 141.918 22.3413 141.607 20.0537 144.988C15.0331 152.409 10.007 159.915 6.00901 167.949C4.0176 171.951 2.08936 176.161 1.36682 180.606C0.596119 185.347 1.36027 189.928 2.61013 194.518C3.88239 199.189 7.92245 203.636 9.23865 208.295C9.8452 210.442 7.76316 212.786 8.72084 214.809C9.19915 215.819 9.80147 216.719 10.4872 217.6C11.0156 218.278 13.0762 218.128 13.3428 218.958C13.6122 219.797 12.1214 221.537 12.0992 222.405C12.0677 223.647 12.0183 224.889 11.9775 226.131L11.7367 233.475C11.5784 238.3 11.4202 243.126 11.262 247.952C11.2102 249.527 11.1348 251.066 11.5123 252.561C11.376 252.434 11.2465 252.297 11.1282 252.142C10.782 251.69 10.0476 252.073 10.3415 252.602C10.832 253.485 11.5375 254.106 12.3663 254.553C13.3294 255.973 159.194 259.146 159.911 254.993C160.314 252.663 159.581 250.168 159.288 247.853C158.983 245.442 158.62 243.041 158.36 240.623C157.848 235.861 157.532 231.066 157.351 226.28C157.169 221.5 157.406 216.661 157.51 211.878C157.722 202.15 158.067 192.399 157.292 182.685C156.561 173.505 154.881 164.389 152.23 155.569C150.939 151.273 149.579 146.805 147.456 142.836C145.321 138.845 141.939 136.187 138.225 133.75C134.27 131.155 130.347 128.512 126.408 125.893C123.101 123.695 117.15 121.136 114.437 118.197C111.582 115.105 111.046 107.44 109.145 103.777C107.293 100.209 102.052 97.8813 98.0164 97.8813C91.3366 97.8813 86.2755 97.5398 80.783 103.721C78.0426 106.805 80.223 109.923 77.3506 112.883C74.7097 115.605 67.956 118.402 64.5523 119.981C60.4757 121.873 56.2962 123.542 52.056 125.03Z"   fill="#FFFFFF" >
    </path>
    <path d="M124.611 124.336C127.957 126.211 131.426 127.828 134.851 129.546C138.238 131.243 141.501 133.125 144.471 135.486C145.971 136.678 147.387 137.973 148.741 139.326C149.506 140.089 150.453 140.899 151.211 141.806C151.251 141.823 151.283 141.847 151.321 141.866C160.993 146.444 164.044 158.038 164.771 167.836C164.845 168.834 164.892 169.836 164.911 170.836C165.738 175.554 166.103 180.35 165.991 185.176C165.895 189.341 165.446 193.545 164.361 197.576C163.365 201.276 161.801 205.128 159.401 208.186C160.082 209.093 160.279 210.447 160.501 211.506C160.525 211.619 160.549 211.735 160.574 211.851C160.823 213.012 161.101 214.316 160.821 215.466C160.498 216.789 159.405 217.511 158.121 217.746C158.062 217.756 158 217.776 157.941 217.776C158.127 218.843 158.219 219.95 158.361 220.986C158.64 223 158.872 225.015 159.111 227.036C159.584 231.041 160.089 228.701 160.571 232.706C161.048 236.679 161.585 240.653 162.151 244.616C162.445 246.672 162.751 248.723 163.081 250.776C163.235 251.733 163.388 252.688 163.551 253.646C163.57 253.761 163.59 253.875 163.61 253.986C163.793 255.028 163.949 255.921 163.461 256.946C163.034 257.844 161.715 257.901 161.071 257.256C160.224 256.406 160.165 255.336 159.981 254.206C159.827 253.246 159.677 252.285 159.531 251.326C159.216 249.269 158.92 247.207 158.641 245.146C158.098 241.143 157.646 237.138 157.281 233.116C156.92 229.124 156.702 231.455 156.601 227.446C156.548 225.368 156.514 223.303 156.571 221.226C156.601 220.18 156.581 219.066 156.661 217.976C155.579 218.124 154.491 218.237 153.411 218.376C152.968 218.434 152.507 218.515 152.037 218.597C150.913 218.794 149.743 218.999 148.671 218.916C149.02 222.636 149.421 220.013 149.911 223.716C150.564 228.619 151.31 233.512 152.081 238.396C152.785 242.855 153.675 247.289 154.381 251.746L154.381 251.756C154.746 252.502 154.836 253.37 154.591 254.176C154.255 255.285 153.065 255.79 152.081 255.556C152.212 256.078 151.966 256.695 151.351 256.866C151.231 256.899 151.111 256.932 150.992 256.965C150.039 257.231 149.134 257.483 148.121 257.466C147.139 257.451 146.153 257.404 145.171 257.366C143.065 257.285 140.959 257.276 138.851 257.276C134.778 257.263 130.704 257.249 126.631 257.236C111.954 257.194 97.2777 257.158 82.601 257.116C75.2975 257.095 67.9924 257.074 60.691 257.036C56.9684 257.017 53.2514 256.988 49.531 256.916C46.9852 256.868 44.4608 256.811 41.951 256.526C41.6763 256.619 41.3977 256.709 41.121 256.796C39.416 257.335 38.1284 255.91 37.951 254.376C37.7439 252.567 37.7362 250.861 38.201 249.086C38.296 248.72 38.4115 248.331 38.551 247.936C38.5151 247.75 38.4937 247.56 38.481 247.366C38.4387 246.742 38.44 246.112 38.421 245.486C38.3787 244.093 38.3469 242.699 38.311 241.306C38.2455 238.658 38.201 236.004 38.201 233.356C38.201 229.685 38.2506 226.015 38.371 222.346C37.1775 222.39 35.9686 222.338 34.7791 222.287C34.4379 222.273 34.0982 222.258 33.761 222.246C31.7032 222.172 29.6424 222.042 27.591 221.856C23.5072 221.484 19.4472 220.88 15.431 220.056C14.9049 219.948 14.3691 219.841 13.841 219.716C13.8883 220.377 13.8817 221.048 13.8753 221.7C13.8731 221.921 13.871 222.14 13.871 222.356C13.871 223.888 13.8606 225.424 13.831 226.956C13.7718 229.883 13.6828 232.809 13.611 235.736C13.537 238.735 13.4444 241.737 13.381 244.736C13.3493 246.201 13.32 247.661 13.301 249.126C13.2972 249.434 13.3028 249.747 13.3083 250.062C13.3309 251.338 13.3541 252.648 12.761 253.786C12.1779 254.902 10.2829 254.969 9.72098 253.786C9.14166 252.569 9.21643 251.247 9.291 249.929C9.30617 249.661 9.32133 249.393 9.33098 249.126C9.38802 247.589 9.45126 246.06 9.52098 244.526C9.65619 241.525 9.81492 238.521 10.041 235.526C10.267 232.523 10.5387 229.529 10.881 226.536C11.0521 225.031 11.2734 223.532 11.491 222.036C11.5903 221.362 11.6737 220.657 11.811 219.966C11.7814 219.668 11.8438 219.399 11.941 219.126C11.3663 218.891 10.8217 218.595 10.321 218.206C9.24351 217.371 8.69267 216.21 8.36098 214.906C8.02084 213.566 8.05506 212.165 8.24098 210.806C8.32548 210.189 8.41886 209.519 8.57098 208.866C8.36816 208.851 8.17844 208.792 8.00098 208.686C6.64253 207.862 5.98084 206.517 5.27098 205.146C4.62872 203.901 4.05337 202.621 3.52098 201.326C2.48788 198.817 1.67562 196.216 1.10098 193.566C-1.00959 183.839 -0.104939 173.442 3.98098 164.346C6.25422 159.282 9.46731 154.75 12.911 150.426C16.511 145.907 20.479 141.764 24.791 137.926C25.0128 137.727 25.2927 138.022 25.111 138.246C24.8342 138.589 24.5635 138.931 24.291 139.276C24.6565 139.2 25.0234 139.133 25.391 139.076C27.6706 135.293 31.2966 132.325 35.091 130.176C43.7635 125.264 53.7789 123.692 62.931 119.966C66.962 118.324 70.8555 116.149 74.071 113.186C75.5794 111.797 76.9634 110.261 78.081 108.536C78.6493 107.659 79.16 106.747 79.591 105.796C80.0241 104.836 80.2907 103.831 80.821 102.916C81.6745 101.439 84.0663 102.062 84.041 103.786C84.0051 106.214 82.5566 108.765 81.251 110.756C79.8841 112.842 78.2191 114.728 76.341 116.366C68.7818 122.954 58.9668 125.453 49.521 128.046C44.9344 129.306 40.496 130.681 36.201 132.746C32.7679 134.401 29.6468 136.412 26.801 138.876C27.8234 138.758 34.1414 138.925 40.4605 139.092C46.1026 139.241 51.7455 139.39 53.621 139.336C68.283 138.911 82.9669 138.956 97.631 139.216C104.928 139.345 112.226 139.538 119.521 139.796C123.239 139.927 126.955 140.081 130.671 140.246C132.494 140.326 134.32 140.415 136.141 140.506C136.937 140.544 137.737 140.557 138.531 140.606C140.549 140.01 142.738 139.866 144.891 140.086C143.486 138.786 142.009 137.56 140.431 136.476C134.08 132.109 126.523 129.98 120.261 125.476C115.024 121.705 110.466 115.75 110.671 109.006C110.671 108.822 110.961 108.764 111.001 108.956C111.783 112.636 113.772 116.006 116.571 118.506C119.062 120.729 121.695 122.7 124.611 124.336ZM11.6487 197.624C9.54783 192.309 8.24839 186.173 10.1887 180.614C10.5455 179.592 12.178 180.035 11.8187 181.064C9.97135 186.358 11.2816 192.121 13.2787 197.174C13.6795 198.188 12.044 198.624 11.6487 197.624ZM19.5279 196.602C18.5045 195.001 17.9817 193.209 17.9479 191.312C17.9284 190.222 19.6184 190.225 19.6379 191.312C19.6666 192.927 20.1185 194.392 20.9879 195.752C21.576 196.672 20.112 197.516 19.5279 196.602ZM34.1713 219.535C32.3185 219.484 30.4699 219.397 28.6213 219.255C25.0424 218.984 21.47 218.551 17.9313 217.955C16.6087 217.733 14.9276 217.595 13.4213 217.155C11.9973 216.739 10.7268 216.053 10.0613 214.755C9.49508 213.656 9.39128 212.31 9.39128 211.095C9.39128 210.258 9.53466 209.409 9.62128 208.565C9.72902 208.489 9.82311 208.396 9.90128 208.295C11.4731 208.792 13.1041 209.137 14.7013 209.475C17.302 210.029 19.9489 210.485 22.5813 210.855C27.7911 211.588 32.9955 212.04 38.2413 212.405C38.4758 212.422 38.6859 212.382 38.8613 212.305C38.7049 214.708 38.5806 217.11 38.4813 219.515C37.7605 219.495 37.0316 219.51 36.3044 219.525L36.304 219.525C35.5884 219.539 34.8743 219.554 34.1713 219.535ZM155.307 209.03C155.931 209.564 156.798 209.84 157.587 209.67C157.614 209.739 157.634 209.812 157.657 209.9C157.796 210.444 157.866 211.027 157.947 211.58C158.027 212.126 158.094 212.681 158.137 213.23C158.141 213.287 158.15 213.358 158.159 213.437C158.198 213.745 158.251 214.178 158.117 214.37C157.964 214.588 157.629 214.573 157.397 214.6C156.771 214.668 156.136 214.698 155.507 214.75C154.317 214.854 153.134 214.957 151.947 215.06C150.783 215.162 149.505 215.134 148.367 215.44C148.172 213.156 147.991 210.867 147.827 208.58C149.591 208.841 151.435 208.833 153.187 208.93C153.892 208.97 154.599 208.993 155.307 209.03Z" fill-rule="evenodd"  fill="#000000" >
    </path>
    <path d="M75.7375 20.6881C107.759 19.1127 129.486 44.376 130.421 54.4502C131.07 61.4432 130.629 70.7696 130.629 77.0185C130.629 80.2081 132.238 89.9035 130.421 94.5524C126.376 104.9 121.806 113.005 109.143 113.005C96.4803 113.005 77.1764 106.439 70.5478 97.9712C69.3376 96.425 54.2985 85.1071 54.2985 76.2109C54.2985 57.2305 52.8886 21.8122 75.7375 20.6881Z"   fill="#FFFFFF" >
    </path>
    <path d="M71.1607 99.9878C70.0904 98.9442 69.0611 97.8587 68.0954 96.7185C67.8928 96.8121 67.6699 96.8751 67.4377 96.9034C66.4131 97.0285 65.3563 96.9765 64.4593 96.424C64.0458 96.4617 63.6151 96.3182 63.2952 96.025C63.0017 95.7553 62.7486 95.4637 62.5348 95.1532C62.2099 95.1817 61.8909 95.1904 61.5865 95.1399C61.4396 95.1261 61.2975 95.0875 61.1671 95.0241C60.925 94.9283 60.6953 94.7808 60.4845 94.5544C60.0573 94.0958 59.8936 93.4478 59.9724 92.8319C59.8879 92.8142 59.804 92.7924 59.7212 92.7643C59.1525 92.5718 58.7147 92.1894 58.435 91.6691C57.9345 91.3882 57.4839 91.0073 57.1427 90.6028C56.7271 90.1106 56.4136 89.5558 56.2294 88.9431C56.039 88.8545 55.8541 88.752 55.6771 88.632C54.4084 87.7733 53.6821 86.1611 54.1803 84.6704L54.1972 84.6236C54.2225 84.5565 54.2683 84.4421 54.3244 84.313C54.3163 84.208 54.3079 84.103 54.3022 83.9977L54.2846 83.6803L54.0305 83.5723C52.7629 83.068 51.906 82.3872 51.7536 80.9604C51.722 80.6653 51.8365 80.3644 52.0171 80.1129L52.0163 80.0338C51.9339 79.9911 51.8555 79.9474 51.7864 79.9034C51.0953 79.4619 50.6707 78.6706 50.7182 77.8523C50.7619 77.1063 51.1749 76.5117 51.6394 75.9617L51.7721 75.8075C51.7831 75.795 51.7954 75.781 51.8086 75.766L51.5015 75.6694C51.3024 75.606 51.1199 75.5428 50.9886 75.4693C50.4808 75.1846 50.0502 74.7997 49.7846 74.3107C49.746 74.25 49.7067 74.1904 49.6712 74.1257C49.3283 73.4999 49.2835 72.6981 49.5047 72.0262C49.5309 71.9469 49.5647 71.8723 49.5994 71.7981C48.6656 71.4689 47.9466 70.7883 47.86 69.5342C47.826 69.0409 47.9339 68.5495 48.1686 68.1287C48.1167 67.8453 48.1059 67.5515 48.1395 67.2609C47.811 66.9504 47.5558 66.5763 47.4417 66.12C47.226 65.2579 47.6208 64.4377 48.2077 63.6855C47.9906 63.0907 47.9794 62.4197 48.2274 61.8209C48.1319 61.5221 48.0776 61.2061 48.0746 60.8817C48.0681 60.1633 48.2893 59.5633 48.6465 59.0529C48.1444 58.4387 47.9058 57.6225 48.2025 56.8576C48.4135 56.314 48.6548 55.8167 48.9328 55.3559C48.7868 55.0055 48.7019 54.613 48.7019 54.1736C48.7019 53.3832 48.9981 52.757 49.4513 52.2444C49.2546 51.3084 49.6545 50.1683 50.5262 49.7562C50.8547 49.6007 51.2946 49.4383 51.7792 49.312C51.9611 48.7434 52.151 48.1772 52.3515 47.615C52.6674 46.7301 53.0071 45.8574 53.3671 44.9949C53.1598 45.1765 52.9425 45.3458 52.7177 45.4992C52.0067 46.4034 51.0643 47.1866 50.2722 47.6552C48.7021 48.5843 46.9063 48.0331 46.1312 46.4786C45.4027 47.0226 44.5285 47.3447 43.5958 47.2346C42.5382 47.1097 41.5712 46.4245 41.3071 45.3557C41.2689 45.201 41.2458 45.0338 41.2435 44.8656C40.637 45.2976 40.0023 45.6951 39.3062 45.9227C38.4195 46.2127 37.5144 45.5172 37.3974 44.6506C37.3511 44.3072 37.4153 44.0037 37.552 43.7473L37.4654 43.7132C37.4511 43.7072 37.4367 43.701 37.4225 43.6943C36.9575 43.4764 36.5965 43.0769 36.4249 42.6162C35.418 43.0059 34.2653 42.5492 33.9459 41.4415C33.5656 40.1248 33.5426 38.7911 33.8403 37.5085C32.7734 36.7328 32.0783 35.4288 31.96 34.0656C31.8736 33.087 32.107 32.1837 32.5184 31.3484C31.5094 30.971 31.1625 29.6479 31.642 28.6947C31.0051 28.3299 30.5897 27.5566 30.5804 26.8038C30.2958 26.3726 30.2048 25.8174 30.4408 25.1952C30.752 24.3754 31.3858 23.6895 32.1115 23.1516C31.795 22.6004 31.5598 21.9994 31.4139 21.3782C30.8126 21.2022 30.3273 20.7156 30.2284 19.985C30.1046 19.069 30.7074 18.2925 31.5187 18.0875C31.6087 17.8085 31.7185 17.5356 31.8544 17.2736C31.4529 16.3225 31.5121 15.1199 32.0297 14.0801C32.4882 13.1607 33.2339 12.5985 34.1318 12.2096C33.9036 11.4276 34.2058 10.6477 34.9663 10.0665C35.8948 9.35618 36.9132 8.81322 37.9832 8.42962C37.8882 7.15666 38.4201 5.85305 39.6774 5.40921C40.0135 5.29065 40.3634 5.2469 40.7189 5.24838C40.9771 4.68682 41.4079 4.2303 41.9701 3.8262C42.8208 3.21498 44.4106 3.58838 44.8824 4.54691L44.9054 4.59615C44.9295 4.65047 44.9555 4.70013 44.9802 4.75276C45.0753 4.28737 45.2975 3.84776 45.6548 3.48741C46.5478 2.58642 47.4907 2.56951 48.3981 2.9548C48.5646 2.54182 48.7661 2.14913 49.0112 1.79005C49.9008 0.487288 51.3706 0.321378 52.4468 1.02686C52.8782 0.647491 53.3597 0.354982 53.8923 0.188227C55.7172 -0.382419 56.882 0.4391 57.7129 1.71185C57.896 1.67613 58.0733 1.67846 58.2706 1.72601C58.3194 1.73785 58.4375 1.78244 58.5269 1.81753C58.596 1.84648 58.6583 1.88157 58.7183 1.91876L58.754 1.89995C58.8909 1.75053 59.0348 1.61421 59.1901 1.50431C59.5391 1.25745 59.8987 1.18559 60.2398 1.23631L60.3979 1.17819C61.7487 0.707303 63.2132 0.925839 64.1291 2.08996C64.3063 2.31483 64.4496 2.56528 64.5719 2.82947C64.8465 2.91951 65.1043 3.0497 65.3263 3.2099C65.4822 3.13656 65.647 3.07485 65.8234 3.02941C66.82 2.77367 67.867 3.01504 68.6791 3.62626C69.0746 3.92363 69.3656 4.29603 69.5861 4.72127C69.8373 4.78023 70.0856 4.88633 70.3182 5.02878C70.518 4.92924 70.721 4.83582 70.9291 4.77178C71.6899 4.53803 72.506 4.45201 73.2979 4.51097C75.0042 4.63756 76.6543 6.58723 75.514 8.26146L75.4786 8.31211C75.3339 8.51395 75.2079 8.72255 75.0913 8.93454C75.4997 9.11228 75.8931 9.35005 76.2565 9.64806C78.0339 11.1054 78.1939 13.352 77.8615 15.4713L77.8473 15.5595L77.8515 15.5595C78.7959 15.6492 79.6113 16.6359 79.0533 17.564L79.0262 17.6075C78.2709 18.7748 77.6236 20.0642 76.9021 21.2926C74.9054 22.0127 72.9801 22.8995 71.1672 23.974C70.038 24.9636 68.9629 26.0097 68.017 27.1736C67.5448 27.7549 67.1111 28.3701 66.7124 29.008C67.0312 29.1612 67.4255 29.1534 67.7584 28.8448C70.7202 26.0991 74.2984 24.1723 78.1084 22.8809C78.3829 22.7877 78.5629 22.6123 78.6639 22.4047C80.3553 21.9226 82.0765 21.5488 83.8148 21.2842C84.2939 20.8274 84.7959 20.3908 85.2729 19.936C85.882 19.3556 86.6449 19.364 87.2149 19.7286C87.498 19.5995 87.7876 19.4855 88.0815 19.3831L88.2639 19.3209C88.3399 19.296 88.4126 19.267 88.4874 19.2442C90.5272 18.6204 92.3925 18.852 94.3988 19.3645L94.6558 19.4315C95.591 19.6797 96.1796 19.64 97.0854 19.4115L97.1874 19.3854C98.1497 19.1343 99.179 18.9483 100.163 19.2127C101.192 19.4894 101.875 20.1048 102.576 20.8484L102.646 20.9232C102.973 21.2733 103.162 21.3114 103.59 21.3029L104.049 21.2893C105.78 21.2419 107.475 21.3149 108.772 22.6543C109.251 23.1497 109.766 23.8508 110.074 24.4906L110.119 24.5861C110.133 24.6172 110.146 24.6431 110.158 24.6664C110.344 24.6364 110.633 24.5187 110.771 24.4918C112.658 24.1258 114.232 24.6899 115.443 26.1771C115.708 26.5026 116.109 27.1417 116.386 27.493C116.483 27.5754 116.575 27.6638 116.662 27.7565C117.117 28.0472 117.761 28.0288 118.271 28.1306C119.661 28.4075 121.147 28.9363 121.854 30.2596C122.149 30.8118 122.258 31.4161 122.383 32.0197C122.85 32.3268 123.216 32.7694 123.501 33.2485C123.846 33.8301 123.993 34.5426 124.391 35.0919C124.68 35.4909 125.122 35.704 125.542 35.9478L125.703 36.0421C126.948 36.784 127.923 37.6072 128.333 39.0606L128.369 39.1899C128.435 39.4125 128.669 40.048 128.465 39.9525C128.64 40.0491 128.938 40.0831 129.097 40.136C129.961 40.4219 130.712 40.8839 131.173 41.6953C131.523 42.3128 131.586 42.9566 131.687 43.6373L131.729 43.9122C131.74 43.9787 131.753 44.0559 131.767 44.1308L131.78 44.2045L131.783 44.2062C131.939 44.2738 132.093 44.3471 132.244 44.4262C132.96 44.8478 133.449 45.5797 133.449 46.427C133.449 46.8383 133.321 47.1587 133.134 47.4447C133.285 47.6738 133.402 47.9179 133.491 48.1899C133.664 48.721 133.676 49.3018 133.618 49.8513C133.548 50.5107 133.379 51.1112 133.18 51.741C133.103 51.9841 133.072 52.3237 132.956 52.5558C133.169 52.8278 133.297 53.1602 133.257 53.4882C133.201 53.9574 132.987 54.5059 132.562 54.769C132.354 55.7941 131.907 56.8415 131.467 57.6795C131.416 57.7767 131.355 57.8634 131.287 57.9353C131.349 61.2809 131.104 64.6501 131.087 67.9913C131.068 71.6286 131.144 75.2683 131.271 78.9012C131.484 84.9226 132.247 91.149 130.47 97.0205C129.016 101.826 126.105 105.952 122.201 109.08C118.204 112.28 113.385 114.131 108.268 114.421C105.665 114.567 103.018 114.271 100.499 113.596L100.23 113.523C97.7939 112.854 94.9718 111.831 93.179 110.039C92.2325 109.093 93.1896 107.087 94.5776 107.639C95.9529 108.186 97.187 108.995 98.5515 109.566C99.7706 110.075 101.043 110.466 102.331 110.754C104.915 111.335 107.655 111.462 110.281 111.1C119.763 109.803 127.151 101.926 128.609 92.5861C129.012 89.9996 129.005 87.3707 128.977 84.7571L128.947 81.8934C128.924 79.4978 128.916 77.1007 129.004 74.7061C129.116 71.6246 129.333 68.545 129.625 65.4764L129.777 63.8797C129.957 62.0113 130.16 60.1288 130.51 58.2861C130.223 58.3011 127.961 54.43 126.706 52.2668C126.248 51.9033 125.861 51.4517 125.711 50.8673C125.68 50.7453 125.664 50.6223 125.655 50.4991C125.382 50.0707 125.095 49.6533 124.791 49.2483L124.725 49.2187C124.674 49.1955 124.634 49.1761 124.611 49.163C123.949 48.7874 123.396 48.2184 123.018 47.559C122.89 47.3367 122.786 47.1046 122.701 46.8673C122.161 46.3374 121.596 45.8319 121.003 45.3578C120.945 45.3113 120.884 45.2678 120.826 45.2219C120.07 44.94 119.407 44.5151 118.924 43.9033C118.722 43.7782 118.519 43.6556 118.314 43.5355C117.698 43.5298 117.076 43.3863 116.471 43.1376C115.364 42.6827 114.48 41.7839 113.368 41.3673C112.191 40.9271 110.952 41.9276 109.703 41.7471C109.384 41.701 109.067 41.604 108.773 41.4632C108.07 42.2089 107.323 42.9118 106.499 43.5271C105.304 44.4202 104.082 44.8284 102.697 45.2318C102.011 45.8834 101.242 46.5152 100.315 46.6079C98.1702 48.3233 95.876 49.7702 93.4621 51.1135C93.0738 51.3295 92.6878 51.4269 92.3215 51.4295C91.5643 51.905 90.7378 52.2709 89.8646 52.5241C89.591 52.6033 89.309 52.62 89.0316 52.586L88.274 53.2033C87.7467 53.6328 87.1843 53.838 86.6462 53.8513C86.3187 54.1022 85.9794 54.3396 85.6302 54.5678C85.256 54.8128 84.7708 54.9142 84.2832 54.8846C83.5384 55.6134 82.5727 55.6899 81.764 55.3542C81.6529 55.4193 81.5386 55.4811 81.4101 55.5417C81.2356 55.6244 81.0535 55.6941 80.8678 55.7505C80.0244 56.6598 78.79 57.1366 77.553 57.0119C76.6293 57.5779 75.5542 57.8723 74.5032 57.8061C74.3428 58.6118 74.2101 59.4204 74.0979 60.2318L74.0865 60.8262C74.0852 60.9225 74.085 60.9976 74.0863 61.047L74.087 61.0666C74.1898 63.6724 74.246 66.2794 74.3477 68.8855L74.357 69.0912C74.4727 71.3681 75.0326 75.5193 71.6872 75.4289C70.4405 75.3952 69.2036 74.4769 68.2329 73.7218L68.096 73.6151C68.0217 73.5572 67.9454 73.4978 67.8687 73.4374C67.1432 73.3431 66.4279 73.1666 65.6952 73.1398C64.791 73.1081 63.8403 73.2011 62.9593 73.4061C61.4044 73.7675 59.9001 74.4757 58.886 75.7584C58.7973 75.8704 58.7149 75.9888 58.6367 76.1072C58.5649 76.3502 58.4424 76.5742 58.2797 76.7687C57.3205 78.9266 57.8743 81.7779 58.9346 83.7517C60.1981 86.1029 62.1974 87.7284 64.7113 88.5471L64.8374 88.5874C66.5551 89.1242 67.2121 90.1641 68.1459 91.6097C69.0206 92.9666 70.0241 94.2304 71.1015 95.4309C73.1868 97.7537 76.113 99.6708 77.3255 102.61C77.5705 103.202 76.8691 103.76 76.3262 103.608C74.1987 103.01 72.7072 101.495 71.1607 99.9878Z"   fill="#000000" >
    </path>
    <path d="M60.2531 78.5293C62.0444 77.8276 64.2184 78.0349 65.9888 78.7089L66.1185 78.7594C67.6823 79.3779 70.2228 80.7536 70.5289 82.5132C70.6874 83.4243 69.8214 84.2125 68.9423 83.7329C68.1775 83.3163 67.7486 82.4773 67.1402 81.8686C66.5383 81.2665 65.8641 80.7825 65.1291 80.3574C63.5953 79.4719 61.9832 79.1274 60.2531 78.8719C60.0587 78.8444 60.1115 78.5842 60.2531 78.5293Z"   fill="#000000" >
    </path>
    <path d="M124.455 60.6878C123.359 60.0771 122.124 59.699 120.885 59.5378C119.63 59.375 117.807 59.1728 116.745 59.9778C116.393 60.2437 116.107 60.5476 115.935 60.9078C115.789 61.2127 115.725 61.5629 115.785 61.9578C115.842 62.34 116.024 62.7433 116.295 63.0578C116.526 63.3268 116.822 63.5338 117.175 63.5978C117.822 63.7153 118.426 63.6175 119.028 63.5202C119.053 63.5161 119.079 63.5119 119.105 63.5078C119.508 63.4428 119.916 63.3804 120.335 63.3678C121.259 63.3396 122.153 63.4218 123.055 63.6178C124.846 64.0069 127.01 64.6908 128.425 65.8778C128.124 64.8974 127.833 63.9344 127.215 63.0978C126.481 62.1052 125.536 61.2906 124.455 60.6878ZM102.939 63.3401C103.043 63.3285 103.148 63.3239 103.499 63.3501C103.938 63.5845 104.414 63.6768 104.869 63.5901C105.281 63.5115 105.668 63.2828 105.979 62.8801C106.336 62.4178 106.448 61.8667 106.349 61.3501C106.249 60.8233 105.929 60.3336 105.429 60.0201C104.164 59.2275 102.696 59.5926 101.349 59.9901L100.429 60.2701C98.7867 60.7731 97.158 61.3789 95.6191 62.1401C92.9218 63.4743 90.1182 65.3438 88.2991 67.8601C88.9896 67.6415 89.6655 67.3482 90.3391 67.0601C90.7816 66.8708 91.2264 66.6885 91.6691 66.5201C91.736 66.4946 91.8022 66.4655 91.8691 66.4401C93.1229 65.9632 94.3751 65.4822 95.6491 65.0601C97.0105 64.6092 98.3999 64.2161 99.7991 63.9001C100.536 63.7338 101.273 63.5889 102.019 63.4701C102.275 63.4295 102.532 63.3902 102.789 63.3601L102.939 63.3401ZM122.081 67.5857C124.02 67.5857 124.811 70.658 124.811 72.0057L124.811 72.0557C124.793 73.4216 123.867 76.2057 122.081 76.2057C120.274 76.2057 119.934 73.1326 120.011 71.8357L120.021 71.6757C120.175 69.5752 120.9 67.5857 122.081 67.5857ZM101.068 72.3484C101.124 73.6906 100.755 76.6284 98.988 76.6284C97.2022 76.6284 96.2763 73.8443 96.258 72.4784L96.258 72.4284C96.258 71.0807 97.0485 68.0084 98.988 68.0084C100.2 68.0084 100.931 70.0995 101.058 72.2584L101.068 72.3484ZM122.782 81.9889C123.149 83.3254 122.99 84.7657 122.302 85.7989C121.715 86.6806 120.733 87.2405 119.392 87.1789C116.727 87.057 113.544 86.0536 111.312 84.5989C110.731 84.2202 110.36 83.6176 110.292 82.9689L110.172 81.8089L109.522 82.7789C109.454 82.879 109.38 82.979 109.312 83.0789C109.124 83.354 108.939 83.6269 108.762 83.9089C108.081 84.9915 107.459 86.0822 106.892 87.2289C106.491 88.0408 106.196 88.9526 105.902 89.8689C105.405 91.4159 104.923 92.9316 103.862 94.0189C103.701 94.1833 103.448 94.248 103.222 94.2189C103.023 94.1933 102.838 94.0934 102.742 93.8989C101.474 91.3188 103.178 88.2104 104.562 86.0489L104.702 85.8189C105.985 83.8656 108.082 81.2803 110.482 80.9289L110.762 81.3689L111.162 81.0989C111.815 80.663 112.677 80.6879 113.432 81.0289L114.182 81.3689C115.588 81.9999 116.971 82.58 118.492 82.8989C118.603 82.9221 118.721 82.9487 118.832 82.9689C118.936 82.9879 119.036 83.0024 119.142 83.0189C119.119 82.9152 119.096 82.8119 119.072 82.7089C119.046 82.6 119.02 82.4877 118.992 82.3789C118.963 82.2665 118.933 82.1602 118.902 82.0489C118.78 81.6051 118.645 81.1595 118.482 80.7289C117.868 79.1101 116.886 77.6029 115.932 76.1589L115.822 75.9889C115.685 75.782 115.537 75.5622 115.382 75.3389C114.638 74.2673 113.81 73.1063 113.752 71.9389C114.739 72.0011 115.565 72.6146 116.292 73.1489C117.29 73.8817 118.213 74.7185 119.052 75.6289C120.68 77.395 122.141 79.6548 122.782 81.9889ZM108.336 94.7206C108.121 94.5002 107.892 94.2529 107.776 93.9906C107.708 93.837 107.68 93.6686 107.746 93.5106C107.989 93.4867 108.218 93.4605 108.436 93.4206C108.54 93.4016 108.64 93.3806 108.716 93.3806C108.998 93.3806 109.278 93.4154 109.556 93.4506C109.596 93.4506 109.636 93.4606 109.676 93.4606C109.893 93.4874 110.111 93.5217 110.326 93.5506C110.952 93.6347 111.571 93.7202 112.206 93.7506C112.665 93.7726 113.151 93.747 113.636 93.7206C113.665 93.719 113.694 93.7174 113.724 93.7158C114.954 93.6483 116.209 93.5795 117.156 94.4406C117.41 94.6715 117.516 94.9543 117.516 95.2506C117.516 95.6106 117.367 95.983 117.136 96.2706C116.613 96.9215 115.808 97.1506 114.936 97.1506C113.586 97.1616 112.071 96.6575 111.056 96.2606L110.786 96.1506C109.907 95.7986 109.009 95.3988 108.336 94.7206Z" fill-rule="evenodd"  fill="#000000" >
    </path>
</svg>
