<svg xmlns="http://www.w3.org/2000/svg" xmlns:xlink="http://www.w3.org/1999/xlink" width="103.6500244140625" height="133.68798828125" viewBox="0 0 103.6500244140625 133.68798828125" fill="none">
    <path d="M0.0209961 98.824L103.628 98.8311L103.628 98.8311C103.628 98.521 103.649 68.468 103.649 68.157L103.649 47.583C103.649 21.344 82.304 0 56.0659 0L47.585 0C21.348 0 0 21.344 0 47.583L0 68.15C0 68.4611 0.0150146 98.515 0.0209961 98.824Z"   fill="#7EC3ED" >
    </path>
    <path d="M83.9719 133.686C83.9719 117.852 67.136 105.008 51.318 104.948C35.4979 105.011 17.856 117.852 17.856 133.686L83.9719 133.686L83.9719 133.686Z"   fill="#507FA1" >
    </path>
    <path d="M81.72 56.747C78.351 61.6541 78.713 67.755 82.525 70.375C86.3369 72.995 92.166 71.14 95.533 66.233C98.901 61.325 98.5399 55.224 94.728 52.606C90.916 49.988 85.088 51.8411 81.72 56.747L81.72 56.747Z"   fill="#FFD1CA" >
    </path>
    <path d="M93.455 59.922C92.9929 59.7209 91.8579 59.94 90.834 60.6469C90.004 61.222 88.114 62.974 88.538 66.8189C88.596 67.3499 88.213 67.828 87.683 67.8859L87.682 67.8859C87.647 67.889 87.611 67.8919 87.5759 67.8919L87.5759 67.8919C87.08 67.895 86.663 67.5229 86.609 67.03C86.0709 62.15 88.617 59.827 89.735 59.055C91.28 57.989 93.044 57.634 94.228 58.15C94.718 58.363 94.9409 58.9329 94.728 59.4229C94.5139 59.9119 93.944 60.1359 93.455 59.922Z"   fill="#FFBAB3" >
    </path>
    <path d="M22.2309 56.747C25.5989 61.6541 25.2369 67.755 21.4249 70.375C17.6129 72.995 11.786 71.14 8.41694 66.233C5.04792 61.325 5.40986 55.224 9.22187 52.606C13.0339 49.988 18.8629 51.8411 22.2309 56.747L22.2309 56.747Z"   fill="#FFD1CA" >
    </path>
    <path d="M17.3359 67.037C17.28 67.524 16.8669 67.892 16.3759 67.892L16.3759 67.892L16.2689 67.892C15.739 67.834 15.3559 67.3571 15.4139 66.826C15.838 62.98 13.9459 61.229 13.1119 60.654C12.089 59.946 10.953 59.7259 10.49 59.929C10.0009 60.142 9.43087 59.9189 9.21798 59.429C9.00399 58.9401 9.22799 58.37 9.71688 58.156C10.9029 57.639 12.6649 57.995 14.2099 59.062C15.3299 59.834 17.874 62.157 17.3359 67.037Z"   fill="#FFBAB3" >
    </path>
    <path d="M58.339 106.559C58.339 106.559 55.455 108.976 51.02 108.976C46.1859 108.976 43.298 106.559 43.298 106.559L43.298 92.4041L58.339 92.4041L58.339 106.559L58.339 106.559Z"   fill="#FFD1CA" >
    </path>
    <path d="M88.423 64.709L88.423 64.709C88.423 82.5601 73.9509 97.033 56.098 97.033L47.8519 97.033C29.999 97.033 15.527 82.5601 15.527 64.709L15.527 48.361C15.527 30.51 29.999 16.037 47.8519 16.037L56.098 16.037C73.9509 16.037 88.423 30.51 88.423 48.361L88.423 64.709Z"   fill="#FFE6E1" >
    </path>
    <g opacity="0.4">
        <path d="M36.479 72.5179C36.479 76.429 33.309 79.599 29.3979 79.599C25.4879 79.599 22.318 76.429 22.318 72.5179C22.318 68.6071 25.4879 65.437 29.3979 65.437C33.307 65.441 36.475 68.609 36.479 72.5179L36.479 72.5179Z"   fill="#F47A8F" >
        </path>
        <path d="M81.626 72.5179C81.631 76.433 78.46 79.61 74.5449 79.615C70.63 79.619 67.453 76.449 67.448 72.5341C67.444 68.619 70.614 65.441 74.5289 65.437C74.5339 65.437 74.5399 65.437 74.5449 65.437C78.454 65.441 81.6219 68.609 81.626 72.5179L81.626 72.5179Z"   fill="#F47A8F" >
        </path>
    </g>
    <path d="M56.4189 72.0911C54.8719 73.87 53.3359 74.272 52.265 74.272L52.265 74.272L52.0859 74.272C49.7069 74.171 48.21 72.204 48.047 71.98L47.739 71.556L47.739 52.803C47.739 51.913 48.4609 51.192 49.351 51.192C50.24 51.192 50.9619 51.913 50.9619 52.803L50.9619 70.4141C51.271 70.702 51.7429 71.0341 52.2329 71.058C52.885 71.0861 53.548 70.485 53.9829 69.9821C54.5709 69.3151 55.589 69.251 56.257 69.84C56.9149 70.421 56.9869 71.422 56.4189 72.0911Z"   fill="#F47A8F" >
    </path>
    <path d="M66.438 56.507C66.438 59.236 68.386 61.448 70.788 61.448C73.1899 61.448 75.1379 59.236 75.1379 56.507C75.1379 53.777 73.192 51.567 70.788 51.567C68.3839 51.567 66.438 53.7791 66.438 56.507L66.438 56.507Z"   fill="#31296B" >
    </path>
    <path d="M28.7639 56.507C28.7639 59.236 30.71 61.448 33.114 61.448C35.517 61.448 37.464 59.236 37.464 56.507C37.464 53.777 35.517 51.567 33.114 51.567C30.71 51.567 28.7639 53.7791 28.7639 56.507L28.7639 56.507Z"   fill="#31296B" >
    </path>
    <path d="M37.546 46.9529C37.3719 46.9529 37.202 46.906 37.053 46.816C36.871 46.7089 32.677 44.307 27.1479 46.716C26.6539 46.9189 26.089 46.6839 25.886 46.191C25.688 45.711 25.9039 45.16 26.376 44.9439C32.853 42.1209 37.8359 45.0319 38.0449 45.156C38.504 45.43 38.6529 46.024 38.379 46.482C38.204 46.775 37.887 46.9539 37.546 46.9529L37.546 46.9529Z"   fill="#31296B" >
    </path>
    <path d="M77.115 46.9529C76.9409 46.9529 76.771 46.906 76.6219 46.816C76.4399 46.7089 72.2459 44.307 66.7169 46.716C66.223 46.9189 65.6579 46.6839 65.4549 46.19C65.2569 45.711 65.473 45.16 65.9449 44.9439C72.422 42.1209 77.405 45.0319 77.614 45.156C78.073 45.43 78.2219 46.024 77.948 46.482C77.7729 46.775 77.4559 46.9539 77.115 46.9529L77.115 46.9529Z"   fill="#31296B" >
    </path>
    <path d="M60.861 83.7891L60.8459 83.796C58.317 84.922 55.5819 85.51 52.814 85.5229L52.814 85.5229C47.896 85.5229 44.619 83.607 44.4189 83.488C43.6539 83.032 43.4029 82.041 43.86 81.276C44.3159 80.511 45.307 80.26 46.072 80.717C46.322 80.864 52.033 84.123 59.557 80.843C60.371 80.482 61.322 80.85 61.682 81.6641C62.042 82.478 61.6749 83.4289 60.861 83.7891Z"   fill="#E83F63" >
    </path>
    <path d="M73.927 54.5151L73.927 54.5151C73.3929 54.527 72.95 54.1041 72.938 53.57C72.926 53.0361 73.349 52.594 73.8829 52.5821C73.9149 52.5821 76.069 52.4211 76.28 51.309C76.3729 50.783 76.874 50.4321 77.4 50.5251C77.926 50.6171 78.277 51.1181 78.184 51.6441L78.1799 51.668C77.777 53.793 75.343 54.4571 73.9669 54.5141L73.927 54.5151Z"   fill="#31296B" >
    </path>
    <path d="M25.77 51.67C25.671 51.145 26.016 50.639 26.541 50.54C27.0659 50.441 27.572 50.786 27.671 51.311C27.8839 52.4389 30.0429 52.584 30.0639 52.584C30.598 52.594 31.0219 53.036 31.011 53.5699C31 54.103 30.5589 54.5279 30.025 54.5169L30.025 54.515L30.025 54.515L29.9829 54.515C28.6069 54.459 26.1729 53.795 25.77 51.67Z"   fill="#31296B" >
    </path>
    <path d="M42.3239 7.33203C33.463 7.47998 23.083 12.884 18.0239 17.907C9.96796 25.911 8.52998 36.783 9.49494 47.209C12.7169 48.582 19.63 48.876 23.3039 48.014C32.3499 45.886 45.1079 38.573 47.598 25.504C48.307 21.776 49.7259 11.134 42.3239 7.33203L42.3239 7.33203Z"   fill="#7EC3ED" >
    </path>
    <path d="M85.9759 23.137C76.0529 10.955 58.4449 3.56508 42.7059 5.31606C40.6809 27.189 56.0709 47.096 78.0689 50.397C82.8109 51.1131 87.6409 51.004 92.3459 50.075C92.5219 40.516 92.1209 30.682 85.9759 23.137L85.9759 23.137Z"   fill="#7EC3ED" >
    </path>
    <path d="M12.751 42.3979L12.751 42.3979C12.039 42.416 11.4471 41.854 11.429 41.1419C11.4111 40.43 11.9731 39.838 12.685 39.8199C15.7441 39.565 18.743 38.8199 21.5671 37.615C27.72 35.005 31.793 30.7249 33.673 24.8869C33.87 24.203 34.585 23.8089 35.269 24.0059C35.9531 24.2039 36.347 24.9179 36.149 25.602C36.142 25.628 36.134 25.6529 36.1251 25.6779C34.0301 32.161 29.3481 37.1049 22.5721 39.9799C19.469 41.2979 16.174 42.11 12.814 42.3869L12.751 42.3979Z"   fill="#65ABCE" >
    </path>
    <path d="M52.1878 23.2076L52.1876 23.2073L52.1829 23.201C52.1897 23.2095 52.1968 23.2179 52.2039 23.226C52.1982 23.22 52.1929 23.2138 52.1878 23.2076ZM52.1878 23.2076C52.1793 23.1972 52.1714 23.1866 52.1639 23.176C52.1699 23.1844 52.1763 23.1928 52.1829 23.201L52.1576 23.1673C51.7366 22.5924 51.8636 21.7883 52.4376 21.3673C52.9896 20.9634 53.7636 21.0584 54.1976 21.5873C54.2086 21.6013 54.2496 21.6553 54.3176 21.7473C56.5616 25.0353 68.9016 41.3423 91.5576 39.5173C92.2695 39.4603 92.9006 39.9963 92.9576 40.7073C93.0146 41.4192 92.4796 42.0403 91.7676 42.0973C90.5426 42.1942 89.3285 42.2473 88.1176 42.2473C83.6796 42.2573 79.2606 41.5613 75.0376 40.1973C70.6697 38.7653 66.5585 36.6603 62.8476 33.9473C56.726 29.5046 53.1401 24.6 52.1878 23.2076Z" fill-rule="evenodd"  fill="#65ABCE" >
    </path>
    <path d="M8.26196 95.252C7.54993 95.252 6.97302 94.675 6.97302 93.964L6.97302 78.3C6.97302 77.588 7.54993 77.011 8.26196 77.011C8.974 77.011 9.55103 77.588 9.55103 78.3L9.55103 93.965C9.54993 94.676 8.97302 95.252 8.26196 95.252L8.26196 95.252Z"   fill="#65ABCE" >
    </path>
    <path d="M17.856 95.844C17.145 95.844 16.567 95.267 16.567 94.5551L16.567 89.382C16.567 88.67 17.145 88.093 17.856 88.093C18.568 88.093 19.145 88.67 19.145 89.382L19.145 94.5551C19.145 95.267 18.568 95.844 17.856 95.844L17.856 95.844Z"   fill="#65ABCE" >
    </path>
    <path d="M96.0389 93.256C95.327 93.256 94.75 92.679 94.75 91.967L94.75 79.597C94.75 78.885 95.327 78.308 96.0389 78.308C96.751 78.308 97.328 78.885 97.328 79.597L97.328 91.967C97.328 92.679 96.751 93.256 96.0389 93.256L96.0389 93.256Z"   fill="#65ABCE" >
    </path>
    <path d="M85.694 95.252C84.9819 95.252 84.405 94.675 84.405 93.964L84.405 86.875C84.405 86.163 84.9819 85.5861 85.694 85.5861C86.406 85.5861 86.9829 86.163 86.9829 86.875L86.9829 93.964C86.9829 94.675 86.406 95.252 85.694 95.252L85.694 95.252Z"   fill="#65ABCE" >
    </path>
    <path d="M63.176 107.271C59.349 105.791 55.2999 104.964 51.318 104.948C47.829 104.988 44.3679 105.567 41.0559 106.664C41.7379 109.028 46.4879 110.853 52.249 110.853C57.5079 110.858 61.927 109.334 63.176 107.271L63.176 107.271Z"   fill="#FFD1CA" >
    </path>
    <path d="M24.351 115.396C24.351 115.396 42.094 131.669 51.3679 110.671L41.585 105.568C41.585 105.568 29.3979 109.332 24.351 115.396L24.351 115.396Z"   fill="#EDF2F4" >
    </path>
    <path d="M77.7589 115.396C77.7589 115.396 60.3829 131.669 51.11 110.671L59.8989 105.568C59.8989 105.568 71.798 108.976 77.7589 115.396L77.7589 115.396Z"   fill="#EDF2F4" >
    </path>
</svg>
