<svg xmlns="http://www.w3.org/2000/svg" xmlns:xlink="http://www.w3.org/1999/xlink" width="84.32843017578125" height="125.90801239013672" viewBox="0 0 84.32843017578125 125.90801239013672" fill="none">
    <path d="M68.7042 48.566C65.4402 53.32 65.7902 59.233 69.4872 61.771C73.1852 64.309 78.8292 62.519 82.0922 57.758C85.3563 52.997 85.0062 47.09 81.3093 44.551C77.6113 42.013 71.9672 43.811 68.7042 48.566L68.7042 48.566Z"   fill="#FFD1CA" >
    </path>
    <path d="M77.5123 52.31C76.7003 52.871 74.8533 54.581 75.2693 58.328C75.3233 58.82 74.9673 59.264 74.4753 59.318L74.4743 59.318C74.4433 59.322 74.4113 59.325 74.3793 59.325L74.3793 59.325C73.9193 59.328 73.5323 58.983 73.4813 58.527C72.9622 53.818 75.4153 51.579 76.4943 50.834C77.7113 49.995 79.5183 49.398 80.8093 49.96C81.2593 50.167 81.4573 50.7 81.2503 51.15C81.0493 51.588 80.5383 51.789 80.0933 51.606C79.6233 51.401 78.5293 51.606 77.5123 52.31Z"   fill="#FFBAB3" >
    </path>
    <path d="M15.6253 48.566C18.8892 53.32 18.5383 59.233 14.8403 61.771C11.1423 64.309 5.49929 62.519 2.23525 57.758C-1.02873 52.997 -0.676737 47.09 3.02028 44.551C6.71828 42.013 12.3603 43.811 15.6253 48.566L15.6253 48.566Z"   fill="#FFD1CA" >
    </path>
    <path d="M9.95031 59.325L9.95031 59.325C9.91729 59.328 9.88329 59.328 9.85027 59.325C9.35833 59.271 9.00329 58.827 9.0573 58.335C9.47033 54.596 7.62328 52.878 6.81328 52.318C5.79632 51.616 4.70427 51.408 4.23528 51.613C3.7763 51.802 3.25231 51.584 3.06328 51.125C2.87932 50.68 3.08031 50.169 3.5183 49.968C4.80932 49.405 6.61528 50.002 7.83428 50.841C8.91228 51.589 11.3643 53.825 10.8453 58.534C10.7913 58.987 10.4063 59.327 9.95031 59.325Z"   fill="#FFBAB3" >
    </path>
    <ellipse cx="23.046056747436523" cy="33.29103088378906" rx="18.486547470092773" ry="23.089111328125"   fill="#6F76AA" >
    </ellipse>
    <ellipse cx="61.60471534729004" cy="32.82882499694824" rx="18.48655128479004" ry="23.54981803894043"   fill="#6F76AA" >
    </ellipse>
    <path d="M79.7292 125.908C79.7292 107.915 60.5983 93.325 42.6232 93.253C24.6462 93.325 4.60327 107.915 4.60327 125.908L79.7292 125.908L79.7292 125.908Z"   fill="#5858AF" >
    </path>
    <path d="M50.6163 95.082C50.6163 95.082 47.4323 97.83 42.3892 97.83C36.8923 97.83 33.7142 95.082 33.7142 95.082L33.7142 78.765L50.6163 78.765L50.6163 95.082L50.6163 95.082Z"   fill="#FFD1CA" >
    </path>
    <path d="M75.4443 56.054C75.4443 74.433 60.5422 89.333 42.1642 89.333C23.7852 89.333 8.88525 74.433 8.88525 56.054L8.88525 37.033C8.88525 18.655 23.7852 3.75401 42.1642 3.75401C60.5452 3.75401 75.4443 18.659 75.4443 37.033L75.4443 56.054L75.4443 56.054Z"   fill="#FFE6E1" >
    </path>
    <path d="M41.5023 67.273L41.5023 67.273L41.3102 67.273C38.9062 67.171 37.3882 65.178 37.2213 64.948L36.9362 64.555L36.9362 44.945C36.9362 44.119 37.6052 43.449 38.4323 43.449C39.2582 43.449 39.9272 44.119 39.9272 44.945L39.9272 63.503C40.2762 63.841 40.8442 64.261 41.4473 64.282C42.0502 64.303 42.7343 63.901 43.4382 63.086C43.9733 62.456 44.9172 62.379 45.5463 62.914C46.1763 63.448 46.2532 64.392 45.7183 65.022L45.7003 65.044C44.4193 66.525 43.0073 67.273 41.5023 67.273Z"   fill="#F47A8F" >
    </path>
    <path d="M54.9092 47.576C54.9092 50.199 56.7822 52.327 59.0903 52.327C61.3983 52.327 63.2692 50.199 63.2692 47.576C63.2692 44.952 61.3983 42.827 59.0903 42.827C56.7822 42.827 54.9092 44.954 54.9092 47.576L54.9092 47.576Z"   fill="#31296B" >
    </path>
    <path d="M18.6873 47.576C18.6873 50.199 20.5582 52.327 22.8682 52.327C25.1772 52.327 27.0472 50.199 27.0472 47.576C27.0472 44.952 25.1763 42.827 22.8682 42.827C20.5602 42.827 18.6873 44.954 18.6873 47.576L18.6873 47.576Z"   fill="#31296B" >
    </path>
    <path d="M27.3823 37.407C27.8783 37.411 28.2773 37.815 28.2743 38.311C28.2703 38.807 27.8663 39.206 27.3703 39.202L27.3703 39.204L27.3703 39.204L27.3573 39.204L18.3713 39.074C17.8763 39.066 17.4803 38.658 17.4873 38.163C17.4953 37.667 17.9033 37.271 18.3983 37.279L27.3823 37.407Z"   fill="#31296B" >
    </path>
    <path d="M53.6782 38.164C53.6852 37.668 54.0922 37.272 54.5883 37.279L63.5732 37.407C64.0693 37.411 64.4683 37.815 64.4642 38.311C64.4612 38.807 64.0573 39.206 63.5612 39.202L63.5532 39.204L63.5532 39.204L63.5372 39.204L54.5623 39.074C54.0673 39.067 53.6702 38.659 53.6782 38.164Z"   fill="#31296B" >
    </path>
    <path d="M36.2073 72.885L47.2763 73.045C48.1023 73.051 48.7673 73.725 48.7623 74.551C48.7563 75.377 48.0813 76.042 47.2553 76.036L47.2613 76.036L47.2613 76.036L47.2333 76.036L36.1643 75.876C35.3383 75.864 34.6783 75.185 34.6903 74.359C34.7023 73.533 35.3813 72.873 36.2073 72.885Z"   fill="#E83F63" >
    </path>
    <path d="M7.69125 37.726L6.67129 31.972C4.21426 18.082 16.5883 6.30102 27.4633 2.24602C32.5643 0.345015 36.5872 -0.241991 39.6782 0.086012C42.8193 0.418013 49.1793 2.48801 50.0363 7.32802C43.8093 31.224 7.69125 37.726 7.69125 37.726L7.69125 37.726Z"   fill="#7781BC" >
    </path>
    <path d="M64.4873 36.734L77.0612 38.333C77.0612 38.333 77.6263 33.828 77.8253 32.328C80.0933 15.241 65.2813 3.77602 54.8323 2.63301L54.6153 2.60501C49.5482 1.97501 44.9253 5.55502 44.2653 10.618C42.6453 23.36 51.7443 35.113 64.4873 36.734L64.4873 36.734Z"   fill="#7781BC" >
    </path>
    <path d="M69.4603 28.409C70.1063 28.548 70.5173 29.184 70.3783 29.83C70.2583 30.388 69.7613 30.783 69.1912 30.775L69.1912 30.775C69.1033 30.775 69.0142 30.765 68.9282 30.745C57.5423 28.177 53.9393 19.005 53.7902 18.616C53.5553 17.996 53.8663 17.303 54.4863 17.068C55.1063 16.832 55.7993 17.144 56.0343 17.763C56.0543 17.814 56.8843 19.911 58.9403 22.251C61.6943 25.392 65.2333 27.456 69.4603 28.409Z"   fill="#4F5A7F" >
    </path>
    <path d="M35.7713 12.708C36.3703 12.964 36.6543 13.653 36.4093 14.257C36.3632 14.369 35.2283 17.054 32.0712 20.165C29.2013 22.991 24.0112 26.747 15.5833 28.624C15.4963 28.644 15.4083 28.654 15.3193 28.654L15.3193 28.654C14.6583 28.658 14.1193 28.125 14.1153 27.464C14.1123 26.898 14.5062 26.407 15.0603 26.288C22.8632 24.554 27.6503 21.126 30.2913 18.554C33.1513 15.771 34.1903 13.361 34.2003 13.337C34.4603 12.73 35.1633 12.448 35.7713 12.708Z"   fill="#4F5A7F" >
    </path>
    <path d="M42.3723 104.817C49.0283 104.817 54.4133 101.2 54.4133 96.74C54.4122 96.222 54.3383 95.707 54.1943 95.21C50.4642 93.953 46.5582 93.293 42.6213 93.253C38.6073 93.268 34.4873 94.011 30.5053 95.347C30.3883 95.802 30.3292 96.27 30.3303 96.74C30.3303 101.2 35.7153 104.817 42.3723 104.817L42.3723 104.817Z"   fill="#FFD1CA" >
    </path>
    <path d="M42.2641 100.214L35.714 110.304L38.4947 116.945L38.4947 125.908L45.9078 125.908L45.9078 116.945L48.6885 110.304L42.2641 100.214L42.2641 100.214Z"   fill="#7781BC" >
    </path>
    <path d="M31.4704 93.0107L42.2012 100.026L36.3706 114.855L23.5292 98.1248L31.4704 93.0107L31.4704 93.0107Z"   fill="#EDF2F4" >
    </path>
    <path d="M52.3831 92.2867L42.107 100.026L47.4844 114.13L59.4418 97.172L52.3831 92.2867L52.3831 92.2867Z"   fill="#EDF2F4" >
    </path>
</svg>
