<svg xmlns="http://www.w3.org/2000/svg" xmlns:xlink="http://www.w3.org/1999/xlink" width="165.4598388671875" height="246.0955810546875" viewBox="0 0 165.4598388671875 246.0955810546875" fill="none">
    <path d="M68.0215 111.364C67.8444 111.429 63.0471 110.4 62.87 110.466C59.4513 109.734 56.1838 111.783 53.0473 112.972C48.3713 114.744 43.9195 117.05 39.737 119.792C31.3034 125.32 24.0802 132.498 18.1252 140.62C12.1209 148.81 7.46227 157.99 4.14516 167.584C3.3396 169.914 2.61601 172.273 1.97777 174.654C1.62051 175.987 1.23875 177.37 1.67375 178.735C2.02953 179.851 2.82094 180.682 3.7503 181.352C5.01009 182.26 7.53706 182.851 7.48784 184.677C7.45023 186.066 6.97932 187.527 6.74946 188.899C6.47587 190.534 6.25108 192.177 6.02629 193.819C5.00375 201.29 4.20791 208.803 3.85594 216.338C3.50946 223.757 3.22192 231.327 3.73636 238.744C3.77037 239.233 3.91615 239.682 4.15129 240.061C3.93178 240.145 3.91488 240.555 4.18805 240.613C4.37946 240.653 4.57044 240.694 4.76185 240.734C5.15946 241.035 5.6553 241.22 6.22594 241.238C6.61277 241.25 6.99939 241.267 7.3858 241.287C11.4635 242.14 15.5405 242.945 19.6714 243.555C24.6928 244.297 29.729 244.901 34.7809 245.393C45.1615 246.402 55.4604 246.067 65.8547 245.523C76.233 244.98 86.6052 244.853 96.9943 245.123C107.392 245.394 117.787 245.846 128.187 246.031C139.807 246.238 151.409 245.92 162.995 244.996C164.583 244.87 165.566 243.606 165.253 242.027C163.375 232.571 161.248 223.178 159.567 213.68C158.716 208.869 157.935 204.045 157.225 199.211C156.889 196.915 156.56 194.618 156.265 192.317C156.058 190.705 155.743 188.861 156.839 187.667C158.382 185.987 159.784 184.548 159.973 182.141C160.15 179.876 159.385 177.406 158.906 175.208C157.902 170.597 156.652 166.043 155.271 161.533C153.868 156.95 152.33 152.41 150.769 147.879C149.31 143.643 147.907 139.368 146.007 135.304C142.401 127.591 136.299 121.879 128.759 118.064C126.883 117.116 123.058 113.73 121.099 112.972C119.298 112.274 119.304 114.31 117.531 113.543C116.114 112.93 114.794 112.113 114.001 110.744C113.139 109.258 110.979 107.179 110.65 105.449C109.953 101.782 110.708 98.6603 108.092 95.9001C105.769 93.4491 102.647 91.77 99.4167 90.8687C92.3105 88.8858 82.8335 90.2721 78.546 96.8779C76.4982 100.033 75.7826 103.846 73.0195 106.42C70.6066 108.668 71.1465 110.205 68.0215 111.364Z"   fill="#FFFFFF" >
    </path>
    <path d="M50.1428 114.503C46.0434 116.174 42.1499 118.43 38.5666 121.022C24.7683 131.002 14.7817 146.112 8.47959 161.757C6.76811 166.005 5.31797 170.359 4.14333 174.787C3.85769 175.864 3.58896 176.946 3.33417 178.031C3.25938 178.349 2.9334 179.163 3.11213 179.489C3.27016 179.776 3.88452 179.954 4.16994 180.104L5.13356 180.604C7.01318 181.573 10.1441 183.166 10.4581 183.321L10.9478 183.562C18.9571 187.49 27.5149 190.821 36.5279 191.051L36.5985 190.281C37.0003 186.025 37.5276 181.745 38.6786 177.619C38.7405 177.398 39.0225 177.472 39.0483 177.669C39.6895 182.554 39.4846 187.476 39.2609 192.384C38.8647 201.075 38.3387 209.761 37.8711 218.449C37.6371 222.795 37.3345 227.138 37.0614 231.481C36.7878 235.834 36.6992 240.291 36.0745 244.607C35.9353 245.569 34.8088 246.093 33.9557 245.991C33.0118 245.879 32.2856 245.047 32.2812 244.094C32.2698 241.579 32.5856 239.035 32.7612 236.526C32.9279 234.143 33.1068 231.761 33.2902 229.379C33.9604 220.686 34.7313 212.003 35.4443 203.314C35.697 200.232 35.9699 197.153 36.2509 194.074C26.7031 193.766 17.7832 190.228 9.27375 186.095C9.15058 188.892 8.85311 191.685 8.56516 194.471C7.76128 202.246 7.05248 210.018 6.52199 217.816C6.2541 221.755 6.0591 225.699 5.88924 229.643C5.80579 231.582 5.73776 233.521 5.68558 235.46C5.66811 236.107 5.65234 236.753 5.63838 237.4L5.60935 238.881C5.5856 239.82 5.49023 240.689 4.70086 241.372C3.8991 242.066 2.81614 242.103 2.02262 241.372C0.960367 240.394 1.14818 239.06 1.17966 237.746C1.20586 236.638 1.23734 235.529 1.27389 234.421C1.3472 232.205 1.44079 229.989 1.55466 227.774C1.95314 220.031 2.74931 212.319 3.78981 204.638L4.19598 201.673C4.95449 196.161 5.78722 190.524 7.48283 185.214C6.82262 184.885 6.16431 184.555 5.50854 184.222C4.3453 183.633 3.14255 183.08 2.01185 182.43C1.1148 181.914 0.341142 181.207 0.0914238 180.162C-0.187075 178.999 0.238792 177.726 0.521712 176.591L0.546283 176.491C0.823677 175.349 1.12241 174.211 1.43762 173.078C2.71579 168.483 4.29628 163.978 6.14593 159.583C9.84945 150.784 14.6298 142.425 20.469 134.867C25.7252 128.064 31.9343 121.894 39.2116 117.266C42.7694 115.004 46.5608 113.147 50.5704 111.833C52.4446 111.22 54.4837 110.686 56.446 110.466C57.5045 110.348 58.5644 110.28 59.6279 110.233C60.7024 110.187 61.798 110.361 62.87 110.466C62.9634 110.475 62.9989 110.619 62.8937 110.641C60.9752 111.042 59.0778 111.591 57.1936 112.148L56.3868 112.387C54.2621 113.015 52.1997 113.664 50.1428 114.503Z"   fill="#000000" >
    </path>
    <path d="M142.395 157.559C142.572 160.708 142.849 163.853 142.985 167.01C143.115 170.023 143.171 173.04 143.275 176.053C143.41 180.014 143.598 183.978 143.846 187.938C144.297 187.446 144.975 187.162 145.654 187.273C146.638 187.066 147.697 186.55 148.635 186.236L152.17 185.055C154.029 184.434 155.887 183.817 157.752 183.219C156.085 177.607 154.942 171.911 153.967 166.133L153.532 163.534C152.671 158.418 151.742 153.3 150.183 148.346C148.543 143.138 146.089 138.296 142.835 133.911C139.626 129.59 135.722 125.785 131.703 122.226C128.262 119.179 124.581 116.428 121.072 113.465C121.109 113.661 121.116 113.877 121.084 114.115C120.338 119.578 117.489 124.666 113.519 128.45C105.542 136.053 93.7351 137.63 83.5262 134.065C73.6509 130.617 64.9198 122.45 61.8351 112.344C61.7823 112.171 62.0139 112.102 62.1068 112.229C62.2779 112.464 62.4499 112.698 62.6221 112.933C62.6105 112.84 62.6589 112.738 62.7738 112.694C66.3729 111.304 69.9072 109.332 72.6051 106.543C73.9201 105.183 75.0677 103.643 75.9736 101.982C76.4075 101.186 76.7973 100.362 77.1083 99.5102L77.1873 99.2899C77.5642 98.2232 77.8792 97.1355 78.666 96.2905C79.9429 94.9188 82.4798 96.3382 81.8667 98.1546C80.4246 102.428 78.1281 106.326 74.5441 109.134C71.1753 111.774 67.158 113.488 62.8317 113.122C62.7983 113.119 62.7694 113.111 62.7438 113.099L63.1166 113.604C66.0437 117.565 69.1316 121.472 72.8534 124.709C80.4364 131.306 90.761 134.863 100.731 132.332C108.575 130.341 115.485 124.136 117.518 116.228C117.226 116.359 116.88 116.404 116.5 116.321C114.874 115.968 113.264 114.257 112.215 113.03C111.081 111.703 110.195 110.27 109.545 108.65C108.357 105.686 107.976 101.869 109.599 98.9977C109.799 98.6437 110.261 98.8421 110.3 99.1877L110.362 99.7271C110.675 102.418 111.064 105.022 112.333 107.475C112.953 108.675 113.698 109.847 114.603 110.853C115.088 111.39 115.613 111.904 116.181 112.355C116.733 112.795 117.402 113.113 117.898 113.617L117.989 113.714L117.991 113.696C118.116 112.631 118.863 112.161 119.594 112.191C120.301 112.219 121.132 112.531 121.454 112.68L121.484 112.694C126.418 115.063 130.961 118.151 135.237 121.577C144.08 128.663 150.706 137.925 153.916 148.833C155.492 154.186 156.396 159.702 157.35 165.192L157.938 168.556C158.828 173.625 159.823 178.793 161.834 183.508C162.354 184.727 161.953 185.871 160.678 186.351C159.085 186.95 157.487 187.53 155.886 188.103C156.672 191.476 157.151 194.967 157.74 198.357C158.992 205.564 160.526 212.725 161.842 219.922C162.514 223.602 163.121 227.295 163.793 230.975C164.116 232.748 164.454 234.517 164.782 236.289C164.959 237.244 165.119 238.202 165.288 239.159L165.318 239.318C165.414 239.822 165.536 240.344 165.397 240.849C165.239 241.425 164.789 241.832 164.388 242.245C164.058 242.585 163.581 242.587 163.176 242.402L163.043 242.34C162.321 242.002 161.754 241.665 161.498 240.849C161.336 240.333 161.277 239.751 161.171 239.219C160.968 238.2 160.775 237.179 160.593 236.155C160.229 234.106 159.873 232.056 159.525 230.004L159.201 228.083C158.088 221.462 157.03 214.8 156.496 208.109C156.259 205.14 156.007 202.174 155.754 199.207L155.563 196.982C155.322 194.166 155.028 191.279 154.986 188.424L154.029 188.764L149.358 190.416C148.2 190.826 146.725 191.665 145.479 191.512C144.868 191.437 144.403 191.245 144.044 190.896C144.474 196.969 145.056 203.031 145.832 209.062C146.538 214.55 147.321 220.031 148.246 225.486C148.704 228.188 149.174 230.887 149.685 233.579C149.94 234.925 150.204 236.269 150.476 237.612C150.611 238.282 150.772 238.952 150.878 239.628C150.999 240.401 150.786 240.877 150.354 241.514C149.999 242.036 149.29 242.305 148.714 241.944C147.952 241.466 147.555 241.051 147.331 240.181C147.127 239.389 147.003 238.563 146.846 237.762C146.555 236.283 146.274 234.802 146.002 233.32C145.435 230.219 144.911 227.11 144.444 223.992C142.797 213.009 141.752 201.933 141.224 190.84C140.964 185.366 140.883 179.888 140.93 174.409C140.953 171.601 141.045 168.784 141.244 165.983C141.445 163.147 141.863 160.368 142.237 157.559C142.25 157.461 142.389 157.455 142.395 157.559Z"   fill="#000000" >
    </path>
    <path d="M122.333 22.2597C121.109 24.1241 119.808 26.1041 120.49 28.2788C121.885 30.2284 127.785 40.3626 129.05 45.6288C130.371 51.1299 130.383 49.8796 130.417 49.879C130.44 49.8785 130.475 50.4832 130.97 54.3888C132.701 68.0524 133.717 83.1837 125.23 94.6488C123.695 96.4647 117.33 103.519 105.03 104.179C94.7093 104.732 84.275 101.651 76.0001 95.4988C75.0868 94.8246 74.8911 93.8964 75.1501 93.1288C72.1884 90.5875 69.9836 86.838 69.3401 82.9088C69.1348 82.2357 68.2767 82.2178 67.6401 82.0688C63.6685 81.3663 58.9685 80.1372 58.2301 75.4888C57.8184 71.5904 59.2486 69.0455 60.6521 66.5481C62.488 63.2813 64.2781 60.0958 61.8401 54.0688C61.1498 51.4428 59.7802 48.3828 58.3334 45.1502C54.5257 36.6424 50.183 26.9394 56.2801 20.8088C58.071 19.0292 60.6374 18.0104 63.1001 18.5288C79.2908 10.8164 98.0431 8.70477 115.5 12.8988C118.021 13.5028 120.706 14.1055 122.74 15.8088C125.208 17.8832 123.827 19.9855 122.333 22.2597ZM61.9122 19.0986C60.3803 19.3786 58.9778 20.2524 57.8822 21.4286C59.142 20.5253 60.5119 19.7984 61.9122 19.0986ZM56.4513 29.6162C56.0121 29.4877 55.6162 29.2386 55.3713 28.8662C55.4123 29.771 55.5376 30.6799 55.7313 31.5762C55.9166 30.91 56.1676 30.2517 56.4513 29.6162Z" fill-rule="evenodd"  fill="#FFFFFF" >
    </path>
    <path d="M124.309 16.78C125.645 16.9216 126.983 17.095 128.309 17.3C129.224 17.4395 130.139 17.5946 131.049 17.77L131.499 17.86C132.609 18.0819 133.847 18.2175 134.799 18.86C136.878 20.2634 135.902 22.9883 133.599 23.28C132.786 23.3818 131.909 23.1589 131.069 22.9456C130.759 22.8668 130.454 22.7893 130.159 22.73C129.099 22.5165 128.038 22.3249 126.969 22.16C126.416 22.0733 125.855 21.9997 125.299 21.93C126.43 22.0927 127.557 22.3245 128.649 22.65L128.949 22.74C131.061 23.3838 133.911 24.413 134.569 26.67C134.969 28.0417 133.882 29.2397 132.559 29.32C131.551 29.3807 130.678 28.8983 129.821 28.4243C129.634 28.3205 129.447 28.2172 129.259 28.12C128.499 27.7269 127.729 27.4315 126.909 27.18C126.062 26.92 125.19 26.7054 124.319 26.53C125.055 26.9354 125.772 27.3815 126.459 27.88L126.779 28.11C128.607 29.4724 131.393 31.5862 130.749 34.14C130.547 34.9452 129.651 35.7124 128.789 35.63C126.546 35.4208 125.302 33.0308 123.609 31.75C123.168 31.4161 122.686 31.0813 122.179 30.76C124.744 33.8204 126.787 37.3658 128.339 41.02C131.752 49.0593 132.804 56.4959 132.829 65.14L132.829 65.41C132.829 70.1781 132.724 75.0331 132.259 79.78C131.828 84.1655 131.037 88.4985 129.049 92.47C125.718 99.1294 119.219 104.316 112.059 106.29C104.092 108.488 95.1954 106.762 88.6694 101.69C87.0046 100.397 89.2087 97.5961 90.9094 98.79C97.7016 103.556 106.484 105.065 114.279 101.84C120.463 99.2827 125.449 93.7742 127.559 87.44C128.903 83.4103 129.29 79.1196 129.769 74.92L129.799 74.64C130.306 70.2481 130.599 65.8214 130.599 61.4C130.599 53.189 129.41 46.428 125.799 38.98C124.101 35.4716 121.902 32.2271 119.269 29.38C118.677 29.5007 118.054 29.4075 117.442 29.3159C117.229 29.284 117.018 29.2524 116.809 29.23C116.397 29.1856 115.991 29.148 115.579 29.11C116 29.3822 116.414 29.6604 116.819 29.95L117.349 30.34C117.441 30.4056 117.534 30.4716 117.627 30.5383C119.239 31.6843 121.104 33.0104 120.699 35.19C120.583 35.8135 119.961 36.3884 119.359 36.53C117.617 36.9451 116.308 35.6775 115.1 34.5085C114.795 34.2131 114.497 33.9241 114.199 33.67C112.917 32.5752 111.576 31.5928 110.209 30.61C109.899 30.3881 109.584 30.1698 109.269 29.95C109.565 30.2949 109.859 30.6464 110.139 31L110.549 31.52C110.622 31.6104 110.696 31.7024 110.771 31.7958C112.004 33.3264 113.553 35.2501 112.499 37.17C112.182 37.7449 111.504 38.1327 110.849 38.12C108.597 38.0735 107.706 35.5147 106.649 33.9C105.741 32.5157 104.75 31.214 103.729 29.91C103.448 29.5528 103.167 29.1972 102.879 28.84C98.1491 29.0852 93.4404 29.7103 88.8094 30.71C85.6277 31.3969 82.495 32.2859 79.3894 33.26L79.1294 33.34C77.4486 33.8814 75.7212 34.5718 74.5094 35.76C74.3364 36.5786 74.4639 37.4425 74.6294 38.26L74.7594 38.89C75.2908 41.5067 75.6503 44.0735 75.3794 46.76C75.0984 49.5308 74.2677 52.0258 73.2494 54.6C72.7677 55.8132 72.2705 55.5881 72.0994 56.89C71.9683 57.8817 72.0498 58.91 72.1394 59.91L72.2094 60.75C72.3972 62.9707 72.4943 65.3977 71.0394 67.23C70.8133 67.5111 70.3299 67.4011 70.1694 67.12C70.106 67.008 70.0433 66.8936 69.9694 66.79C69.268 65.7734 68.1889 65.194 66.9594 64.97C66.803 64.9425 66.8584 64.7369 66.9894 64.72C68.0288 64.5974 69.0228 64.8532 69.8594 65.39C69.4626 64.0176 66.3891 64.6933 65.3794 64.96L65.3394 64.97C64.0802 65.3082 62.8894 65.8522 61.8394 66.63C59.7267 68.194 58.5081 70.6329 58.5694 73.26C58.6306 75.8427 59.9592 78.2336 62.2494 79.47C63.3543 80.066 64.6187 80.3527 65.8694 80.34C66.4749 80.3341 67.0483 80.2067 67.6197 80.0798C68.2803 79.9331 68.9381 79.7869 69.6394 79.83C70.3957 79.8765 70.9767 80.692 70.5394 81.4C70.2478 81.8734 69.8688 82.2447 69.4294 82.53C70.5005 85.0007 71.8633 87.3552 73.4394 89.53C74.3119 90.7368 75.3013 91.8534 76.3894 92.87C76.6016 93.0686 76.8759 93.275 77.1665 93.4936C78.0387 94.1498 79.057 94.916 78.9794 95.91C78.9435 96.3876 78.6946 96.6725 78.2594 96.85C77.0322 97.3519 75.5674 95.8318 74.6303 94.8592C74.5341 94.7595 74.4436 94.6655 74.3594 94.58L74.2794 94.51C73.1512 93.3856 72.1251 92.1388 71.2294 90.82C69.6406 88.4782 68.6571 85.8429 68.2494 83.07C66.0797 83.7231 63.1998 83.111 61.4294 82.31C55.8646 79.7949 54.047 72.2921 57.4294 67.3C58.0843 66.3341 58.9056 65.5079 59.8394 64.84C59.6344 64.728 59.4405 64.5918 59.2694 64.41C58.3227 63.4041 57.6536 62.0899 56.9894 60.88L56.9094 60.73C56.3197 59.6648 55.7708 58.5886 55.2494 57.49L55.0494 57.08C53.8853 54.5755 52.8696 53.4734 52.0394 50.84C51.2408 48.2996 50.6071 45.7134 50.1994 43.08L50.0894 42.38C49.8536 40.8519 49.6373 39.2215 49.8094 37.67C48.6242 38.0568 47.4319 38.2912 46.2594 37.71C45.4861 37.3275 45.0553 36.211 45.3194 35.41C45.5116 34.8203 45.8316 34.3635 46.2394 34C45.9964 33.8774 45.7701 33.7233 45.5694 33.55L45.3894 33.39C44.6795 32.7726 44.6384 31.6035 45.0694 30.83C45.1116 30.756 45.1492 30.684 45.1894 30.61C45.5992 29.8766 46.4427 29.3973 47.2794 29.41L47.6894 29.41C47.2985 29.3233 46.9127 29.184 46.5494 28.96C44.9099 27.9519 45.1256 25.2219 47.1094 24.74C47.9418 24.5392 48.8525 24.6244 49.7694 24.84C49.7356 24.821 49.7032 24.8011 49.6694 24.78C48.9764 24.3552 48.3939 23.5217 48.4594 22.67C48.5312 21.7274 48.837 21.0546 49.6694 20.56C50.3919 20.1331 51.4211 20.0929 52.1394 20.56C52.7626 20.9679 53.372 21.416 53.9594 21.9C53.3699 21.1751 52.8564 20.3869 52.6494 19.55C52.3937 18.508 52.8213 17.3795 53.7594 16.83C54.5073 16.3925 55.2937 16.4418 55.9994 16.78C55.9613 16.2326 56.096 15.6746 56.4594 15.18C57.203 14.1657 58.5526 13.5803 59.7294 14.32C59.8836 14.4172 60.0987 14.585 60.2994 14.79C59.9085 13.5451 60.2563 12.2322 61.5894 11.67C62.4027 11.3255 63.5037 11.5061 64.2094 12.1C63.7615 9.67581 67.3392 7.8855 68.7294 10.39C69.0449 10.9574 69.3602 11.5589 69.6394 12.17L69.7394 12.4L69.7494 12.4L69.6794 12.23L69.6094 12.06C69.2227 11.1618 68.7246 10.2243 68.5894 9.25C68.3908 7.80859 69.0318 6.44135 70.5994 6.23C71.4085 6.1201 72.3164 6.48728 72.8594 7.13C72.5657 4.8937 75.0615 3.27033 76.8594 4.94C77.7108 5.73045 78.1585 6.88552 78.6994 7.9C79.0057 8.47276 79.323 9.04513 79.6294 9.62C79.7075 9.52701 79.7906 9.43088 79.8794 9.34C79.4251 7.9789 79.0673 6.58337 78.7694 5.18C78.4863 3.85695 79.1546 2.48388 80.5194 2.11C81.7595 1.7674 83.3126 2.53906 83.5894 3.86C83.7837 4.78973 84.0158 5.70506 84.2694 6.62C84.4426 6.57773 84.6104 6.55114 84.7794 6.53C84.7935 6.3581 84.8115 6.1819 84.8294 6.01L84.8894 5.4C85.0371 4.00309 85.1897 2.40745 85.9194 1.22C87.1637 -0.808963 90.3556 0.0311742 90.3894 2.43C90.4011 3.19402 90.2146 3.95455 90.0286 4.71295C89.9125 5.18603 89.7967 5.65827 89.7294 6.13C89.6533 6.66472 89.6047 7.20894 89.5794 7.75C89.9195 5.95352 90.3885 4.17575 90.9294 2.43C90.9928 2.22076 91.0639 2.01924 91.1294 1.81C91.516 0.601076 92.6066 -0.130059 93.8594 0.02C94.9685 0.151037 96.1546 1.25474 96.0194 2.47C95.994 2.7046 95.9595 2.92288 95.9194 3.13L95.9294 3.13L95.8994 3.21C95.817 3.59677 95.7084 3.94241 95.5394 4.27C95.3239 4.89771 95.1143 5.52806 94.9094 6.16C95.2051 6.14732 95.513 6.16294 95.8194 6.22C96.1363 5.40841 96.4525 4.6037 96.7694 3.79C97.1095 2.92135 97.3475 1.80209 98.0194 1.13C98.8792 0.271918 100.371 0.0970841 101.419 0.71C102.526 1.35673 102.92 2.50783 102.679 3.74C102.557 4.36851 102.139 4.80518 101.619 5.08L101.559 5.11L101.159 6.05C101.282 5.99716 101.412 5.95016 101.549 5.91C101.765 5.84659 101.972 5.80691 102.179 5.79C102.75 4.7565 103.381 3.75489 104.029 2.77C104.775 1.63716 106.236 1.15352 107.459 1.87C108.554 2.51039 109.133 4.19464 108.349 5.3C107.754 6.13906 107.195 6.99558 106.639 7.86C106.734 7.87691 106.829 7.89252 106.919 7.92C106.962 7.86294 107.003 7.80706 107.049 7.75C107.656 6.99759 108.365 6.4356 109.089 5.81C109.768 5.22245 110.078 4.29595 110.969 3.85C112.091 3.28992 113.442 3.56407 114.109 4.68C115.389 6.81595 113.606 8.43411 112.114 9.78731C111.937 9.94849 111.763 10.1059 111.599 10.26C112.937 9.42517 114.331 8.65941 115.759 8C116.562 7.63014 117.381 7.27857 118.209 6.97C119.437 6.51348 120.432 6.66058 121.439 7.51C121.889 7.89043 122.106 8.71647 121.899 9.27C121.498 10.331 120.871 10.9735 119.759 11.28C118.978 11.4956 118.171 11.6439 117.389 11.87C116.08 12.2462 114.813 12.7072 113.579 13.28C113.668 13.335 113.751 13.3924 113.829 13.46C114.75 13.162 115.687 12.9098 116.629 12.69C118.192 12.3234 119.782 12.0749 121.379 11.92L121.909 11.87C122.013 11.8601 122.117 11.8497 122.222 11.8393C124.07 11.6558 126.197 11.4446 127.309 13.18C127.696 13.7845 127.738 14.7819 127.309 15.38C126.49 16.5297 125.666 16.7589 124.309 16.78ZM116.902 18.6723C116.216 18.2272 115.58 19.3295 116.262 19.7723C116.663 20.0321 117.155 20.2028 117.522 20.5123L117.592 20.5823C118.185 21.1424 119.087 20.2543 118.492 19.6923C118.058 19.2816 117.505 19.0519 117.002 18.7423L116.902 18.6723ZM59.4373 21.7189L62.1773 22.8089C62.9266 23.1088 62.5947 24.342 61.8373 24.0389L59.0973 22.9389C58.3479 22.639 58.6799 21.4158 59.4373 21.7189ZM110.239 25.7947C109.228 25.3008 108.175 24.9404 107.109 24.5847C106.338 24.3273 106.664 23.1058 107.439 23.3647C108.609 23.7553 109.77 24.1626 110.879 24.7047C111.613 25.0631 110.97 26.1515 110.239 25.7947ZM56.1818 31.0317C57.2176 30.8569 58.2461 30.6563 59.2818 30.4817C60.0812 30.3469 60.4246 31.5664 59.6218 31.7017C58.5861 31.8765 57.5574 32.0769 56.5218 32.2517C55.7223 32.3863 55.3792 31.167 56.1818 31.0317ZM65.2899 34.061C65.6718 33.2976 66.0722 32.5411 66.6699 31.921C67.2375 31.332 68.1363 32.2332 67.5699 32.821L67.4799 32.911C67.0922 33.3417 66.8111 33.8546 66.5499 34.371L66.3899 34.701C66.0244 35.4316 64.9259 34.7889 65.2899 34.061ZM63.606 71.1793C63.5658 71.1645 63.5532 71.0793 63.606 71.0793C66.4053 70.646 68.9575 72.2118 70.616 74.3993C70.9181 74.7988 70.7185 75.3633 70.446 75.6993C70.2495 75.9466 69.9839 75.9713 69.686 76.0093C69.3437 76.0537 68.916 75.7773 68.766 75.4793C67.6991 73.3489 65.7989 72.0078 63.606 71.1793Z" fill-rule="evenodd"  fill="#000000" >
    </path>
    <path d="M92.4035 58.3984L92.5735 58.1584L92.7735 57.8584C93.3073 57.0838 93.9469 56.3092 94.7035 55.7484C96.0424 54.7562 97.4048 54.7799 98.8631 54.8052C99.3197 54.8132 99.7858 54.8213 100.264 54.7984C101.092 54.7587 101.482 53.9657 101.154 53.2484C100.416 51.6383 98.3163 51.1777 96.7335 51.4184C95.0404 51.676 93.538 52.5393 92.4035 53.8184C91.3233 55.0364 90.5453 56.5475 90.2635 58.1584C90.112 59.0264 90.2413 60.471 91.3935 60.5184C91.5784 60.5184 91.7694 60.3488 91.7535 60.1584C91.6999 59.5151 92.041 58.9315 92.4035 58.3984ZM122.303 52.5044C124.824 52.7075 129.049 54.854 128.493 57.9344C128.321 58.8844 127.001 59.3815 126.223 58.8544C125.386 58.2878 125.186 57.415 124.563 56.6744C124.066 56.0828 123.427 55.649 122.753 55.2844C122.088 54.9248 121.327 54.7038 120.573 54.6244L120.443 54.6144C119.989 54.5757 117.696 54.5882 118.033 55.4444C118.099 55.612 117.847 55.7412 117.733 55.6144C117.03 54.8366 117.829 53.8271 118.533 53.3744C119.624 52.6725 121.024 52.401 122.303 52.5044ZM121.449 68.8051C123.234 68.8051 124.16 66.021 124.179 64.6551L124.179 64.6051C124.179 63.2574 123.388 60.1851 121.449 60.1851C120.267 60.1851 119.542 62.1746 119.389 64.2751L119.379 64.4351C119.302 65.732 119.642 68.8051 121.449 68.8051ZM95.6254 65.0274L95.6254 65.0774C95.6438 66.4433 96.5697 69.2274 98.3554 69.2274C100.122 69.2274 100.492 66.2896 100.435 64.9474L100.425 64.8574C100.298 62.6985 99.567 60.6074 98.3554 60.6074C96.416 60.6074 95.6254 63.6796 95.6254 65.0274ZM115.511 75.2456C113.587 77.2659 110.858 75.1548 109.364 73.9998C109.29 73.9425 109.219 73.8876 109.151 73.8356C107.822 72.9834 106.328 75.1805 107.561 76.1756C117.919 83.8466 122.123 69.8699 114.011 68.4756C113.118 68.3219 112.783 69.3155 113.201 69.6156C114.435 70.3657 116.168 71.8838 116.097 73.6455C116.091 73.6475 116.085 73.6497 116.078 73.6521L115.998 73.6821L115.998 73.7321C116.018 73.72 116.039 73.7146 116.058 73.7021L116.096 73.6833C116.068 74.1885 115.891 74.7134 115.511 75.2456ZM116.096 73.6833L116.138 73.6621L116.158 73.6421C116.2 73.615 116.183 73.6164 116.097 73.6455C116.097 73.6581 116.096 73.6707 116.096 73.6833ZM114.876 85.3791C116.631 85.2005 118.629 84.9123 120.116 83.9991C120.26 83.9101 120.202 83.6791 120.036 83.6791C119.423 83.656 118.808 83.7166 118.193 83.7772L118.193 83.7772C117.721 83.8238 117.248 83.8704 116.776 83.8791C115.669 83.8996 114.555 83.8584 113.456 83.7191C111.103 83.4211 108.852 82.6218 106.536 82.1391C102.926 81.3871 98.5629 81.5916 95.9757 84.5991C93.5087 87.4667 93.9279 91.7113 96.2157 94.5491C98.6677 97.5906 102.877 98.6253 106.626 98.4391C108.961 98.3229 111.285 97.8332 113.556 97.2791L114.076 97.1491L114.15 97.1307C115.945 96.6852 118.978 95.9326 118.966 93.6491C118.966 93.1332 118.559 92.8052 118.076 92.7591C117.441 92.6983 116.925 92.8789 116.386 93.1291L116.246 93.1991L116.016 93.3091L115.946 93.3391C115.97 93.1244 115.957 92.8833 115.886 92.6191L115.826 92.4091C115.517 91.1522 115.461 89.8381 115.286 88.5591C115.197 87.9092 115.105 87.2603 115.026 86.6091C114.99 86.3204 114.954 86.0359 114.906 85.7491C114.888 85.6415 114.876 85.5091 114.876 85.3791ZM108.252 85.1912L107.172 85.0412L106.742 84.9812C104.073 84.6236 101.076 84.4395 98.8815 86.1512C98.0804 86.7759 97.6299 87.5858 97.4615 88.4612C99.5378 88.1533 101.621 87.9168 103.712 87.7212L104.282 87.6712C105.589 87.5533 106.895 87.4316 108.202 87.3012L109.132 87.2112L110.062 87.1112C110.388 87.077 112.588 86.9655 113.002 87.0412C113.046 86.6692 113.108 85.8632 113.202 85.5012C111.638 85.5543 110.076 85.4379 108.522 85.2312L108.252 85.1912ZM107.096 92.8646C106.549 89.7833 98.4637 92.5921 99.096 93.2046C101.493 95.5265 105.129 95.744 108.256 95.3146C109.848 95.0958 111.434 94.7404 112.996 94.3346C112.603 90.8487 108.328 90.654 107.096 92.8646Z" fill-rule="evenodd"  fill="#000000" >
    </path>
</svg>
