<svg xmlns="http://www.w3.org/2000/svg" xmlns:xlink="http://www.w3.org/1999/xlink" width="92.704345703125" height="146.6240234375" viewBox="0 0 92.704345703125 146.6240234375" fill="none">
    <path d="M75.5275 61.598C71.9395 66.8239 72.3245 73.3239 76.3895 76.1149C80.4545 78.9048 86.6585 76.937 90.2465 71.7029C93.8345 66.4689 93.4495 59.9749 89.3845 57.1849C85.3205 54.3939 79.1155 56.3709 75.5275 61.598L75.5275 61.598Z"   fill="#FFD1CA" >
    </path>
    <path d="M81.8725 73.418L81.8714 73.418C81.8365 73.423 81.8015 73.4259 81.7665 73.4259L81.7665 73.4259C81.2615 73.429 80.8355 73.0499 80.7795 72.548C80.2095 67.372 82.9065 64.9099 84.0915 64.091C85.4305 63.169 87.4165 62.5129 88.8355 63.131C89.3305 63.3579 89.5484 63.944 89.3205 64.439C89.0995 64.921 88.5375 65.142 88.0484 64.9399C87.5315 64.714 86.3295 64.9399 85.2115 65.714C84.3185 66.3309 82.2875 68.21 82.7445 72.329C82.8045 72.871 82.4135 73.3579 81.8725 73.418Z"   fill="#FFBAB3" >
    </path>
    <path d="M17.1775 61.598C20.7655 66.8239 20.3795 73.3239 16.3145 76.1149C12.2495 78.9048 6.04544 76.937 2.45743 71.7029C-1.13052 66.4689 -0.744535 59.9749 3.32047 57.1849C7.38547 54.3939 13.5885 56.3709 17.1775 61.598L17.1775 61.598Z"   fill="#FFD1CA" >
    </path>
    <path d="M4.65446 64.9479C4.15049 65.1559 3.57347 64.9159 3.3665 64.4119C3.16447 63.9219 3.38548 63.3599 3.8665 63.1389C5.28544 62.5209 7.27049 63.1769 8.61045 64.0989C9.79649 64.9219 12.4915 67.3799 11.9205 72.5558C11.8615 73.0529 11.4395 73.4269 10.9395 73.4258L10.9395 73.4258C10.9024 73.4289 10.8655 73.4289 10.8285 73.4258C10.2875 73.3669 9.89647 72.8799 9.95549 72.3379C10.4115 68.2269 8.38047 66.3389 7.48948 65.7219C6.37144 64.9509 5.17045 64.723 4.65446 64.9479Z"   fill="#FFBAB3" >
    </path>
    <path d="M88.6995 146.622C88.6995 126.842 67.6675 110.803 47.9055 110.724C28.1455 110.803 6.10651 126.838 6.10651 146.622L88.6995 146.622L88.6995 146.622Z"   fill="#5858AF" >
    </path>
    <path d="M56.2245 112.735C56.2245 112.735 52.7235 115.755 47.1805 115.755C41.1375 115.755 37.6435 112.735 37.6435 112.735L37.6435 94.796L56.2245 94.796L56.2245 112.735L56.2245 112.735Z"   fill="#FFD1CA" >
    </path>
    <path d="M82.9375 69.83C82.9375 90.0339 66.5565 106.414 46.3525 106.414C26.1475 106.414 9.76849 90.0339 9.76849 69.83L9.76849 48.9199C9.76849 28.7159 26.1475 12.335 46.3525 12.335C66.5595 12.335 82.9375 28.7209 82.9375 48.9199L82.9375 69.83L82.9375 69.83Z"   fill="#FFE6E1" >
    </path>
    <path d="M43.8935 78.0189C44.2765 78.391 44.9015 78.8529 45.5645 78.876C46.2275 78.8989 46.9785 78.4559 47.7535 77.5599C48.3405 76.8679 49.3785 76.783 50.0705 77.371C50.7635 77.959 50.8475 78.996 50.2595 79.689L50.2395 79.713C48.8315 81.3409 47.2795 82.163 45.6255 82.163L45.6255 82.163L45.4135 82.163C42.7705 82.0509 41.1015 79.861 40.9195 79.6069L40.6045 79.1749L40.6045 57.6169C40.6045 56.709 41.3415 55.973 42.2495 55.973C43.1575 55.973 43.8935 56.709 43.8935 57.6169L43.8935 78.0189Z"   fill="#F47A8F" >
    </path>
    <path d="M60.3635 60.51C60.3635 63.3939 62.4225 65.7319 64.9595 65.7319C67.4965 65.7319 69.5535 63.3939 69.5535 60.51C69.5535 57.626 67.4965 55.2889 64.9595 55.2889C62.4225 55.2889 60.3635 57.627 60.3635 60.51L60.3635 60.51Z"   fill="#31296B" >
    </path>
    <path d="M20.5435 60.51C20.5435 63.3939 22.6005 65.7319 25.1395 65.7319C27.6785 65.7319 29.7345 63.3939 29.7345 60.51C29.7345 57.626 27.6775 55.2889 25.1395 55.2889C22.6025 55.2889 20.5435 57.627 20.5435 60.51L20.5435 60.51Z"   fill="#31296B" >
    </path>
    <path d="M31.0824 50.3249C31.0785 50.87 30.6344 51.308 30.0895 51.3049L30.0895 51.3059L30.0895 51.3059L30.0744 51.3059L20.1965 51.1629C19.6515 51.1549 19.2165 50.7069 19.2245 50.162C19.2334 49.6169 19.6815 49.182 20.2265 49.1899L30.1025 49.3309C30.6474 49.3349 31.0865 49.7799 31.0824 50.3249Z"   fill="#31296B" >
    </path>
    <path d="M59.9825 51.1629C59.4375 51.156 59.0014 50.708 59.0094 50.1629C59.0175 49.6179 59.4655 49.182 60.0105 49.1899L69.8875 49.3309C70.4325 49.3349 70.8714 49.7799 70.8675 50.3249C70.8645 50.87 70.4195 51.308 69.8745 51.3049L69.8665 51.3059L69.8665 51.3059L69.8485 51.3059L59.9825 51.1629Z"   fill="#31296B" >
    </path>
    <path d="M51.9555 91.7969L51.9245 91.7969L39.7565 91.6209C38.8485 91.6078 38.1225 90.8609 38.1355 89.9529C38.1495 89.0448 38.8965 88.3189 39.8045 88.3318L51.9725 88.5079C52.8805 88.5149 53.6115 89.2559 53.6055 90.1639C53.5985 91.0719 52.8575 91.8029 51.9495 91.7969L51.9555 91.7969L51.9555 91.7969Z"   fill="#E83F63" >
    </path>
    <path d="M9.99044 66.6649C9.99044 66.6649 10.3374 58.9019 14.2785 53.2779C14.2785 53.2779 13.2594 34.6419 26.8675 28.4019C32.9024 25.636 38.9525 29.7999 45.0205 30.4539C51.7274 31.1789 58.2765 25.406 64.8114 28.4019C78.4234 34.641 77.4124 53.2779 77.4124 53.2779C82.0344 57.042 82.6284 66.2059 82.6334 66.198C88.9574 50.088 92.8065 3.25595 47.9245 0.133878L47.9245 0.133878C21.6485 -1.6951 5.64742 15.755 4.48342 36.2159C3.97848 45.1169 6.76046 58.3619 9.99044 66.6649Z"   fill="#7781BC" >
    </path>
    <path d="M49.9764 128.58C49.9754 130.261 48.6115 131.623 46.9304 131.622C45.2495 131.621 43.8875 130.257 43.8884 128.576C43.8894 126.895 45.2534 125.533 46.9344 125.534C48.6144 125.534 49.9764 126.896 49.9764 128.576L49.9764 128.58L49.9764 128.58Z"   fill="#EBF2FC" >
    </path>
    <path d="M49.9764 140.14C49.9754 141.821 48.6115 143.183 46.9304 143.182C45.2495 143.181 43.8875 141.817 43.8884 140.136C43.8894 138.455 45.2534 137.093 46.9344 137.094C48.6144 137.094 49.9764 138.456 49.9764 140.136L49.9764 140.14L49.9764 140.14Z"   fill="#EBF2FC" >
    </path>
    <path d="M59.7945 23.351C59.0685 23.386 58.4505 22.826 58.4155 22.099C58.3795 21.3729 58.9395 20.755 59.6665 20.72C62.1145 20.677 64.5545 21.01 66.9015 21.706C72.1295 23.237 76.0965 26.371 78.3745 30.77C78.7085 31.4149 78.4565 32.209 77.8115 32.543C77.6245 32.64 77.4175 32.69 77.2065 32.6909L77.2115 32.697L77.2115 32.697C76.7195 32.698 76.2685 32.423 76.0425 31.987C74.0875 28.205 70.7925 25.612 66.2475 24.258C64.1535 23.6339 61.9785 23.328 59.7945 23.351Z"   fill="#4F5A7F" >
    </path>
    <path d="M17.2455 27.8249C15.7145 29.381 14.4375 31.1689 13.4635 33.1229C13.2495 33.599 12.7745 33.9049 12.2525 33.901L12.2525 33.901C11.5265 33.8999 10.9375 33.3109 10.9385 32.585C10.9385 32.401 10.9765 32.22 11.0505 32.053C11.1055 31.9309 12.4045 29.048 15.2855 26.0649C19.1185 22.094 23.9605 19.817 29.2905 19.4879C30.0165 19.443 30.6425 19.995 30.6875 20.7209C30.7335 21.448 30.1815 22.074 29.4545 22.119C24.7585 22.408 20.6495 24.329 17.2455 27.8249Z"   fill="#4F5A7F" >
    </path>
    <path d="M45.5245 26.3929C40.7795 26.3929 37.8705 24.4099 37.7105 24.2979C37.1405 23.848 37.0415 23.021 37.4905 22.4499C37.9045 21.9259 38.6445 21.7939 39.2135 22.1439C39.3985 22.2689 43.4595 24.9599 49.8695 23.1379C50.5685 22.9399 51.2955 23.3449 51.4945 24.0439C51.6935 24.7419 51.2885 25.4699 50.5895 25.6689C48.9425 26.1429 47.2385 26.3869 45.5245 26.3929L45.5245 26.3929Z"   fill="#4F5A7F" >
    </path>
    <path d="M31.2435 114.302C31.9985 116.877 38.7335 118.891 46.9325 118.891C55.6375 118.891 62.6935 116.62 62.6935 113.82C62.6935 113.75 62.6885 113.679 62.6785 113.609C57.9105 111.769 52.8685 110.743 47.9055 110.724C42.3525 110.745 36.6175 112.029 31.2435 114.302L31.2435 114.302Z"   fill="#FFD1CA" >
    </path>
    <path d="M32.324 112.75L47.0837 118.784L39.0642 131.543L23.1501 117.878L32.324 112.75L32.324 112.75Z"   fill="#EBF2FC" >
    </path>
    <path d="M61.0887 112.126L46.9522 118.784L54.3485 130.92L70.2133 116.694L61.0887 112.126L61.0887 112.126Z"   fill="#EBF2FC" >
    </path>
</svg>
