<svg xmlns="http://www.w3.org/2000/svg" xmlns:xlink="http://www.w3.org/1999/xlink" width="229.39013671875" height="39.73486328125" viewBox="0 0 229.39013671875 39.73486328125" fill="none">
<g >
<path     fill="#436EEE"  d="M25.29 25.2448L25.29 32.1298L2.43187e-05 32.1298L2.43187e-05 0.629827L24.705 0.629827L24.705 7.51483L8.82002 7.51483L8.82002 12.8248L22.815 12.8248L22.815 19.4848L8.82002 19.4848L8.82002 25.2448L25.29 25.2448ZM63.9 35.7748Q62.325 37.7098 60.0525 38.7223Q57.78 39.7348 55.08 39.7348Q52.47 39.7348 50.355 39.0598Q48.24 38.3848 46.1025 36.8323Q43.965 35.2798 41.31 32.4898Q37.215 31.8148 34.02 29.5648Q30.825 27.3148 29.0475 23.8948Q27.27 20.4748 27.27 16.3798Q27.27 11.6998 29.5425 7.96483Q31.815 4.22983 35.7975 2.11483Q39.78 -0.000175476 44.775 -0.000175476Q49.77 -0.000175476 53.7525 2.11483Q57.735 4.22983 60.0075 7.96483Q62.28 11.6998 62.28 16.3798Q62.28 21.6898 59.3775 25.7623Q56.475 29.8348 51.57 31.5898Q52.47 32.5798 53.3475 32.9848Q54.225 33.3898 55.26 33.3898Q57.915 33.3898 60.03 31.1848L63.9 35.7748ZM36.27 16.3798Q36.27 19.0348 37.395 21.0823Q38.52 23.1298 40.455 24.2548Q42.39 25.3798 44.775 25.3798Q47.16 25.3798 49.095 24.2548Q51.03 23.1298 52.155 21.0823Q53.28 19.0348 53.28 16.3798Q53.28 13.7248 52.155 11.6773Q51.03 9.62983 49.095 8.50483Q47.16 7.37983 44.775 7.37983Q42.39 7.37983 40.455 8.50483Q38.52 9.62983 37.395 11.6773Q36.27 13.7248 36.27 16.3798ZM103.84 32.1298L103.75 15.4348L95.6502 29.0248L91.6902 29.0248L83.6352 15.8848L83.6352 32.1298L75.4002 32.1298L75.4002 0.629827L82.7352 0.629827L93.8052 18.8098L104.605 0.629827L111.94 0.629827L112.03 32.1298L103.84 32.1298ZM126.97 7.33483Q133.045 7.33483 136.24 10.1023Q139.435 12.8698 139.435 18.5848L139.435 32.1298L131.47 32.1298L131.47 28.9798Q129.625 32.5348 124.27 32.5348Q121.435 32.5348 119.365 31.5448Q117.295 30.5548 116.238 28.8673Q115.18 27.1798 115.18 25.0198Q115.18 21.5548 117.835 19.6423Q120.49 17.7298 126.025 17.7298L130.885 17.7298Q130.66 13.8598 125.71 13.8598Q123.955 13.8598 122.155 14.4223Q120.355 14.9848 119.095 15.9748L116.215 10.1698Q118.24 8.81983 121.143 8.07733Q124.045 7.33483 126.97 7.33483ZM126.655 27.1348Q128.14 27.1348 129.265 26.4148Q130.39 25.6948 130.885 24.2998L130.885 22.1848L127.195 22.1848Q123.46 22.1848 123.46 24.6598Q123.46 25.7848 124.315 26.4598Q125.17 27.1348 126.655 27.1348ZM152.35 32.5348Q149.29 32.5348 146.32 31.8373Q143.35 31.1398 141.55 30.0148L144.115 24.1648Q145.78 25.1998 148.075 25.8073Q150.37 26.4148 152.62 26.4148Q154.69 26.4148 155.568 25.9873Q156.445 25.5598 156.445 24.7498Q156.445 23.9398 155.388 23.6023Q154.33 23.2648 152.035 22.9498Q149.11 22.5898 147.063 22.0048Q145.015 21.4198 143.53 19.8448Q142.045 18.2698 142.045 15.4348Q142.045 13.0948 143.44 11.2723Q144.835 9.44983 147.513 8.39233Q150.19 7.33483 153.925 7.33483Q156.58 7.33483 159.19 7.87483Q161.8 8.41483 163.555 9.40483L160.99 15.2098Q157.75 13.4098 153.97 13.4098Q151.945 13.4098 151 13.8823Q150.055 14.3548 150.055 15.1198Q150.055 15.9748 151.09 16.3123Q152.125 16.6498 154.51 17.0098Q157.525 17.4598 159.505 18.0448Q161.485 18.6298 162.948 20.1823Q164.41 21.7348 164.41 24.5248Q164.41 26.8198 163.015 28.6423Q161.62 30.4648 158.898 31.4998Q156.175 32.5348 152.35 32.5348ZM183.58 31.1398Q182.5 31.8148 180.948 32.1748Q179.395 32.5348 177.64 32.5348Q172.87 32.5348 170.305 30.1948Q167.74 27.8548 167.74 23.2198L167.74 15.0298L164.185 15.0298L164.185 8.63983L167.74 8.63983L167.74 2.29483L176.29 2.29483L176.29 8.63983L181.87 8.63983L181.87 15.0298L176.29 15.0298L176.29 23.1298Q176.29 24.4348 176.988 25.1773Q177.685 25.9198 178.855 25.9198Q180.34 25.9198 181.465 25.1548L183.58 31.1398ZM210.445 19.9798Q210.445 20.0698 210.31 22.0948L192.58 22.0948Q193.12 23.9848 194.673 24.9973Q196.225 26.0098 198.565 26.0098Q200.32 26.0098 201.603 25.5148Q202.885 25.0198 204.19 23.8948L208.69 28.5748Q205.135 32.5348 198.295 32.5348Q194.02 32.5348 190.78 30.9148Q187.54 29.2948 185.763 26.4148Q183.985 23.5348 183.985 19.8898Q183.985 16.2898 185.718 13.4323Q187.45 10.5748 190.51 8.95483Q193.57 7.33483 197.395 7.33483Q201.04 7.33483 204.01 8.84233Q206.98 10.3498 208.713 13.2073Q210.445 16.0648 210.445 19.9798ZM197.44 13.4098Q195.46 13.4098 194.133 14.5348Q192.805 15.6598 192.445 17.5948L202.435 17.5948Q202.075 15.6598 200.748 14.5348Q199.42 13.4098 197.44 13.4098ZM221.2 10.6648Q222.505 8.99982 224.598 8.16733Q226.69 7.33483 229.39 7.33483L229.39 15.0298Q228.22 14.8948 227.455 14.8948Q224.71 14.8948 223.158 16.3798Q221.605 17.8648 221.605 20.9248L221.605 32.1298L213.055 32.1298L213.055 7.73982L221.2 7.73982L221.2 10.6648Z">
</path>
</g>
</svg>
