<svg xmlns="http://www.w3.org/2000/svg" xmlns:xlink="http://www.w3.org/1999/xlink" width="100" height="100" viewBox="0 0 100 100" fill="none">
<path     fill="#436EEE"  d="M25 -9.18485e-15L75 -9.18485e-15C88.8071 -9.18485e-15 100 11.1929 100 25L100 100L25 100C11.1929 100 -1.63136e-14 88.8071 -1.37773e-14 75L4.59243e-15 25C5.43787e-15 11.1929 11.1929 -1.08757e-14 25 -9.18485e-15Z">
</path>
<g >
<path     fill="#FAFBFD"  d="M66.65 76.6L66.5 48.775L53 71.425L46.4 71.425L32.975 49.525L32.975 76.6L19.25 76.6L19.25 24.1L31.475 24.1L49.925 54.4L67.925 24.1L80.15 24.1L80.3 76.6L66.65 76.6Z">
</path>
</g>
</svg>
