<svg xmlns="http://www.w3.org/2000/svg" xmlns:xlink="http://www.w3.org/1999/xlink" width="16" height="16" viewBox="0 0 16 16" fill="none">
<g  clip-path="url(#clip-path-kCZMrgkixyhPrtk_hWHGS)">
<path d="M15.5654 0.17512C15.8811 0.393869 16.0467 0.771994 15.9873 1.15012L13.9873 14.1501C13.9404 14.4533 13.7561 14.7189 13.4873 14.8689C13.2186 15.0189 12.8967 15.0376 12.6123 14.9189L8.87482 13.3658L6.7342 15.6814C6.45607 15.9845 6.01857 16.0845 5.6342 15.9345C5.24982 15.7845 4.99982 15.4126 4.99982 15.0001L4.99982 12.3876C4.99982 12.2626 5.0467 12.1439 5.13107 12.0533L10.3686 6.33763C10.5498 6.14075 10.5436 5.83763 10.3561 5.65013C10.1686 5.46263 9.86545 5.45013 9.66857 5.62825L3.31232 11.2751L0.552962 9.89388C0.221712 9.72825 0.00921222 9.39701 -0.000162797 9.02825C-0.00953778 8.6595 0.184212 8.31575 0.502962 8.13138L14.5029 0.131369C14.8373 -0.0592557 15.2498 -0.0405056 15.5654 0.175119L15.5654 0.17512Z"   fill="#2563EB" >
</path>
</g>
<defs>
<clipPath id="clip-path-kCZMrgkixyhPrtk_hWHGS">
<path d="M0 16L16 16L16 0L0 0L0 16Z" fill="white"/>
</clipPath>
</defs>
</svg>
