<svg xmlns="http://www.w3.org/2000/svg" xmlns:xlink="http://www.w3.org/1999/xlink" width="23.9970703125" height="28" viewBox="0 0 23.9970703125 28" fill="none">
    <path   fill-rule="evenodd"  fill="#000000"  d="M2.6094 7.81C2.6094 3.49279 6.11478 0 10.4394 0C14.764 0 18.2594 3.49279 18.2594 7.81C18.2594 12.1272 14.764 15.63 10.4394 15.63C6.11478 15.63 2.6094 12.1272 2.6094 7.81ZM10.4378 2.6055C13.3209 2.6055 15.6578 4.93736 15.6578 7.8155C15.6578 10.6936 13.3209 13.0255 10.4378 13.0255C7.55472 13.0255 5.2178 10.6936 5.2178 7.8155C5.2178 4.93736 7.55472 2.6055 10.4378 2.6055ZM19.5673 16.2793L19.5673 17.7693C20.2614 17.9751 20.8846 18.3449 21.3973 18.8293L22.6973 18.0793L23.9973 20.3393L22.7073 21.0793C22.8725 21.7738 22.8725 22.5048 22.7073 23.1993L23.9973 23.9393L22.6973 26.1993L21.3973 25.4493C20.8779 25.9404 20.2529 26.3051 19.5673 26.5093L19.5673 27.9993L16.9573 27.9993L16.9573 26.5093C16.2717 26.3051 15.6467 25.9404 15.1273 25.4493L13.8273 26.1993L12.5273 23.9393L13.8173 23.1993C13.652 22.5045 13.652 21.7741 13.8173 21.0793L12.5273 20.3393L13.8273 18.0793L15.1273 18.8293C15.6467 18.3382 16.2717 17.9735 16.9573 17.7693L16.9573 16.2793L19.5673 16.2793ZM2.61 27.3497L0 27.3497C0 21.5957 4.67614 16.9297 10.44 16.9297L10.44 19.5297C6.1171 19.5297 2.61 23.0342 2.61 27.3497ZM18.2666 20.1855C19.3473 20.1855 20.2166 21.0566 20.2166 22.1355C20.2166 23.2144 19.3473 24.0955 18.2666 24.0955C17.1859 24.0955 16.3066 23.2144 16.3066 22.1355C16.3066 21.0566 17.1859 20.1855 18.2666 20.1855Z">
    </path>
</svg>
