<svg xmlns="http://www.w3.org/2000/svg" xmlns:xlink="http://www.w3.org/1999/xlink" width="69.5159912109375" height="34.30810546875" viewBox="0 0 69.5159912109375 34.30810546875" fill="none">
<g >
<path     fill="#436EEE"  d="M2.01599 3.744C4.24799 4.85999 7.27199 6.588 8.74799 7.776L11.268 4.212C9.68399 3.13199 6.55199 1.54799 4.42799 0.575996L2.01599 3.744ZM-9.77516e-06 13.824C2.23199 14.904 5.29199 16.596 6.73199 17.712L9.14399 14.112C7.55999 13.032 4.46399 11.52 2.30399 10.584L-9.77516e-06 13.824ZM0.97199 30.78L4.60799 33.696C6.76799 30.168 9.07199 26.064 10.98 22.284L7.81199 19.404C5.65199 23.58 2.87999 28.08 0.97199 30.78ZM18.396 1.332C19.404 3.06 20.412 5.328 20.916 6.876L11.304 6.876L11.304 10.98L20.016 10.98L20.016 17.352L12.744 17.352L12.744 21.456L20.016 21.456L20.016 28.8L10.188 28.8L10.188 32.904L33.696 32.904L33.696 28.8L24.516 28.8L24.516 21.456L31.428 21.456L31.428 17.352L24.516 17.352L24.516 10.98L32.724 10.98L32.724 6.876L21.78 6.876L25.2 5.61599C24.732 4.068 23.472 1.728 22.356 -3.8147e-06L18.396 1.332ZM53.928 2.376L53.928 14.22L51.228 14.22L51.228 2.376L39.744 2.376L39.744 14.22L35.964 14.22L35.964 18.396L39.636 18.396C39.384 22.824 38.52 27.648 35.82 31.212C36.648 31.752 38.304 33.444 38.916 34.308C42.228 30.096 43.38 23.796 43.704 18.396L47.052 18.396L47.052 29.34C47.052 29.808 46.908 29.988 46.404 29.988C45.936 30.024 44.388 30.024 42.984 29.988C43.56 30.96 44.136 32.724 44.316 33.804C46.728 33.804 48.456 33.732 49.644 33.048C50.292 32.688 50.724 32.184 50.94 31.5C51.876 32.184 53.208 33.48 53.748 34.2C56.7 30.024 57.708 23.724 57.996 18.396L61.848 18.396L61.848 29.16C61.848 29.664 61.668 29.844 61.164 29.88C60.696 29.88 59.112 29.88 57.708 29.808C58.284 30.888 58.896 32.76 59.04 33.876C61.524 33.876 63.252 33.768 64.512 33.084C65.736 32.4 66.096 31.248 66.096 29.232L66.096 18.396L69.516 18.396L69.516 14.22L66.096 14.22L66.096 2.376L53.928 2.376ZM43.848 6.372L47.052 6.372L47.052 14.22L43.848 14.22L43.848 6.372ZM51.228 18.396L53.856 18.396C53.64 22.32 53.064 26.604 51.228 29.988L51.228 29.376L51.228 18.396ZM58.104 14.22L58.104 6.372L61.848 6.372L61.848 14.22L58.104 14.22Z">
</path>
</g>
</svg>
